<?xml version="1.0" encoding="utf-8"?>
<!-- Generator: Adobe Illustrator 27.3.1, SVG Export Plug-In . SVG Version: 6.00 Build 0)  -->
<svg version="1.1" id="Outline" xmlns="http://www.w3.org/2000/svg" xmlns:xlink="http://www.w3.org/1999/xlink" x="0px" y="0px"
	 viewBox="0 0 64 64" enable-background="new 0 0 64 64" xml:space="preserve">
<g>
	<path d="M8,23h12c0.55225,0,1-0.44775,1-1v-2c0-2.80103-1.65753-5.21613-4.03979-6.33417C17.59949,12.9566,18,12.02771,18,11
		c0-2.20557-1.79443-4-4-4s-4,1.79443-4,4c0,1.02771,0.40051,1.9566,1.03979,2.66583C8.65753,14.78387,7,17.19897,7,20v2
		C7,22.55225,7.44775,23,8,23z M12,11c0-1.10303,0.89697-2,2-2s2,0.89697,2,2s-0.89697,2-2,2S12,12.10303,12,11z M9,20
		c0-2.75684,2.24316-5,5-5s5,2.24316,5,5v1H9V20z"/>
	<path d="M16.96021,47.66583C17.59949,46.9566,18,46.02771,18,45c0-2.20557-1.79443-4-4-4s-4,1.79443-4,4
		c0,1.02771,0.40051,1.9566,1.03979,2.66583C8.65753,48.78387,7,51.19897,7,54v2c0,0.55225,0.44775,1,1,1h12
		c0.55225,0,1-0.44775,1-1v-2C21,51.19897,19.34247,48.78387,16.96021,47.66583z M12,45c0-1.10303,0.89697-2,2-2s2,0.89697,2,2
		s-0.89697,2-2,2S12,46.10303,12,45z M19,55H9v-1c0-2.75684,2.24316-5,5-5s5,2.24316,5,5V55z"/>
	<path d="M52.96021,13.66583C53.59949,12.9566,54,12.02771,54,11c0-2.20557-1.79443-4-4-4s-4,1.79443-4,4
		c0,1.02771,0.40051,1.9566,1.03979,2.66583C44.65753,14.78387,43,17.19897,43,20v2c0,0.55225,0.44775,1,1,1h12
		c0.55225,0,1-0.44775,1-1v-2C57,17.19897,55.34247,14.78387,52.96021,13.66583z M48,11c0-1.10303,0.89697-2,2-2s2,0.89697,2,2
		s-0.89697,2-2,2S48,12.10303,48,11z M55,21H45v-1c0-2.75684,2.24316-5,5-5s5,2.24316,5,5V21z"/>
	<path d="M52.96021,47.66583C53.59949,46.9566,54,46.02771,54,45c0-2.20557-1.79443-4-4-4s-4,1.79443-4,4
		c0,1.02771,0.40051,1.9566,1.03979,2.66583C44.65753,48.78387,43,51.19897,43,54v2c0,0.55225,0.44775,1,1,1h2
		c0.55225,0,1-0.44775,1-1s-0.44775-1-1-1h-1v-1c0-2.75684,2.24316-5,5-5s5,2.24316,5,5v1c-0.55225,0-1,0.44775-1,1s0.44775,1,1,1h1
		c0.55225,0,1-0.44775,1-1v-2C57,51.19897,55.34247,48.78387,52.96021,47.66583z M48,45c0-1.10303,0.89697-2,2-2s2,0.89697,2,2
		s-0.89697,2-2,2S48,46.10303,48,45z"/>
	<path d="M22.82568,15.36426c5.56348-3.09375,12.78516-3.09375,18.34878,0.00008c0.47761,0.26523,1.09367,0.08964,1.35971-0.38827
		c0.26855-0.48242,0.09473-1.09131-0.38818-1.35986C39.06787,11.90479,35.55908,11,32,11s-7.06787,0.90479-10.146,2.61621
		c-0.48291,0.26855-0.65674,0.87744-0.38818,1.35986C21.7334,15.4585,22.34229,15.63184,22.82568,15.36426z"/>
	<path d="M41.17432,48.63574c-5.56348,3.09375-12.78516,3.09375-18.34863,0c-0.4834-0.26807-1.09229-0.09473-1.35986,0.38818
		c-0.26855,0.48242-0.09473,1.09131,0.38818,1.35986C24.93213,52.09521,28.44092,53,32,53s7.06787-0.90479,10.146-2.61621
		c0.48291-0.26855,0.65674-0.87744,0.38818-1.35986C42.26611,48.54102,41.65576,48.36768,41.17432,48.63574z"/>
	<path d="M50.74268,39.0415c0.50298,0.16252,1.08974-0.12049,1.25879-0.64453C52.66406,36.3457,53,34.19336,53,32
		c0-2.15088-0.3252-4.271-0.96631-6.30127c-0.1665-0.52734-0.73145-0.81738-1.25488-0.65234
		c-0.52637,0.1665-0.81885,0.72803-0.65234,1.25488C50.70605,28.13623,51,30.05371,51,32c0,1.98438-0.30322,3.92969-0.90186,5.78271
		C49.92822,38.30811,50.2168,38.87158,50.74268,39.0415z"/>
	<path d="M13.22119,25.04639c-0.52393-0.16553-1.08838,0.125-1.25488,0.65234C11.3252,27.729,11,29.84912,11,32
		c0,2.19328,0.33591,4.34554,0.99846,6.39673c0.39307,1.21692,2.30208,0.61874,1.9034-0.61402C13.30322,35.92969,13,33.98438,13,32
		c0-1.94629,0.29395-3.86377,0.87354-5.69873C14.04004,25.77441,13.74756,25.21289,13.22119,25.04639z"/>
	<path d="M32,27c-2.75684,0-5,2.24316-5,5s2.24316,5,5,5s5-2.24316,5-5S34.75684,27,32,27z M32,35c-1.6543,0-3-1.3457-3-3
		s1.3457-3,3-3s3,1.3457,3,3S33.6543,35,32,35z"/>
	<path d="M46,31h-4v-1c0-0.50928-0.3833-0.9375-0.88965-0.99365c-0.43604-0.04883-0.61279-0.36768-0.66895-0.50293
		c-0.05566-0.13477-0.15625-0.48584,0.11768-0.82861c0.31836-0.39746,0.28662-0.97119-0.07373-1.33154l-2.82861-2.82861
		c-0.36035-0.36035-0.93408-0.39355-1.33154-0.07373c-0.34229,0.27393-0.69336,0.1748-0.82861,0.11768
		c-0.13525-0.05615-0.4541-0.23291-0.50293-0.66895C34.9375,22.3833,34.50928,22,34,22h-1v-3h2.58594l-0.29297,0.29297
		c-0.39062,0.39062-0.39062,1.02344,0,1.41406c0.38721,0.3872,1.02827,0.38579,1.41406,0l2-2
		c0.39062-0.39062,0.39062-1.02344,0-1.41406l-2-2c-0.39062-0.39062-1.02344-0.39062-1.41406,0s-0.39062,1.02344,0,1.41406
		L35.58594,17H32c-0.55225,0-1,0.44775-1,1v4h-1c-0.50928,0-0.9375,0.3833-0.99365,0.88965
		c-0.04883,0.43604-0.36768,0.61279-0.50293,0.66895c-0.13525,0.05713-0.48584,0.15625-0.82861-0.11768
		c-0.39746-0.31934-0.97217-0.28662-1.33154,0.07373l-2.82861,2.82861c-0.36035,0.36035-0.39209,0.93408-0.07373,1.33154
		c0.27393,0.34277,0.17334,0.69385,0.11768,0.82861c-0.05615,0.13525-0.23291,0.4541-0.66895,0.50293
		C22.3833,29.0625,22,29.49072,22,30v1h-3v-2.58594c0,0,0.29283,0.29283,0.29297,0.29297c0.3874,0.3874,1.02699,0.38707,1.41406,0
		c0.39062-0.39062,0.39062-1.02344,0-1.41406l-2-2c-0.39062-0.39062-1.02344-0.39062-1.41406,0l-2,2
		c-0.39062,0.39062-0.39062,1.02344,0,1.41406s1.02344,0.39062,1.41406,0L17,28.41406V32c0,0.55225,0.44775,1,1,1h4v1
		c0,0.50928,0.3833,0.9375,0.88965,0.99365c0.43604,0.04883,0.61279,0.36768,0.66895,0.50293
		c0.05566,0.13477,0.15625,0.48584-0.11768,0.82861c-0.31836,0.39746-0.28662,0.97119,0.07373,1.33154l2.82861,2.82861
		c0.3584,0.36035,0.93359,0.39258,1.33154,0.07373c0.34277-0.27344,0.69434-0.17334,0.82861-0.11768
		c0.13525,0.05615,0.4541,0.23291,0.50293,0.66895C29.0625,41.6167,29.49072,42,30,42h1v3h-2.58594l0.29297-0.29297
		c0.39062-0.39062,0.39062-1.02344,0-1.41406s-1.02344-0.39062-1.41406,0l-2,2c-0.39062,0.39062-0.39062,1.02344,0,1.41406
		c0,0,1.99256,1.99256,1.99998,1.99998c0.36567,0.36567,1.02448,0.38963,1.41408,0.00002c0.39062-0.39062,0.39062-1.02344,0-1.41406
		L28.41406,47H32c0.55225,0,1-0.44775,1-1v-4h1c0.50928,0,0.9375-0.3833,0.99365-0.88965
		c0.04883-0.43604,0.36768-0.61279,0.50293-0.66895c0.13623-0.05566,0.48633-0.15576,0.82861,0.11768
		c0.39795,0.31934,0.97217,0.28662,1.33154-0.07373l2.82861-2.82861c0.36035-0.36035,0.39209-0.93408,0.07373-1.33154
		c-0.27393-0.34277-0.17334-0.69385-0.11768-0.82861c0.05615-0.13525,0.23291-0.4541,0.66895-0.50293
		C41.6167,34.9375,42,34.50928,42,34v-1h3v2.58594l-0.29297-0.29297c-0.39062-0.39062-1.02344-0.39062-1.41406,0
		s-0.39062,1.02344,0,1.41406c0,0,1.99723,1.99723,2,2c0.37339,0.37339,1.02542,0.38865,1.41407,0l2-2
		c0.39062-0.39062,0.39062-1.02344,0-1.41406s-1.02344-0.39062-1.41406,0L47,35.58594V32C47,31.44775,46.55225,31,46,31z
		 M40,33.25244c-0.62842,0.29102-1.12842,0.80762-1.40625,1.479c-0.27783,0.6709-0.28955,1.39014-0.05127,2.03955L36.771,38.54248
		c-0.64893-0.23779-1.36816-0.22656-2.03955,0.05127S33.54346,39.37158,33.25244,40h-2.50488
		c-0.29102-0.62842-0.80762-1.12842-1.479-1.40625s-1.39014-0.28906-2.03955-0.05127L25.45752,36.771
		c0.23828-0.64941,0.22656-1.36865-0.05127-2.03955c-0.27783-0.67139-0.77783-1.18799-1.40625-1.479v-2.50488
		c0.62842-0.29102,1.12842-0.80762,1.40625-1.479c0.27783-0.6709,0.28955-1.39014,0.05127-2.03955l1.77148-1.77148
		c0.64941,0.23779,1.36816,0.22656,2.03955-0.05127s1.18799-0.77783,1.479-1.40625h2.50488
		c0.29102,0.62842,0.80762,1.12842,1.479,1.40625c0.67139,0.27881,1.38965,0.28906,2.03955,0.05127l1.77148,1.77148
		c-0.23828,0.64941-0.22656,1.36865,0.05127,2.03955c0.27783,0.67139,0.77783,1.18799,1.40625,1.479V33.25244z"/>
	<circle cx="50" cy="56" r="1"/>
</g>
</svg>
