<?xml version="1.0" encoding="utf-8"?>
<!-- Generator: Adobe Illustrator 27.3.1, SVG Export Plug-In . SVG Version: 6.00 Build 0)  -->
<svg version="1.1" id="Outline" xmlns="http://www.w3.org/2000/svg" xmlns:xlink="http://www.w3.org/1999/xlink" x="0px" y="0px"
	 viewBox="0 0 64 64" enable-background="new 0 0 64 64" xml:space="preserve">
<g>
	<path d="M52.96002,47.66998C53.59998,46.95996,54,46.02997,54,45c0-2.21002-1.78998-4-4-4s-4,1.78998-4,4
		c0,1.02997,0.40002,1.95996,1.03998,2.66998c-1.07996,0.5-2.00995,1.28003-2.70996,2.23999
		c-1.32001-3.95996-4.48004-7.08002-8.47003-8.32001C37.16998,40.47998,38,38.83997,38,37c0-3.31-2.69-6-6-6s-6,2.69-6,6
		c0,1.83997,0.83002,3.47998,2.14001,4.58997c-3.98999,1.23999-7.15002,4.36005-8.47003,8.32001
		c-0.70001-0.95996-1.63-1.73999-2.70996-2.23999C17.59998,46.95996,18,46.02997,18,45c0-2.21002-1.78998-4-4-4s-4,1.78998-4,4
		c0,1.02997,0.40002,1.95996,1.03998,2.66998C8.65997,48.77997,7,51.20001,7,54v2c0,0.54999,0.45001,1,1,1h48
		c0.54999,0,1-0.45001,1-1v-2C57,51.20001,55.34003,48.77997,52.96002,47.66998z M14,43c1.09998,0,2,0.89996,2,2
		c0,1.09998-0.90002,2-2,2s-2-0.90002-2-2C12,43.89996,12.90002,43,14,43z M19,55H9v-1c0-2.76001,2.23999-5,5-5s5,2.23999,5,5V55z
		 M28,37c0-2.21002,1.78998-4,4-4s4,1.78998,4,4c0,2.20996-1.78998,4-4,4S28,39.20996,28,37z M33.88,48.70996l-1.88,1.88l-1.88-1.88
		l1.63-5.69995C31.83002,43.01001,31.91998,43,32,43s0.16998,0.01001,0.25,0.01001L33.88,48.70996z M43,55H21v-1
		c0-5.23999,3.67999-9.63,8.59998-10.73004l-1.56,5.46002c-0.09998,0.34003,0,0.72003,0.25,0.97998l3,3
		C31.48999,52.89996,31.73999,53,32,53s0.51001-0.10004,0.71002-0.29004l3-3c0.25-0.25995,0.34998-0.63995,0.25-0.97998
		l-1.56-5.46002C39.32001,44.37,43,48.76001,43,54V55z M50,43c1.09998,0,2,0.89996,2,2c0,1.09998-0.90002,2-2,2s-2-0.90002-2-2
		C48,43.89996,48.90002,43,50,43z M55,55H45v-1c0-2.76001,2.23999-5,5-5s5,2.23999,5,5V55z"/>
	<path d="M56,17h-8V8c0-0.55225-0.44727-1-1-1H36c-0.55273,0-1,0.44775-1,1s0.44727,1,1,1h10v12H36
		c-0.26562,0-0.51953,0.10547-0.70703,0.29297L32,24.58594l-3.29297-3.29297C28.51953,21.10547,28.26562,21,28,21H18V9h10
		c0.55273,0,1-0.44775,1-1s-0.44727-1-1-1H17c-0.55273,0-1,0.44775-1,1v9H8c-0.55273,0-1,0.44775-1,1v14c0,0.55225,0.44727,1,1,1h3
		c0,0,0,1.99799,0,2c0,0.76572,0.92436,1.28144,1.58105,0.81396L16.52051,33H24c0.55273,0,1-0.44775,1-1v-9h2.58594
		c0,0,3.70703,3.70703,3.70705,3.70705c0.38734,0.38733,1.02725,0.38678,1.41405-0.00002L36.41406,23H39v9c0,0.55225,0.44727,1,1,1
		h7.47949c0,0,3.93398,2.81005,3.93945,2.81396C52.06712,36.27696,53,35.797,53,35v-2h3c0.55273,0,1-0.44775,1-1V18
		C57,17.44775,56.55273,17,56,17z M23,31h-6.7998c-0.20801,0-0.41211,0.06494-0.58105,0.18604L13,33.05664V32
		c0-0.55225-0.44727-1-1-1H9V19h7v3c0,0.55225,0.44727,1,1,1h6V31z M55,31h-3c-0.55273,0-1,0.44775-1,1v1.05664l-2.61914-1.87061
		C48.21191,31.06494,48.00781,31,47.7998,31H41v-8h6c0.55273,0,1-0.44775,1-1v-3h7V31z"/>
	<path d="M32,18c1.6543,0,3-1.3457,3-3s-1.3457-3-3-3s-3,1.3457-3,3S30.3457,18,32,18z M32,14c0.55176,0,1,0.44873,1,1
		s-0.44824,1-1,1s-1-0.44873-1-1S31.44824,14,32,14z"/>
	<path d="M43,15c0-1.6543-1.3457-3-3-3s-3,1.3457-3,3s1.3457,3,3,3S43,16.6543,43,15z M39,15c0-0.55127,0.44824-1,1-1s1,0.44873,1,1
		s-0.44824,1-1,1S39,15.55127,39,15z"/>
	<path d="M21,15c0,1.6543,1.3457,3,3,3s3-1.3457,3-3s-1.3457-3-3-3S21,13.3457,21,15z M25,15c0,0.55127-0.44824,1-1,1
		s-1-0.44873-1-1s0.44824-1,1-1S25,14.44873,25,15z"/>
	<circle cx="32" cy="8" r="1"/>
</g>
</svg>
