<?xml version="1.0" encoding="utf-8"?>
<!-- Generator: Adobe Illustrator 27.3.1, SVG Export Plug-In . SVG Version: 6.00 Build 0)  -->
<svg version="1.1" id="Outline" xmlns="http://www.w3.org/2000/svg" xmlns:xlink="http://www.w3.org/1999/xlink" x="0px" y="0px"
	 viewBox="0 0 64 64" enable-background="new 0 0 64 64" xml:space="preserve">
<g>
	<path d="M32,11c0.55273,0,1-0.44775,1-1V8c0-0.55225-0.44727-1-1-1s-1,0.44775-1,1v2C31,10.55225,31.44727,11,32,11z"/>
	<path d="M21.63379,13.04541c0.26012,0.4505,0.87997,0.64708,1.36621,0.36621c0.47852-0.27637,0.64258-0.88818,0.36621-1.36621
		l-1-1.73193C22.08887,9.83447,21.47559,9.6709,21,9.94727c-0.47852,0.27637-0.64258,0.88818-0.36621,1.36621
		C20.63379,11.31348,21.63262,13.04338,21.63379,13.04541z"/>
	<path d="M13.31348,19.36621c0,0,1.73242,1,1.73245,1.00002c0.47661,0.27529,1.09134,0.10893,1.36618-0.36623
		c0.27637-0.47852,0.1123-1.08984-0.36621-1.36621l-1.73242-1c-0.47754-0.27588-1.08984-0.1123-1.36621,0.36621
		S12.83496,19.08984,13.31348,19.36621z"/>
	<path d="M14,29c0-0.55225-0.44727-1-1-1h-2c-0.55273,0-1,0.44775-1,1s0.44727,1,1,1h2C13.55273,30,14,29.55225,14,29z"/>
	<path d="M15.0459,37.63379l-1.73242,1c-0.4785,0.27636-0.64257,0.88767-0.36623,1.36618
		c0.27431,0.47499,0.89171,0.64035,1.36623,0.36625l1.73242-1c0.47852-0.27637,0.64258-0.8877,0.36621-1.36621
		S15.52246,37.35742,15.0459,37.63379z"/>
	<path d="M50.68652,38.63379l-1.73242-1c-0.47754-0.27637-1.08984-0.1123-1.36621,0.36621s-0.1123,1.08984,0.36621,1.36621
		c0,0,1.72887,0.99795,1.73242,1c0.47677,0.2752,1.09104,0.10956,1.36621-0.36621
		C51.3291,39.52148,51.16504,38.91016,50.68652,38.63379z"/>
	<path d="M53,28h-2c-0.55273,0-1,0.44775-1,1s0.44727,1,1,1h2c0.55273,0,1-0.44775,1-1S53.55273,28,53,28z"/>
	<path d="M48.45506,20.49895c0.17015,0.00052,0.34227-0.04218,0.49904-0.13274l1.73242-1
		c0.47852-0.27637,0.64258-0.8877,0.36621-1.36621c-0.27734-0.47852-0.89062-0.64209-1.36621-0.36621l-1.73242,1
		c-0.47852,0.27637-0.64258,0.8877-0.36617,1.36628C47.77223,20.31866,48.10959,20.49789,48.45506,20.49895z"/>
	<path d="M41.00023,13.41175c0.47506,0.27425,1.09108,0.10979,1.36598-0.36634c0.00003-0.00005,1-1.73193,1-1.73193
		c0.27637-0.47803,0.1123-1.08984-0.36621-1.36621s-1.08984-0.11279-1.36621,0.36621l-1,1.73193
		C40.35742,12.52344,40.52148,13.13525,41.00023,13.41175z"/>
	<path d="M48,29c0-8.82001-7.17999-16-16-16s-16,7.17999-16,16c0,6.14001,3.51001,11.70996,9,14.38V45h-2c-0.54999,0-1,0.45001-1,1
		v4c0,0.54999,0.45001,1,1,1h2v2c0,2.20996,1.78998,4,4,4h6c2.21002,0,4-1.79004,4-4v-2h2c0.54999,0,1-0.45001,1-1v-4
		c0-0.54999-0.45001-1-1-1h-2v-1.62C44.48999,40.70996,48,35.14001,48,29z M37,53c0,1.09998-0.90002,2-2,2h-6
		c-1.09998,0-2-0.90002-2-2v-2h10V53z M36,47h4v2H24v-2h4c0.54999,0,1-0.45001,1-1s-0.45001-1-1-1h-1v-2.26001
		c0-0.39001-0.23999-0.75-0.59998-0.91003C21.29999,39.59998,18,34.56,18,29c0-7.72003,6.28003-14,14-14s14,6.27997,14,14
		c0,5.56-3.29999,10.59998-8.40002,12.82996C37.23999,41.98999,37,42.34998,37,42.73999V45h-1c-0.54999,0-1,0.45001-1,1
		S35.45001,47,36,47z"/>
	<path d="M40.00195,35.98584c1.29004-0.52588,2.16504-1.78564,2.16504-3.23584c0-0.34131-0.0498-0.68018-0.14648-1.00488
		C42.64941,30.97852,43,30.01123,43,29s-0.35059-1.97852-0.97949-2.74512c0.09668-0.32471,0.14648-0.66357,0.14648-1.00488
		c0-1.44824-0.87207-2.70605-2.16016-3.2334c-0.28906-1.37842-1.37988-2.45068-2.77734-2.70557
		C36.56934,18.4917,35.56543,18,34.5,18c-0.97974,0-1.86401,0.40723-2.5,1.05829C31.36401,18.40723,30.47974,18,29.5,18
		c-1.06543,0-2.06934,0.4917-2.72949,1.31104c-1.38867,0.25391-2.47461,1.31641-2.77246,2.70312
		c-1.29004,0.52588-2.16504,1.78564-2.16504,3.23584c0,0.34131,0.0498,0.68018,0.14648,1.00488C21.35059,27.02148,21,27.98877,21,29
		s0.35059,1.97852,0.97949,2.74512c-0.09668,0.32471-0.14648,0.66357-0.14648,1.00488c0,1.44824,0.87207,2.70605,2.16016,3.2334
		c0.28906,1.37842,1.37988,2.45068,2.77734,2.70557C27.43066,39.5083,28.43457,40,29.5,40c0.97974,0,1.86401-0.40723,2.5-1.05829
		C32.63599,39.59277,33.52026,40,34.5,40c1.06543,0,2.06934-0.4917,2.72949-1.31104
		C38.61816,38.43506,39.7041,37.37256,40.00195,35.98584z M29.5,38c-0.5332,0-1.03223-0.28906-1.30078-0.75488
		c-0.17383-0.2998-0.48926-0.48828-0.83496-0.49902c-0.81152-0.0249-1.44727-0.68213-1.44727-1.53369
		c0-0.48926-0.3545-0.90674-0.83691-0.98682c-0.72266-0.11914-1.24707-0.74023-1.24707-1.47559
		c0-0.25928,0.06641-0.51465,0.19238-0.73828c0.23438-0.41553,0.14258-0.93848-0.21973-1.24902C23.29395,30.32227,23,29.68018,23,29
		s0.29395-1.32227,0.80566-1.7627c0.3623-0.31055,0.4541-0.8335,0.21973-1.24902c-0.12598-0.22363-0.19238-0.479-0.19238-0.73828
		c0-0.73535,0.52441-1.35645,1.24707-1.47559c0.48241-0.08008,0.83691-0.53516,0.83691-1.02441
		c0-0.81396,0.63574-1.47119,1.44727-1.49609c0.3457-0.01074,0.66113-0.19922,0.83496-0.49902C28.46777,20.28906,28.9668,20,29.5,20
		c0.82715,0,1.5,0.67285,1.5,1.5v2.05634C30.4093,23.21185,29.73187,23,29,23c-0.55273,0-1,0.44775-1,1s0.44727,1,1,1
		c1.10254,0,2,0.89697,2,2v3.55634C30.4093,30.21185,29.73187,30,29,30c-0.55273,0-1,0.44775-1,1s0.44727,1,1,1
		c1.10254,0,2,0.89697,2,2v2.5C31,37.32715,30.32715,38,29.5,38z M35.80078,37.24512C35.53223,37.71094,35.0332,38,34.5,38
		c-0.82715,0-1.5-0.67285-1.5-1.5V36c0-1.10303,0.89746-2,2-2c0.55273,0,1-0.44775,1-1s-0.44727-1-1-1
		c-0.73187,0-1.4093,0.21185-2,0.55634V29c0-1.10303,0.89746-2,2-2c0.55273,0,1-0.44775,1-1s-0.44727-1-1-1
		c-0.73187,0-1.4093,0.21185-2,0.55634V21.5c0-0.82715,0.67285-1.5,1.5-1.5c0.5332,0,1.03223,0.28906,1.30078,0.75488
		c0.17383,0.2998,0.48926,0.48828,0.83496,0.49902c0.81152,0.0249,1.44727,0.68213,1.44727,1.53369
		c0,0.48926,0.35448,0.90674,0.83691,0.98682c0.72266,0.11914,1.24707,0.74023,1.24707,1.47559
		c0,0.25928-0.06641,0.51465-0.19238,0.73828c-0.23438,0.41553-0.14258,0.93848,0.21973,1.24902
		C40.70605,27.67773,41,28.31982,41,29s-0.29395,1.32227-0.80566,1.7627c-0.3623,0.31055-0.4541,0.8335-0.21973,1.24902
		c0.12598,0.22363,0.19238,0.479,0.19238,0.73828c0,0.73535-0.52441,1.35645-1.24707,1.47559
		c-0.48243,0.08008-0.83691,0.53516-0.83691,1.02441c0,0.81396-0.63574,1.47119-1.44727,1.49609
		C36.29004,36.75684,35.97461,36.94531,35.80078,37.24512z"/>
	<circle cx="32" cy="46" r="1"/>
</g>
</svg>
