<?xml version="1.0" encoding="utf-8"?>
<!-- Generator: Adobe Illustrator 27.3.1, SVG Export Plug-In . SVG Version: 6.00 Build 0)  -->
<svg version="1.1" id="Outline" xmlns="http://www.w3.org/2000/svg" xmlns:xlink="http://www.w3.org/1999/xlink" x="0px" y="0px"
	 viewBox="0 0 64 64" enable-background="new 0 0 64 64" xml:space="preserve">
<g>
	<path d="M56,13h-8c0-3.31-2.69-6-6-6c-2.09003,0-3.91998,1.07001-5,2.69C35.91998,8.07001,34.09003,7,32,7s-3.91998,1.07001-5,2.69
		C25.91998,8.07001,24.09003,7,22,7c-3.31,0-6,2.69-6,6H8c-0.54999,0-1,0.45001-1,1v38c0,2.76001,2.23999,5,5,5h16
		c0.54999,0,1-0.45001,1-1s-0.45001-1-1-1H12c-1.65002,0-3-1.35004-3-3v-0.03003C9.84003,52.60999,10.87,53,12,53h40
		c1.13,0,2.15997-0.39001,3-1.03003V52c0,1.64996-1.34998,3-3,3H36c-0.54999,0-1,0.45001-1,1s0.45001,1,1,1h16
		c2.76001,0,5-2.23999,5-5V14C57,13.45001,56.54999,13,56,13z M42,9c2.21002,0,4,1.78998,4,4h-8C38,10.78998,39.78998,9,42,9z M32,9
		c2.21002,0,4,1.78998,4,4h-8C28,10.78998,29.78998,9,32,9z M22,9c2.21002,0,4,1.78998,4,4h-8C18,10.78998,19.78998,9,22,9z M55,48
		c0,1.64996-1.34998,3-3,3H12c-1.65002,0-3-1.35004-3-3V25h13v4c0,0.54999,0.45001,1,1,1h8v2.42999L26.71997,35H17
		c-0.54999,0-1,0.45001-1,1v5.14001c-1.71997,0.44995-3,2-3,3.85999c0,2.20996,1.78998,4,4,4s4-1.79004,4-4
		c0-1.85999-1.28003-3.41003-3-3.85999V37h8.71997L31,39.57001v1.57001c-1.71997,0.44995-3,2-3,3.85999c0,2.20996,1.78998,4,4,4
		s4-1.79004,4-4c0-1.85999-1.28003-3.41003-3-3.85999v-1.57001L37.28003,37H46v4.14001c-1.71997,0.44995-3,2-3,3.85999
		c0,2.20996,1.78998,4,4,4s4-1.79004,4-4c0-1.85999-1.28003-3.41003-3-3.85999V36c0-0.54999-0.45001-1-1-1h-9.71997L33,32.42999V30
		h8c0.54999,0,1-0.45001,1-1v-4h13V48z M28.94,36L32,34.16998L35.06,36L32,37.82996L28.94,36z M34,45c0,1.09998-0.90002,2-2,2
		s-2-0.90002-2-2c0-1.10004,0.90002-2,2-2S34,43.89996,34,45z M24,28v-3h16v3H24z M19,45c0,1.09998-0.90002,2-2,2s-2-0.90002-2-2
		c0-1.10004,0.90002-2,2-2S19,43.89996,19,45z M47,43c1.09998,0,2,0.89996,2,2c0,1.09998-0.90002,2-2,2s-2-0.90002-2-2
		C45,43.89996,45.90002,43,47,43z M55,23H9v-8h7v3h-1c-0.54999,0-1,0.45001-1,1s0.45001,1,1,1h4c0.54999,0,1-0.45001,1-1
		s-0.45001-1-1-1h-1v-3h8v3h-1c-0.54999,0-1,0.45001-1,1s0.45001,1,1,1h4c0.54999,0,1-0.45001,1-1s-0.45001-1-1-1h-1v-3h8v3h-1
		c-0.54999,0-1,0.45001-1,1s0.45001,1,1,1h4c0.54999,0,1-0.45001,1-1s-0.45001-1-1-1h-1v-3h8v3h-1c-0.54999,0-1,0.45001-1,1
		s0.45001,1,1,1h4c0.54999,0,1-0.45001,1-1s-0.45001-1-1-1h-1v-3h7V23z"/>
	<circle cx="32" cy="56" r="1"/>
</g>
</svg>
