<svg width="520" height="520" viewBox="0 0 520 520" fill="none" xmlns="http://www.w3.org/2000/svg">
<mask id="mask0_1_71" style="mask-type:luminance" maskUnits="userSpaceOnUse" x="0" y="0" width="520" height="520">
<path d="M0 0H520V520H0V0Z" fill="white"/>
</mask>
<g mask="url(#mask0_1_71)">
<path fillRule="evenodd" clipRule="evenodd" d="M167.422 38.2198L38.7867 166.865V348.782L167.422 477.417H349.339L477.974 348.782V166.865L349.339 38.2198H167.422ZM353.454 28.2827H163.306L28.8599 162.76V352.898L163.306 487.354H353.454L487.911 352.898V162.76L353.454 28.2827Z" fill="#6066D0"/>
</g>
<mask id="mask1_1_71" style="mask-type:luminance" maskUnits="userSpaceOnUse" x="0" y="0" width="520" height="520">
<path d="M0 0H520V520H0V0Z" fill="white"/>
</mask>
<g mask="url(#mask1_1_71)">
<path fillRule="evenodd" clipRule="evenodd" d="M176.927 63.3595L61.7474 178.539V341.442L176.927 456.622H339.82L455 341.442V178.55L339.82 63.3699L176.927 63.3595ZM343.946 53.4223H172.812L51.8024 174.434V345.569L172.812 466.58H343.946L464.958 345.569V174.434L343.946 53.4223Z" fill="#6066D0"/>
</g>
<mask id="mask2_1_71" style="mask-type:luminance" maskUnits="userSpaceOnUse" x="0" y="0" width="520" height="520">
<path d="M0 0H520V520H0V0Z" fill="white"/>
</mask>
<g mask="url(#mask2_1_71)">
<path fillRule="evenodd" clipRule="evenodd" d="M432.292 86.0884H84.4715V433.909H432.292V86.0884ZM74.5317 76.1512V443.848H442.229V76.1512H74.5317Z" fill="#6066D0"/>
</g>
<path fillRule="evenodd" clipRule="evenodd" d="M505.96 260L260 14.053L14.053 260L260 505.96L505.96 260ZM260 0L0 260L260 520L520 260L260 0Z" fill="#6066D0"/>
<g style="mix-blend-mode:darken" filter="url(#filter0_i_1_71)">
<mask id="mask3_1_71" style="mask-type:luminance" maskUnits="userSpaceOnUse" x="125" y="121" width="270" height="278">
<path d="M134 130H385.737V390H134V130Z" fill="white" stroke="white" strokeWidth="17"/>
</mask>
<g mask="url(#mask3_1_71)">
<path d="M186.953 390C182.08 390.008 177.247 389.128 172.69 387.404C171.602 387.029 170.534 386.675 169.416 386.364C165.835 385.352 162.9 382.779 161.429 379.36C160.046 376.184 160.191 372.55 161.824 369.494C162.266 368.652 162.85 367.891 163.549 367.246C167.858 363.391 168.849 358.336 167.316 355.674C166.531 354.461 165.35 353.557 163.975 353.115C159.348 351.437 156.727 346.545 157.892 341.764C158.454 339.737 159.549 337.898 161.064 336.438C158.263 334.676 156.491 331.665 156.311 328.361C156.225 326.317 156.773 324.297 157.881 322.577C158.899 321.164 159.495 319.493 159.603 317.755L159.938 307.041H136.81C135.845 307.041 134.947 306.546 134.433 305.73C133.919 304.913 133.86 303.889 134.277 303.019C137.799 295.678 142.064 288.133 146.191 280.835C148.202 277.276 150.214 273.717 152.147 270.175C156.166 262.842 158.552 254.727 159.14 246.386L159.155 246.183C159.308 244.029 159.239 241.865 158.951 239.725C154.094 203.64 170.152 171.075 203.011 150.374C244.409 124.305 301.471 123.107 338.708 147.527C360.313 161.644 376.04 183.143 382.952 208.008C391.007 238.31 380.103 265.799 369.252 289.189C365.012 298.282 361.512 307.702 358.784 317.356C352.836 338.838 350.357 361.133 351.442 383.397C351.512 384.946 350.313 386.259 348.763 386.33C348.019 386.364 347.291 386.101 346.741 385.599C346.19 385.097 345.862 384.396 345.828 383.652C344.716 360.791 347.263 337.9 353.375 315.843C356.182 305.896 359.786 296.193 364.153 286.826C377.104 258.915 384.333 235.077 377.522 209.454C370.97 185.928 356.079 165.59 335.63 152.238C300.147 128.968 245.632 130.187 206.007 155.143C187.837 166.587 158.29 192.695 164.52 238.983C164.861 241.507 164.941 244.06 164.759 246.601L164.744 246.803C164.098 255.944 161.484 264.836 157.081 272.872C155.133 276.431 153.108 280.022 151.087 283.604C147.766 289.48 144.344 295.517 141.347 301.427H162.847C163.607 301.427 164.335 301.735 164.864 302.281C165.394 302.827 165.679 303.565 165.655 304.325L165.23 317.937C165.095 320.729 164.169 323.425 162.56 325.711C162.098 326.483 161.882 327.377 161.94 328.275C162.143 330.041 163.336 331.537 165.012 332.128L168.888 333.217C170.155 333.573 171.005 334.761 170.933 336.075C170.863 337.391 169.888 338.481 168.588 338.697C166.135 339.037 164.097 340.762 163.356 343.126C162.908 345.15 164.043 347.19 165.999 347.878C168.58 348.781 170.77 350.548 172.198 352.879C175.322 358.311 173.264 366.113 167.307 371.442C167.091 371.653 166.912 371.899 166.777 372.169C165.951 373.717 165.889 375.561 166.608 377.161C167.403 379.011 168.99 380.404 170.928 380.952C172.145 381.291 173.309 381.681 174.487 382.076C179.36 383.937 184.586 384.694 189.787 384.294L220.32 384.352H220.424C233.841 384.504 246.67 378.853 255.614 368.852C261.063 362.616 263.547 354.908 263.507 351.662C263.49 350.111 264.732 348.839 266.283 348.82H266.317C267.856 348.82 269.109 350.057 269.127 351.596C269.185 356.539 265.943 365.562 259.844 372.551C249.833 383.773 235.462 390.124 220.424 389.972H220.308L189.941 389.908C188.89 389.972 187.895 390 186.953 390Z" fill="#FF981F" stroke="#F2994A" strokeWidth="17"/>
</g>
<mask id="mask4_1_71" style="mask-type:luminance" maskUnits="userSpaceOnUse" x="125" y="121" width="270" height="278">
<path d="M134 130H385.737V390H134V130Z" fill="white" stroke="white" strokeWidth="17"/>
</mask>
<g mask="url(#mask4_1_71)">
<path d="M181.697 338.731H168.118C166.566 338.731 165.308 337.473 165.308 335.921C165.308 334.37 166.566 333.112 168.118 333.112H181.697C183.248 333.112 184.506 334.37 184.506 335.921C184.506 337.473 183.248 338.731 181.697 338.731Z" fill="#FF981F" stroke="#F2994A" strokeWidth="17"/>
</g>
<mask id="mask5_1_71" style="mask-type:luminance" maskUnits="userSpaceOnUse" x="125" y="121" width="270" height="278">
<path d="M134 130H385.737V390H134V130Z" fill="white" stroke="white" strokeWidth="17"/>
</mask>
<g mask="url(#mask5_1_71)">
<path d="M267.943 246.35C267.594 246.353 267.249 246.29 266.924 246.163C266.124 245.852 247.336 238.33 244.491 219.189C242.053 204.91 250.271 190.954 263.942 186.16C274.344 182.89 285.702 185.619 293.482 193.259C300.462 199.846 303.096 209.825 300.276 218.998C298.245 225.775 293.209 231.239 286.62 233.815C280.381 236.279 273.355 235.737 267.568 232.345C261.893 229.097 258.185 223.259 257.657 216.741C257.259 209.984 260.863 203.622 266.864 200.49C273.201 197.485 280.771 199.203 285.189 204.65C288.152 208.556 288.684 213.791 286.568 218.214C284.198 222.814 279.023 225.236 273.973 224.108C271.218 223.344 268.9 221.478 267.566 218.95C266.836 217.581 267.354 215.88 268.722 215.149C269.38 214.798 270.15 214.722 270.863 214.939C271.576 215.156 272.174 215.647 272.525 216.305C273.115 217.444 274.142 218.295 275.37 218.665C277.874 219.133 280.389 217.91 281.566 215.651C282.702 213.145 282.369 210.218 280.701 208.031C277.906 204.72 273.236 203.702 269.316 205.547C265.367 207.689 263.01 211.918 263.266 216.402C263.703 221.037 266.363 225.171 270.4 227.489C274.694 230.047 279.936 230.451 284.571 228.583C289.557 226.629 293.366 222.49 294.902 217.359C297.149 210.192 295.065 202.372 289.55 197.273C283.275 191.093 274.106 188.871 265.699 191.495C254.63 195.436 248.017 206.785 250.045 218.358C252.416 234.306 268.793 240.858 268.964 240.922C270.409 241.485 271.125 243.114 270.562 244.56C270.141 245.639 269.101 246.351 267.943 246.35Z" fill="#FF981F" stroke="#F2994A" strokeWidth="17"/>
</g>
<mask id="mask6_1_71" style="mask-type:luminance" maskUnits="userSpaceOnUse" x="125" y="121" width="270" height="278">
<path d="M134 130H385.737V390H134V130Z" fill="white" stroke="white" strokeWidth="17"/>
</mask>
<g mask="url(#mask6_1_71)">
<path d="M272.773 257.547C260.899 257.58 249.5 252.886 241.092 244.501C232.59 236.115 227.795 224.676 227.778 212.734C227.695 200.792 232.394 189.313 240.826 180.856C249.211 172.352 260.651 167.557 272.594 167.542H272.781C297.549 167.569 317.651 187.584 317.786 212.352C317.867 224.293 313.169 235.772 304.737 244.229C296.352 252.732 284.912 257.526 272.97 257.542L272.773 257.547ZM272.773 173.161H272.607C262.155 173.176 252.144 177.371 244.805 184.812C237.426 192.214 233.315 202.26 233.388 212.711C233.403 223.162 237.598 233.173 245.039 240.511C252.396 247.85 262.37 251.961 272.762 251.937H272.934C283.385 251.923 293.396 247.728 300.736 240.288C308.117 232.887 312.231 222.841 312.162 212.389C312.05 190.711 294.451 173.19 272.773 173.161Z" fill="#FF981F" stroke="#F2994A" strokeWidth="17"/>
</g>
<mask id="mask7_1_71" style="mask-type:luminance" maskUnits="userSpaceOnUse" x="130" y="126" width="260" height="268">
<path d="M134 130H385.737V390H134V130Z" fill="white" stroke="white" strokeWidth="8"/>
</mask>
<g mask="url(#mask7_1_71)">
<path d="M277.704 355.812H277.661L268.439 355.771C265.562 355.739 263.243 353.404 263.23 350.526L263.507 294.35C263.515 292.804 264.771 291.555 266.317 291.555C267.062 291.559 267.788 291.858 268.313 292.387C268.837 292.917 269.13 293.633 269.127 294.378L268.851 350.148L277.299 350.185L277.2 254.12C277.2 252.568 278.458 251.31 280.01 251.31C281.562 251.31 282.82 252.568 282.82 254.12L282.919 350.588C282.927 351.98 282.375 353.317 281.387 354.297C280.41 355.273 279.084 355.818 277.704 355.812Z" fill="#FF981F" stroke="#F2994A" strokeWidth="8"/>
</g>
<mask id="mask8_1_71" style="mask-type:luminance" maskUnits="userSpaceOnUse" x="154" y="161" width="234" height="218">
<path d="M163.434 170H379.283V370H163.434V170Z" fill="white" stroke="white" strokeWidth="17"/>
</mask>
<g mask="url(#mask8_1_71)">
<path d="M266.082 344.645L235.557 344.498C232.135 344.465 229.379 341.683 229.376 338.261L229.402 332.78C229.405 331.132 230.071 329.554 231.251 328.402C232.412 327.257 233.979 326.616 235.61 326.621H235.64L244.183 326.666C245.034 326.664 245.724 325.975 245.729 325.124L245.813 310.628C245.807 309.768 245.112 309.072 244.252 309.064L235.72 309.021C234.077 309.018 232.504 308.36 231.348 307.192C230.184 306.029 229.534 304.446 229.546 302.8L229.572 297.574C229.599 294.163 232.373 291.412 235.784 291.413H235.808L263.488 291.548L263.333 254.24C263.326 252.689 264.578 251.426 266.129 251.419C267.677 251.419 268.946 252.67 268.952 254.217L269.119 294.359C269.122 295.108 268.826 295.827 268.297 296.356C267.779 296.906 267.05 297.206 266.296 297.18L235.784 297.032C235.469 297.032 235.209 297.279 235.194 297.594L235.168 302.82C235.166 302.971 235.226 303.116 235.332 303.223C235.442 303.335 235.592 303.397 235.748 303.395L244.294 303.439C248.247 303.479 251.431 306.693 251.434 310.647L251.35 325.141C251.329 329.088 248.125 332.278 244.178 332.28L235.612 332.235C235.454 332.232 235.302 332.294 235.19 332.405C235.083 332.509 235.023 332.652 235.023 332.801L234.997 338.281C234.998 338.44 235.063 338.592 235.176 338.704C235.29 338.815 235.443 338.876 235.602 338.873L266.092 339.019C266.837 339.023 267.55 339.322 268.075 339.852C268.599 340.381 268.892 341.097 268.888 341.842C268.884 343.39 267.63 344.643 266.082 344.645Z" fill="#FF981F" stroke="#F2994A" strokeWidth="17"/>
</g>
</g>
<defs>
<filter id="filter0_i_1_71" x="125.501" y="121.5" width="268.735" height="277" filterUnits="userSpaceOnUse" colorInterpolationFilters="sRGB">
<feFlood floodOpacity="0" result="BackgroundImageFix"/>
<feBlend mode="normal" in="SourceGraphic" in2="BackgroundImageFix" result="shape"/>
<feColorMatrix in="SourceAlpha" type="matrix" values="0 0 0 0 0 0 0 0 0 0 0 0 0 0 0 0 0 0 127 0" result="hardAlpha"/>
<feMorphology radius="1" operator="erode" in="SourceAlpha" result="effect1_innerShadow_1_71"/>
<feOffset/>
<feComposite in2="hardAlpha" operator="arithmetic" k2="-1" k3="1"/>
<feColorMatrix type="matrix" values="0 0 0 0 0.878431 0 0 0 0 0.878431 0 0 0 0 0.878431 0 0 0 1 0"/>
<feBlend mode="normal" in2="shape" result="effect1_innerShadow_1_71"/>
</filter>
</defs>
</svg>
