<svg width="301" height="50" viewBox="0 0 301 50" fill="none" xmlns="http://www.w3.org/2000/svg">
<rect width="300" height="48" transform="translate(1 1)" fill="#FEFEFE"/>
<mask id="mask0_278_1459" style="mask-type:luminance" maskUnits="userSpaceOnUse" x="0" y="0" width="47" height="50">
<path d="M1 0.661669H0.661669V1V49V49.3383H1H46.1053H46.4436V49V1V0.661669H46.1053H1Z" fill="white" stroke="white" strokeWidth="0.676661"/>
</mask>
<g mask="url(#mask0_278_1459)">
<mask id="mask1_278_1459" style="mask-type:luminance" maskUnits="userSpaceOnUse" x="0" y="0" width="47" height="50">
<path d="M1 0.661669H0.661669V1V49V49.3383H1H46.1053H46.4436V49V1V0.661669H46.1053H1Z" fill="white" stroke="white" strokeWidth="0.676661"/>
</mask>
<g mask="url(#mask1_278_1459)">
<mask id="path-3-outside-1_278_1459" maskUnits="userSpaceOnUse" x="-0.000976562" y="-0.000671387" width="47" height="50" fill="black">
<rect fill="white" x="-0.000976562" y="-0.000671387" width="47" height="50"/>
<path d="M25.1511 34.4141C25.5962 34.8692 25.8515 35.4951 25.8599 36.1519C25.8354 36.7832 25.5812 37.3796 25.1511 37.8151C24.7421 38.2725 24.182 38.5428 23.5892 38.5688C22.9714 38.5595 22.3827 38.2882 21.9536 37.8151C21.5426 37.3723 21.3132 36.7743 21.3155 36.1519C21.2985 35.5046 21.5287 34.8776 21.9536 34.4141C22.3894 33.9602 22.9797 33.7141 23.5892 33.7322C24.1743 33.7294 24.7363 33.9748 25.1511 34.4141ZM31.3281 15.5205C31.8607 14.9347 32.3148 14.2734 32.6774 13.5554C33.1491 12.694 33.462 11.7446 33.5993 10.7584C34.2374 6.90323 33.5993 4.41098 32.6044 3.19953C32.25 2.74769 31.8235 2.5204 31.3961 2.5204C30.9716 2.5204 30.6152 2.7474 30.1899 3.12468C29.1976 4.10826 28.5578 6.29866 28.9115 9.69993C29.0691 10.907 29.4049 12.08 29.9064 13.1756C30.2697 14.0273 30.7487 14.8172 31.3281 15.5205ZM30.333 16.6512C29.6228 15.8222 29.0546 14.8386 28.5578 13.8572C27.9994 12.5931 27.6396 11.24 27.4927 9.85194C27.0675 5.92167 27.9165 3.27741 29.1976 1.99068C29.8335 1.31155 30.6881 0.934566 31.4692 1.00927C32.25 1.00927 33.0317 1.3864 33.6697 2.14298C34.9488 3.65382 35.7297 6.60008 35.0891 10.9861C34.9481 11.8541 34.6845 12.6944 34.3075 13.4785C35.0891 13.1759 35.8707 12.8735 36.7239 12.7241C40.8393 12.0423 43.6103 12.8735 45.0298 14.2349C45.7406 14.914 46.0949 15.7458 46.0949 16.577C46.1672 17.4083 45.8107 18.2403 45.1729 18.9968C43.9646 20.355 41.4802 21.2642 37.7168 20.8093C36.4356 20.6549 35.188 20.2717 34.0266 19.6757C33.1018 19.147 32.177 18.542 31.396 17.7854C29.7463 19.7655 28.8372 22.3214 28.8411 24.9679C28.8369 27.6135 29.7461 30.1685 31.396 32.1473C32.1815 31.4039 33.0684 30.7917 34.0266 30.3317C35.1977 29.7477 36.4398 29.3407 37.7168 29.1225C41.48 28.6707 43.9646 29.6521 45.1729 31.0135C45.8109 31.6927 46.1672 32.5237 46.0949 33.4304C46.0949 34.2622 45.7406 35.0935 45.0298 35.7725C43.6103 37.1339 40.8393 37.9651 36.7239 37.2086C35.8904 37.0731 35.0777 36.8194 34.3075 36.4542C34.6632 37.2477 34.9257 38.0847 35.0891 38.9465C35.7297 43.4066 34.9488 46.353 33.6697 47.7896C33.0316 48.5462 32.25 49.0009 31.4692 49.0009C30.6195 49.0055 29.8027 48.6515 29.1976 48.0166C27.9165 46.7335 27.0675 44.0112 27.4927 40.0806C27.6299 38.7153 27.9904 37.3861 28.5578 36.153C29.0237 35.1369 29.6212 34.1954 30.333 33.3561C28.4745 31.5992 26.0742 30.6304 23.5885 30.6338C21.0826 30.6419 18.6628 31.608 16.7702 33.3561C17.4809 34.1872 18.1196 35.0939 18.5462 36.153C19.1135 37.3861 19.474 38.7154 19.6113 40.0806C20.0365 44.0109 19.1847 46.7335 17.9055 48.0166C17.3077 48.663 16.4862 49.019 15.6342 49.0009C14.8531 49.0009 14.0723 48.5462 13.4337 47.7896C12.1552 46.3535 11.3735 43.407 12.085 38.9465C12.2234 38.0874 12.4622 37.2502 12.7959 36.4542C12.047 36.8088 11.2594 37.0623 10.4515 37.2086C6.26168 37.9651 3.49357 37.1339 2.14427 35.7725C1.43547 35.0934 1.00824 34.2622 1.00824 33.4304C0.936018 32.5237 1.29239 31.6924 1.93031 31.0135C3.13856 29.6521 5.69408 28.6707 9.3863 29.1225C10.6659 29.3299 11.9096 29.7374 13.0773 30.3317C14.0352 30.7917 14.9219 31.4039 15.7071 32.1473C17.3575 30.1688 18.267 27.6136 18.2627 24.9679C18.2671 22.3211 17.3579 19.7649 15.7077 17.7849C14.9269 18.5414 14.0026 19.1465 13.078 19.6752C11.9197 20.2808 10.6703 20.6646 9.38698 20.8087C5.69435 21.2636 3.13924 20.3547 1.93099 18.9962C1.29293 18.2397 0.936697 17.4077 1.00892 16.5765C1.00892 15.7452 1.43615 14.9133 2.14495 14.2343C3.49425 12.8729 6.26236 12.0418 10.4521 12.7235C11.2338 12.8729 12.0155 13.1753 12.7965 13.4779C12.4431 12.6899 12.2034 11.8497 12.0857 10.9855C11.3742 6.60008 12.1559 3.65382 13.4343 2.1424C14.0724 1.38582 14.8538 1.00869 15.6348 1.00869C16.4866 0.933988 17.2684 1.3104 17.9062 1.9901C19.1853 3.27611 20.0376 5.92037 19.612 9.85136C19.465 11.2394 19.1052 12.5925 18.5469 13.8566C18.0889 14.8769 17.4903 15.8186 16.7709 16.6506C18.6631 18.3995 21.0831 19.3657 23.5892 19.3729C26.0751 19.3773 28.475 18.4089 30.333 16.6512ZM28.4848 19.7506C26.9465 20.4932 25.2776 20.8797 23.5885 20.8843C21.8959 20.8958 20.2219 20.5087 18.6864 19.7506C19.3857 21.3891 19.7497 23.1672 19.7544 24.9669C19.7569 26.7665 19.3925 28.5453 18.6864 30.1805C20.2219 29.4224 21.8959 29.0353 23.5885 29.0468C25.2776 29.0515 26.9465 29.4379 28.4848 30.1805C27.7817 28.5445 27.4191 26.766 27.4218 24.9669C27.4262 23.1677 27.7885 21.39 28.4848 19.7506ZM34.3075 15.2926C33.6503 15.6763 33.0324 16.1315 32.4634 16.6509C33.1021 17.3152 33.8468 17.8532 34.6627 18.2395C35.6889 18.7838 36.7934 19.1417 37.9304 19.2985C41.1259 19.6749 43.1843 18.9959 44.1061 17.9369C44.4626 17.4829 44.6763 17.031 44.6763 16.6509C44.5948 16.1627 44.3716 15.714 44.0382 15.3678C42.9008 14.3088 40.5593 13.6299 36.9372 14.3088C36.0099 14.4543 35.1163 14.7885 34.3075 15.2926ZM12.7965 34.7158C13.4828 34.3136 14.1254 33.8322 14.7128 33.2804C13.9995 32.6819 13.2389 32.1504 12.4394 31.6918C11.4106 31.171 10.3065 30.8392 9.1737 30.7104C5.97822 30.3311 3.9208 31.013 2.99669 32.0687C2.64304 32.448 2.42963 32.8998 2.49982 33.3547C2.52257 33.8453 2.72664 34.3065 3.06756 34.6376C4.20277 35.6968 6.54718 36.3009 10.1665 35.6968C11.0913 35.5474 11.9426 35.1676 12.7965 34.7158ZM15.7759 34.4141C15.2564 35.0385 14.8038 35.7226 14.4266 36.4536C14.0026 37.3604 13.6456 38.2671 13.5045 39.2506C12.9375 43.1036 13.5045 45.5987 14.4995 46.7325C14.8538 47.1844 15.2812 47.4116 15.7077 47.4116C16.1331 47.4861 16.5569 47.2622 16.914 46.882C17.9062 45.9006 18.5469 43.7079 18.1932 40.2322C18.0594 39.0528 17.7471 37.9041 17.2684 36.8309C16.8386 35.9803 16.3391 35.1714 15.7759 34.4141ZM14.4266 13.5548C14.7893 14.2727 15.2434 14.934 15.7759 15.5199C16.3535 14.7995 16.8541 14.0129 17.2684 13.1748C17.7476 12.0756 18.0597 10.9024 18.1932 9.69907C18.5469 6.29779 17.9062 4.1071 16.914 3.12454C16.5569 2.74726 16.1331 2.52026 15.7077 2.52026C15.2824 2.52026 14.8538 2.74726 14.4995 3.19938C13.5045 4.41083 12.9375 6.90308 13.5045 10.7582C13.6456 11.7396 14.0026 12.6459 14.4266 13.5548ZM14.7128 16.6512C14.107 16.1478 13.4665 15.6937 12.7965 15.2929C11.987 14.7887 11.0939 14.4547 10.166 14.3093C6.54664 13.6302 4.20223 14.3093 3.06702 15.3683C2.72622 15.6996 2.52216 16.1608 2.49928 16.6515C2.42909 17.0316 2.6425 17.4835 2.99615 17.9375C3.9208 18.9965 5.97822 19.6754 9.17316 19.299C10.3097 19.1427 11.4135 18.7848 12.4388 18.24C13.2686 17.8376 14.0359 17.3015 14.7128 16.6512ZM32.4641 33.2804C33.0134 33.8475 33.634 34.3306 34.3081 34.7158C35.1627 35.1676 36.0118 35.5478 36.9367 35.6972C40.5587 36.3013 42.9003 35.6972 44.0377 34.6381C44.3712 34.292 44.5944 33.8433 44.6757 33.3551C44.6531 32.863 44.448 32.4005 44.1055 32.0691C43.1835 31.013 41.1254 30.3311 37.9299 30.7108C36.7966 30.8401 35.6918 31.1719 34.6622 31.6922C33.8764 32.134 33.1401 32.6663 32.4641 33.2804ZM32.6781 36.4536C32.301 35.7225 31.8485 35.0384 31.3288 34.4141C30.7629 35.1541 30.2854 35.9658 29.9071 36.8308C29.4061 37.9004 29.0702 39.0488 28.9121 40.2321C28.5585 43.7077 29.1983 45.9005 30.1906 46.8819C30.6159 47.262 30.9723 47.486 31.3968 47.4114C31.8242 47.4114 32.2507 47.1844 32.605 46.7323C33.6 45.5986 34.2379 43.1035 33.6 39.2505C33.4634 38.264 33.1504 37.3147 32.6781 36.4536ZM25.1511 12.1192C25.5763 12.6459 25.8599 13.2529 25.8599 13.8572C25.8599 14.4615 25.5763 15.0656 25.1511 15.595C24.7354 16.0325 24.1737 16.2767 23.5892 16.2742C22.9802 16.2919 22.3904 16.047 21.9536 15.595C21.5514 15.1163 21.3249 14.4993 21.3155 13.8572C21.3244 13.2149 21.551 12.5977 21.9536 12.1192C22.3894 11.6654 22.9797 11.4193 23.5892 11.4373C24.1743 11.4346 24.7363 11.68 25.1511 12.1192ZM24.6515 13.8572C24.6722 13.5343 24.5394 13.2219 24.2979 13.0252C24.1143 12.8194 23.8555 12.7092 23.5892 12.7235C23.301 12.7071 23.0189 12.816 22.8075 13.0252C22.5923 13.2429 22.4654 13.5414 22.4537 13.8572C22.4654 14.1728 22.5923 14.471 22.8075 14.6885C23.0123 14.9173 23.2925 15.0526 23.5892 15.0656C23.8698 15.0656 24.0838 14.9133 24.2979 14.6885C24.5393 14.4921 24.6721 14.1799 24.6515 13.8572ZM35.5874 23.304C36.0461 23.7174 36.3068 24.3276 36.2981 24.9673C36.321 25.6313 36.0596 26.2705 35.5874 26.7051C35.1725 27.1427 34.6114 27.387 34.0274 27.3843C33.4208 27.3881 32.8358 27.1452 32.3919 26.7051C31.9668 26.2418 31.7366 25.6147 31.7538 24.9673C31.7492 24.3444 31.979 23.7454 32.3919 23.304C32.8092 22.8128 33.4053 22.5371 34.0274 22.5474C34.6275 22.5389 35.1997 22.8164 35.5874 23.304ZM35.0898 24.9673C35.1052 24.6605 35.0029 24.3603 34.8064 24.1353C34.5956 23.9269 34.3147 23.818 34.0274 23.8336C33.7391 23.8169 33.4569 23.9258 33.2457 24.1353C33.0293 24.3524 32.9014 24.6511 32.8893 24.9673C32.9017 25.2826 33.0296 25.5802 33.2457 25.7963C33.4495 26.0269 33.7302 26.1631 34.0274 26.1756C34.3235 26.1617 34.6029 26.0256 34.8064 25.7963C35.0027 25.5724 35.1051 25.2731 35.0898 24.9673ZM14.7125 23.304C15.1246 23.746 15.3542 24.3446 15.3506 24.9673C15.3668 25.6145 15.1367 26.2411 14.7125 26.7051C14.276 27.157 13.6864 27.4019 13.0777 27.3843C12.4933 27.3872 11.9317 27.1429 11.5165 26.7051C11.0446 26.2703 10.7835 25.6312 10.8063 24.9673C10.7976 24.3278 11.0581 23.7176 11.5165 23.304C11.9045 22.8162 12.4772 22.5386 13.0777 22.5474C13.7023 22.5222 14.3039 22.8006 14.7125 23.304ZM14.2158 24.9673C14.2037 24.651 14.0757 24.3524 13.8593 24.1353C13.6479 23.9262 13.3659 23.8174 13.0777 23.8336C12.7896 23.8182 12.5078 23.9269 12.296 24.1353C12.1013 24.3613 12.0002 24.6611 12.0153 24.9673C12.0003 25.2725 12.1015 25.5713 12.296 25.7963C12.5007 26.0255 12.7809 26.1615 13.0777 26.1756C13.3747 26.1625 13.6552 26.0264 13.8593 25.7963C14.0754 25.5802 14.2034 25.2826 14.2158 24.9673ZM24.6512 36.1519C24.6719 35.829 24.5391 35.5166 24.2976 35.3199C24.0835 35.0929 23.8695 34.9406 23.5889 34.9406C23.2918 34.9535 23.0112 35.0897 22.8072 35.3199C22.592 35.5377 22.4651 35.8362 22.4534 36.1519C22.4812 36.4406 22.607 36.7086 22.8072 36.9056C23.011 37.1363 23.2917 37.2728 23.5889 37.2857C23.8695 37.2857 24.0835 37.1334 24.2976 36.9056C24.5236 36.7305 24.6555 36.4494 24.6512 36.1519Z"/>
</mask>
<path d="M25.1511 34.4141C25.5962 34.8692 25.8515 35.4951 25.8599 36.1519C25.8354 36.7832 25.5812 37.3796 25.1511 37.8151C24.7421 38.2725 24.182 38.5428 23.5892 38.5688C22.9714 38.5595 22.3827 38.2882 21.9536 37.8151C21.5426 37.3723 21.3132 36.7743 21.3155 36.1519C21.2985 35.5046 21.5287 34.8776 21.9536 34.4141C22.3894 33.9602 22.9797 33.7141 23.5892 33.7322C24.1743 33.7294 24.7363 33.9748 25.1511 34.4141ZM31.3281 15.5205C31.8607 14.9347 32.3148 14.2734 32.6774 13.5554C33.1491 12.694 33.462 11.7446 33.5993 10.7584C34.2374 6.90323 33.5993 4.41098 32.6044 3.19953C32.25 2.74769 31.8235 2.5204 31.3961 2.5204C30.9716 2.5204 30.6152 2.7474 30.1899 3.12468C29.1976 4.10826 28.5578 6.29866 28.9115 9.69993C29.0691 10.907 29.4049 12.08 29.9064 13.1756C30.2697 14.0273 30.7487 14.8172 31.3281 15.5205ZM30.333 16.6512C29.6228 15.8222 29.0546 14.8386 28.5578 13.8572C27.9994 12.5931 27.6396 11.24 27.4927 9.85194C27.0675 5.92167 27.9165 3.27741 29.1976 1.99068C29.8335 1.31155 30.6881 0.934566 31.4692 1.00927C32.25 1.00927 33.0317 1.3864 33.6697 2.14298C34.9488 3.65382 35.7297 6.60008 35.0891 10.9861C34.9481 11.8541 34.6845 12.6944 34.3075 13.4785C35.0891 13.1759 35.8707 12.8735 36.7239 12.7241C40.8393 12.0423 43.6103 12.8735 45.0298 14.2349C45.7406 14.914 46.0949 15.7458 46.0949 16.577C46.1672 17.4083 45.8107 18.2403 45.1729 18.9968C43.9646 20.355 41.4802 21.2642 37.7168 20.8093C36.4356 20.6549 35.188 20.2717 34.0266 19.6757C33.1018 19.147 32.177 18.542 31.396 17.7854C29.7463 19.7655 28.8372 22.3214 28.8411 24.9679C28.8369 27.6135 29.7461 30.1685 31.396 32.1473C32.1815 31.4039 33.0684 30.7917 34.0266 30.3317C35.1977 29.7477 36.4398 29.3407 37.7168 29.1225C41.48 28.6707 43.9646 29.6521 45.1729 31.0135C45.8109 31.6927 46.1672 32.5237 46.0949 33.4304C46.0949 34.2622 45.7406 35.0935 45.0298 35.7725C43.6103 37.1339 40.8393 37.9651 36.7239 37.2086C35.8904 37.0731 35.0777 36.8194 34.3075 36.4542C34.6632 37.2477 34.9257 38.0847 35.0891 38.9465C35.7297 43.4066 34.9488 46.353 33.6697 47.7896C33.0316 48.5462 32.25 49.0009 31.4692 49.0009C30.6195 49.0055 29.8027 48.6515 29.1976 48.0166C27.9165 46.7335 27.0675 44.0112 27.4927 40.0806C27.6299 38.7153 27.9904 37.3861 28.5578 36.153C29.0237 35.1369 29.6212 34.1954 30.333 33.3561C28.4745 31.5992 26.0742 30.6304 23.5885 30.6338C21.0826 30.6419 18.6628 31.608 16.7702 33.3561C17.4809 34.1872 18.1196 35.0939 18.5462 36.153C19.1135 37.3861 19.474 38.7154 19.6113 40.0806C20.0365 44.0109 19.1847 46.7335 17.9055 48.0166C17.3077 48.663 16.4862 49.019 15.6342 49.0009C14.8531 49.0009 14.0723 48.5462 13.4337 47.7896C12.1552 46.3535 11.3735 43.407 12.085 38.9465C12.2234 38.0874 12.4622 37.2502 12.7959 36.4542C12.047 36.8088 11.2594 37.0623 10.4515 37.2086C6.26168 37.9651 3.49357 37.1339 2.14427 35.7725C1.43547 35.0934 1.00824 34.2622 1.00824 33.4304C0.936018 32.5237 1.29239 31.6924 1.93031 31.0135C3.13856 29.6521 5.69408 28.6707 9.3863 29.1225C10.6659 29.3299 11.9096 29.7374 13.0773 30.3317C14.0352 30.7917 14.9219 31.4039 15.7071 32.1473C17.3575 30.1688 18.267 27.6136 18.2627 24.9679C18.2671 22.3211 17.3579 19.7649 15.7077 17.7849C14.9269 18.5414 14.0026 19.1465 13.078 19.6752C11.9197 20.2808 10.6703 20.6646 9.38698 20.8087C5.69435 21.2636 3.13924 20.3547 1.93099 18.9962C1.29293 18.2397 0.936697 17.4077 1.00892 16.5765C1.00892 15.7452 1.43615 14.9133 2.14495 14.2343C3.49425 12.8729 6.26236 12.0418 10.4521 12.7235C11.2338 12.8729 12.0155 13.1753 12.7965 13.4779C12.4431 12.6899 12.2034 11.8497 12.0857 10.9855C11.3742 6.60008 12.1559 3.65382 13.4343 2.1424C14.0724 1.38582 14.8538 1.00869 15.6348 1.00869C16.4866 0.933988 17.2684 1.3104 17.9062 1.9901C19.1853 3.27611 20.0376 5.92037 19.612 9.85136C19.465 11.2394 19.1052 12.5925 18.5469 13.8566C18.0889 14.8769 17.4903 15.8186 16.7709 16.6506C18.6631 18.3995 21.0831 19.3657 23.5892 19.3729C26.0751 19.3773 28.475 18.4089 30.333 16.6512ZM28.4848 19.7506C26.9465 20.4932 25.2776 20.8797 23.5885 20.8843C21.8959 20.8958 20.2219 20.5087 18.6864 19.7506C19.3857 21.3891 19.7497 23.1672 19.7544 24.9669C19.7569 26.7665 19.3925 28.5453 18.6864 30.1805C20.2219 29.4224 21.8959 29.0353 23.5885 29.0468C25.2776 29.0515 26.9465 29.4379 28.4848 30.1805C27.7817 28.5445 27.4191 26.766 27.4218 24.9669C27.4262 23.1677 27.7885 21.39 28.4848 19.7506ZM34.3075 15.2926C33.6503 15.6763 33.0324 16.1315 32.4634 16.6509C33.1021 17.3152 33.8468 17.8532 34.6627 18.2395C35.6889 18.7838 36.7934 19.1417 37.9304 19.2985C41.1259 19.6749 43.1843 18.9959 44.1061 17.9369C44.4626 17.4829 44.6763 17.031 44.6763 16.6509C44.5948 16.1627 44.3716 15.714 44.0382 15.3678C42.9008 14.3088 40.5593 13.6299 36.9372 14.3088C36.0099 14.4543 35.1163 14.7885 34.3075 15.2926ZM12.7965 34.7158C13.4828 34.3136 14.1254 33.8322 14.7128 33.2804C13.9995 32.6819 13.2389 32.1504 12.4394 31.6918C11.4106 31.171 10.3065 30.8392 9.1737 30.7104C5.97822 30.3311 3.9208 31.013 2.99669 32.0687C2.64304 32.448 2.42963 32.8998 2.49982 33.3547C2.52257 33.8453 2.72664 34.3065 3.06756 34.6376C4.20277 35.6968 6.54718 36.3009 10.1665 35.6968C11.0913 35.5474 11.9426 35.1676 12.7965 34.7158ZM15.7759 34.4141C15.2564 35.0385 14.8038 35.7226 14.4266 36.4536C14.0026 37.3604 13.6456 38.2671 13.5045 39.2506C12.9375 43.1036 13.5045 45.5987 14.4995 46.7325C14.8538 47.1844 15.2812 47.4116 15.7077 47.4116C16.1331 47.4861 16.5569 47.2622 16.914 46.882C17.9062 45.9006 18.5469 43.7079 18.1932 40.2322C18.0594 39.0528 17.7471 37.9041 17.2684 36.8309C16.8386 35.9803 16.3391 35.1714 15.7759 34.4141ZM14.4266 13.5548C14.7893 14.2727 15.2434 14.934 15.7759 15.5199C16.3535 14.7995 16.8541 14.0129 17.2684 13.1748C17.7476 12.0756 18.0597 10.9024 18.1932 9.69907C18.5469 6.29779 17.9062 4.1071 16.914 3.12454C16.5569 2.74726 16.1331 2.52026 15.7077 2.52026C15.2824 2.52026 14.8538 2.74726 14.4995 3.19938C13.5045 4.41083 12.9375 6.90308 13.5045 10.7582C13.6456 11.7396 14.0026 12.6459 14.4266 13.5548ZM14.7128 16.6512C14.107 16.1478 13.4665 15.6937 12.7965 15.2929C11.987 14.7887 11.0939 14.4547 10.166 14.3093C6.54664 13.6302 4.20223 14.3093 3.06702 15.3683C2.72622 15.6996 2.52216 16.1608 2.49928 16.6515C2.42909 17.0316 2.6425 17.4835 2.99615 17.9375C3.9208 18.9965 5.97822 19.6754 9.17316 19.299C10.3097 19.1427 11.4135 18.7848 12.4388 18.24C13.2686 17.8376 14.0359 17.3015 14.7128 16.6512ZM32.4641 33.2804C33.0134 33.8475 33.634 34.3306 34.3081 34.7158C35.1627 35.1676 36.0118 35.5478 36.9367 35.6972C40.5587 36.3013 42.9003 35.6972 44.0377 34.6381C44.3712 34.292 44.5944 33.8433 44.6757 33.3551C44.6531 32.863 44.448 32.4005 44.1055 32.0691C43.1835 31.013 41.1254 30.3311 37.9299 30.7108C36.7966 30.8401 35.6918 31.1719 34.6622 31.6922C33.8764 32.134 33.1401 32.6663 32.4641 33.2804ZM32.6781 36.4536C32.301 35.7225 31.8485 35.0384 31.3288 34.4141C30.7629 35.1541 30.2854 35.9658 29.9071 36.8308C29.4061 37.9004 29.0702 39.0488 28.9121 40.2321C28.5585 43.7077 29.1983 45.9005 30.1906 46.8819C30.6159 47.262 30.9723 47.486 31.3968 47.4114C31.8242 47.4114 32.2507 47.1844 32.605 46.7323C33.6 45.5986 34.2379 43.1035 33.6 39.2505C33.4634 38.264 33.1504 37.3147 32.6781 36.4536ZM25.1511 12.1192C25.5763 12.6459 25.8599 13.2529 25.8599 13.8572C25.8599 14.4615 25.5763 15.0656 25.1511 15.595C24.7354 16.0325 24.1737 16.2767 23.5892 16.2742C22.9802 16.2919 22.3904 16.047 21.9536 15.595C21.5514 15.1163 21.3249 14.4993 21.3155 13.8572C21.3244 13.2149 21.551 12.5977 21.9536 12.1192C22.3894 11.6654 22.9797 11.4193 23.5892 11.4373C24.1743 11.4346 24.7363 11.68 25.1511 12.1192ZM24.6515 13.8572C24.6722 13.5343 24.5394 13.2219 24.2979 13.0252C24.1143 12.8194 23.8555 12.7092 23.5892 12.7235C23.301 12.7071 23.0189 12.816 22.8075 13.0252C22.5923 13.2429 22.4654 13.5414 22.4537 13.8572C22.4654 14.1728 22.5923 14.471 22.8075 14.6885C23.0123 14.9173 23.2925 15.0526 23.5892 15.0656C23.8698 15.0656 24.0838 14.9133 24.2979 14.6885C24.5393 14.4921 24.6721 14.1799 24.6515 13.8572ZM35.5874 23.304C36.0461 23.7174 36.3068 24.3276 36.2981 24.9673C36.321 25.6313 36.0596 26.2705 35.5874 26.7051C35.1725 27.1427 34.6114 27.387 34.0274 27.3843C33.4208 27.3881 32.8358 27.1452 32.3919 26.7051C31.9668 26.2418 31.7366 25.6147 31.7538 24.9673C31.7492 24.3444 31.979 23.7454 32.3919 23.304C32.8092 22.8128 33.4053 22.5371 34.0274 22.5474C34.6275 22.5389 35.1997 22.8164 35.5874 23.304ZM35.0898 24.9673C35.1052 24.6605 35.0029 24.3603 34.8064 24.1353C34.5956 23.9269 34.3147 23.818 34.0274 23.8336C33.7391 23.8169 33.4569 23.9258 33.2457 24.1353C33.0293 24.3524 32.9014 24.6511 32.8893 24.9673C32.9017 25.2826 33.0296 25.5802 33.2457 25.7963C33.4495 26.0269 33.7302 26.1631 34.0274 26.1756C34.3235 26.1617 34.6029 26.0256 34.8064 25.7963C35.0027 25.5724 35.1051 25.2731 35.0898 24.9673ZM14.7125 23.304C15.1246 23.746 15.3542 24.3446 15.3506 24.9673C15.3668 25.6145 15.1367 26.2411 14.7125 26.7051C14.276 27.157 13.6864 27.4019 13.0777 27.3843C12.4933 27.3872 11.9317 27.1429 11.5165 26.7051C11.0446 26.2703 10.7835 25.6312 10.8063 24.9673C10.7976 24.3278 11.0581 23.7176 11.5165 23.304C11.9045 22.8162 12.4772 22.5386 13.0777 22.5474C13.7023 22.5222 14.3039 22.8006 14.7125 23.304ZM14.2158 24.9673C14.2037 24.651 14.0757 24.3524 13.8593 24.1353C13.6479 23.9262 13.3659 23.8174 13.0777 23.8336C12.7896 23.8182 12.5078 23.9269 12.296 24.1353C12.1013 24.3613 12.0002 24.6611 12.0153 24.9673C12.0003 25.2725 12.1015 25.5713 12.296 25.7963C12.5007 26.0255 12.7809 26.1615 13.0777 26.1756C13.3747 26.1625 13.6552 26.0264 13.8593 25.7963C14.0754 25.5802 14.2034 25.2826 14.2158 24.9673ZM24.6512 36.1519C24.6719 35.829 24.5391 35.5166 24.2976 35.3199C24.0835 35.0929 23.8695 34.9406 23.5889 34.9406C23.2918 34.9535 23.0112 35.0897 22.8072 35.3199C22.592 35.5377 22.4651 35.8362 22.4534 36.1519C22.4812 36.4406 22.607 36.7086 22.8072 36.9056C23.011 37.1363 23.2917 37.2728 23.5889 37.2857C23.8695 37.2857 24.0835 37.1334 24.2976 36.9056C24.5236 36.7305 24.6555 36.4494 24.6512 36.1519Z" fill="#F37B0B"/>
<path d="M25.1511 34.4141C25.5962 34.8692 25.8515 35.4951 25.8599 36.1519C25.8354 36.7832 25.5812 37.3796 25.1511 37.8151C24.7421 38.2725 24.182 38.5428 23.5892 38.5688C22.9714 38.5595 22.3827 38.2882 21.9536 37.8151C21.5426 37.3723 21.3132 36.7743 21.3155 36.1519C21.2985 35.5046 21.5287 34.8776 21.9536 34.4141C22.3894 33.9602 22.9797 33.7141 23.5892 33.7322C24.1743 33.7294 24.7363 33.9748 25.1511 34.4141ZM31.3281 15.5205C31.8607 14.9347 32.3148 14.2734 32.6774 13.5554C33.1491 12.694 33.462 11.7446 33.5993 10.7584C34.2374 6.90323 33.5993 4.41098 32.6044 3.19953C32.25 2.74769 31.8235 2.5204 31.3961 2.5204C30.9716 2.5204 30.6152 2.7474 30.1899 3.12468C29.1976 4.10826 28.5578 6.29866 28.9115 9.69993C29.0691 10.907 29.4049 12.08 29.9064 13.1756C30.2697 14.0273 30.7487 14.8172 31.3281 15.5205ZM30.333 16.6512C29.6228 15.8222 29.0546 14.8386 28.5578 13.8572C27.9994 12.5931 27.6396 11.24 27.4927 9.85194C27.0675 5.92167 27.9165 3.27741 29.1976 1.99068C29.8335 1.31155 30.6881 0.934566 31.4692 1.00927C32.25 1.00927 33.0317 1.3864 33.6697 2.14298C34.9488 3.65382 35.7297 6.60008 35.0891 10.9861C34.9481 11.8541 34.6845 12.6944 34.3075 13.4785C35.0891 13.1759 35.8707 12.8735 36.7239 12.7241C40.8393 12.0423 43.6103 12.8735 45.0298 14.2349C45.7406 14.914 46.0949 15.7458 46.0949 16.577C46.1672 17.4083 45.8107 18.2403 45.1729 18.9968C43.9646 20.355 41.4802 21.2642 37.7168 20.8093C36.4356 20.6549 35.188 20.2717 34.0266 19.6757C33.1018 19.147 32.177 18.542 31.396 17.7854C29.7463 19.7655 28.8372 22.3214 28.8411 24.9679C28.8369 27.6135 29.7461 30.1685 31.396 32.1473C32.1815 31.4039 33.0684 30.7917 34.0266 30.3317C35.1977 29.7477 36.4398 29.3407 37.7168 29.1225C41.48 28.6707 43.9646 29.6521 45.1729 31.0135C45.8109 31.6927 46.1672 32.5237 46.0949 33.4304C46.0949 34.2622 45.7406 35.0935 45.0298 35.7725C43.6103 37.1339 40.8393 37.9651 36.7239 37.2086C35.8904 37.0731 35.0777 36.8194 34.3075 36.4542C34.6632 37.2477 34.9257 38.0847 35.0891 38.9465C35.7297 43.4066 34.9488 46.353 33.6697 47.7896C33.0316 48.5462 32.25 49.0009 31.4692 49.0009C30.6195 49.0055 29.8027 48.6515 29.1976 48.0166C27.9165 46.7335 27.0675 44.0112 27.4927 40.0806C27.6299 38.7153 27.9904 37.3861 28.5578 36.153C29.0237 35.1369 29.6212 34.1954 30.333 33.3561C28.4745 31.5992 26.0742 30.6304 23.5885 30.6338C21.0826 30.6419 18.6628 31.608 16.7702 33.3561C17.4809 34.1872 18.1196 35.0939 18.5462 36.153C19.1135 37.3861 19.474 38.7154 19.6113 40.0806C20.0365 44.0109 19.1847 46.7335 17.9055 48.0166C17.3077 48.663 16.4862 49.019 15.6342 49.0009C14.8531 49.0009 14.0723 48.5462 13.4337 47.7896C12.1552 46.3535 11.3735 43.407 12.085 38.9465C12.2234 38.0874 12.4622 37.2502 12.7959 36.4542C12.047 36.8088 11.2594 37.0623 10.4515 37.2086C6.26168 37.9651 3.49357 37.1339 2.14427 35.7725C1.43547 35.0934 1.00824 34.2622 1.00824 33.4304C0.936018 32.5237 1.29239 31.6924 1.93031 31.0135C3.13856 29.6521 5.69408 28.6707 9.3863 29.1225C10.6659 29.3299 11.9096 29.7374 13.0773 30.3317C14.0352 30.7917 14.9219 31.4039 15.7071 32.1473C17.3575 30.1688 18.267 27.6136 18.2627 24.9679C18.2671 22.3211 17.3579 19.7649 15.7077 17.7849C14.9269 18.5414 14.0026 19.1465 13.078 19.6752C11.9197 20.2808 10.6703 20.6646 9.38698 20.8087C5.69435 21.2636 3.13924 20.3547 1.93099 18.9962C1.29293 18.2397 0.936697 17.4077 1.00892 16.5765C1.00892 15.7452 1.43615 14.9133 2.14495 14.2343C3.49425 12.8729 6.26236 12.0418 10.4521 12.7235C11.2338 12.8729 12.0155 13.1753 12.7965 13.4779C12.4431 12.6899 12.2034 11.8497 12.0857 10.9855C11.3742 6.60008 12.1559 3.65382 13.4343 2.1424C14.0724 1.38582 14.8538 1.00869 15.6348 1.00869C16.4866 0.933988 17.2684 1.3104 17.9062 1.9901C19.1853 3.27611 20.0376 5.92037 19.612 9.85136C19.465 11.2394 19.1052 12.5925 18.5469 13.8566C18.0889 14.8769 17.4903 15.8186 16.7709 16.6506C18.6631 18.3995 21.0831 19.3657 23.5892 19.3729C26.0751 19.3773 28.475 18.4089 30.333 16.6512ZM28.4848 19.7506C26.9465 20.4932 25.2776 20.8797 23.5885 20.8843C21.8959 20.8958 20.2219 20.5087 18.6864 19.7506C19.3857 21.3891 19.7497 23.1672 19.7544 24.9669C19.7569 26.7665 19.3925 28.5453 18.6864 30.1805C20.2219 29.4224 21.8959 29.0353 23.5885 29.0468C25.2776 29.0515 26.9465 29.4379 28.4848 30.1805C27.7817 28.5445 27.4191 26.766 27.4218 24.9669C27.4262 23.1677 27.7885 21.39 28.4848 19.7506ZM34.3075 15.2926C33.6503 15.6763 33.0324 16.1315 32.4634 16.6509C33.1021 17.3152 33.8468 17.8532 34.6627 18.2395C35.6889 18.7838 36.7934 19.1417 37.9304 19.2985C41.1259 19.6749 43.1843 18.9959 44.1061 17.9369C44.4626 17.4829 44.6763 17.031 44.6763 16.6509C44.5948 16.1627 44.3716 15.714 44.0382 15.3678C42.9008 14.3088 40.5593 13.6299 36.9372 14.3088C36.0099 14.4543 35.1163 14.7885 34.3075 15.2926ZM12.7965 34.7158C13.4828 34.3136 14.1254 33.8322 14.7128 33.2804C13.9995 32.6819 13.2389 32.1504 12.4394 31.6918C11.4106 31.171 10.3065 30.8392 9.1737 30.7104C5.97822 30.3311 3.9208 31.013 2.99669 32.0687C2.64304 32.448 2.42963 32.8998 2.49982 33.3547C2.52257 33.8453 2.72664 34.3065 3.06756 34.6376C4.20277 35.6968 6.54718 36.3009 10.1665 35.6968C11.0913 35.5474 11.9426 35.1676 12.7965 34.7158ZM15.7759 34.4141C15.2564 35.0385 14.8038 35.7226 14.4266 36.4536C14.0026 37.3604 13.6456 38.2671 13.5045 39.2506C12.9375 43.1036 13.5045 45.5987 14.4995 46.7325C14.8538 47.1844 15.2812 47.4116 15.7077 47.4116C16.1331 47.4861 16.5569 47.2622 16.914 46.882C17.9062 45.9006 18.5469 43.7079 18.1932 40.2322C18.0594 39.0528 17.7471 37.9041 17.2684 36.8309C16.8386 35.9803 16.3391 35.1714 15.7759 34.4141ZM14.4266 13.5548C14.7893 14.2727 15.2434 14.934 15.7759 15.5199C16.3535 14.7995 16.8541 14.0129 17.2684 13.1748C17.7476 12.0756 18.0597 10.9024 18.1932 9.69907C18.5469 6.29779 17.9062 4.1071 16.914 3.12454C16.5569 2.74726 16.1331 2.52026 15.7077 2.52026C15.2824 2.52026 14.8538 2.74726 14.4995 3.19938C13.5045 4.41083 12.9375 6.90308 13.5045 10.7582C13.6456 11.7396 14.0026 12.6459 14.4266 13.5548ZM14.7128 16.6512C14.107 16.1478 13.4665 15.6937 12.7965 15.2929C11.987 14.7887 11.0939 14.4547 10.166 14.3093C6.54664 13.6302 4.20223 14.3093 3.06702 15.3683C2.72622 15.6996 2.52216 16.1608 2.49928 16.6515C2.42909 17.0316 2.6425 17.4835 2.99615 17.9375C3.9208 18.9965 5.97822 19.6754 9.17316 19.299C10.3097 19.1427 11.4135 18.7848 12.4388 18.24C13.2686 17.8376 14.0359 17.3015 14.7128 16.6512ZM32.4641 33.2804C33.0134 33.8475 33.634 34.3306 34.3081 34.7158C35.1627 35.1676 36.0118 35.5478 36.9367 35.6972C40.5587 36.3013 42.9003 35.6972 44.0377 34.6381C44.3712 34.292 44.5944 33.8433 44.6757 33.3551C44.6531 32.863 44.448 32.4005 44.1055 32.0691C43.1835 31.013 41.1254 30.3311 37.9299 30.7108C36.7966 30.8401 35.6918 31.1719 34.6622 31.6922C33.8764 32.134 33.1401 32.6663 32.4641 33.2804ZM32.6781 36.4536C32.301 35.7225 31.8485 35.0384 31.3288 34.4141C30.7629 35.1541 30.2854 35.9658 29.9071 36.8308C29.4061 37.9004 29.0702 39.0488 28.9121 40.2321C28.5585 43.7077 29.1983 45.9005 30.1906 46.8819C30.6159 47.262 30.9723 47.486 31.3968 47.4114C31.8242 47.4114 32.2507 47.1844 32.605 46.7323C33.6 45.5986 34.2379 43.1035 33.6 39.2505C33.4634 38.264 33.1504 37.3147 32.6781 36.4536ZM25.1511 12.1192C25.5763 12.6459 25.8599 13.2529 25.8599 13.8572C25.8599 14.4615 25.5763 15.0656 25.1511 15.595C24.7354 16.0325 24.1737 16.2767 23.5892 16.2742C22.9802 16.2919 22.3904 16.047 21.9536 15.595C21.5514 15.1163 21.3249 14.4993 21.3155 13.8572C21.3244 13.2149 21.551 12.5977 21.9536 12.1192C22.3894 11.6654 22.9797 11.4193 23.5892 11.4373C24.1743 11.4346 24.7363 11.68 25.1511 12.1192ZM24.6515 13.8572C24.6722 13.5343 24.5394 13.2219 24.2979 13.0252C24.1143 12.8194 23.8555 12.7092 23.5892 12.7235C23.301 12.7071 23.0189 12.816 22.8075 13.0252C22.5923 13.2429 22.4654 13.5414 22.4537 13.8572C22.4654 14.1728 22.5923 14.471 22.8075 14.6885C23.0123 14.9173 23.2925 15.0526 23.5892 15.0656C23.8698 15.0656 24.0838 14.9133 24.2979 14.6885C24.5393 14.4921 24.6721 14.1799 24.6515 13.8572ZM35.5874 23.304C36.0461 23.7174 36.3068 24.3276 36.2981 24.9673C36.321 25.6313 36.0596 26.2705 35.5874 26.7051C35.1725 27.1427 34.6114 27.387 34.0274 27.3843C33.4208 27.3881 32.8358 27.1452 32.3919 26.7051C31.9668 26.2418 31.7366 25.6147 31.7538 24.9673C31.7492 24.3444 31.979 23.7454 32.3919 23.304C32.8092 22.8128 33.4053 22.5371 34.0274 22.5474C34.6275 22.5389 35.1997 22.8164 35.5874 23.304ZM35.0898 24.9673C35.1052 24.6605 35.0029 24.3603 34.8064 24.1353C34.5956 23.9269 34.3147 23.818 34.0274 23.8336C33.7391 23.8169 33.4569 23.9258 33.2457 24.1353C33.0293 24.3524 32.9014 24.6511 32.8893 24.9673C32.9017 25.2826 33.0296 25.5802 33.2457 25.7963C33.4495 26.0269 33.7302 26.1631 34.0274 26.1756C34.3235 26.1617 34.6029 26.0256 34.8064 25.7963C35.0027 25.5724 35.1051 25.2731 35.0898 24.9673ZM14.7125 23.304C15.1246 23.746 15.3542 24.3446 15.3506 24.9673C15.3668 25.6145 15.1367 26.2411 14.7125 26.7051C14.276 27.157 13.6864 27.4019 13.0777 27.3843C12.4933 27.3872 11.9317 27.1429 11.5165 26.7051C11.0446 26.2703 10.7835 25.6312 10.8063 24.9673C10.7976 24.3278 11.0581 23.7176 11.5165 23.304C11.9045 22.8162 12.4772 22.5386 13.0777 22.5474C13.7023 22.5222 14.3039 22.8006 14.7125 23.304ZM14.2158 24.9673C14.2037 24.651 14.0757 24.3524 13.8593 24.1353C13.6479 23.9262 13.3659 23.8174 13.0777 23.8336C12.7896 23.8182 12.5078 23.9269 12.296 24.1353C12.1013 24.3613 12.0002 24.6611 12.0153 24.9673C12.0003 25.2725 12.1015 25.5713 12.296 25.7963C12.5007 26.0255 12.7809 26.1615 13.0777 26.1756C13.3747 26.1625 13.6552 26.0264 13.8593 25.7963C14.0754 25.5802 14.2034 25.2826 14.2158 24.9673ZM24.6512 36.1519C24.6719 35.829 24.5391 35.5166 24.2976 35.3199C24.0835 35.0929 23.8695 34.9406 23.5889 34.9406C23.2918 34.9535 23.0112 35.0897 22.8072 35.3199C22.592 35.5377 22.4651 35.8362 22.4534 36.1519C22.4812 36.4406 22.607 36.7086 22.8072 36.9056C23.011 37.1363 23.2917 37.2728 23.5889 37.2857C23.8695 37.2857 24.0835 37.1334 24.2976 36.9056C24.5236 36.7305 24.6555 36.4494 24.6512 36.1519Z" stroke="#F37B0B" strokeWidth="1.35332" mask="url(#path-3-outside-1_278_1459)"/>
</g>
</g>
<path d="M70.876 9.91406H81.001V14.748H78.8389V36.5625H73.0029L61.9111 19.3359V31.7461H64.1436V36.5625H54.0361V31.7461H56.2334V14.748H54.0713V9.91406H62.1221L73.1436 27.3691V14.748H70.876V9.91406ZM94.501 35.5781C94.0908 35.8359 93.7158 36.0586 93.376 36.2461C93.0361 36.4219 92.6963 36.5625 92.3564 36.668C92.0166 36.7852 91.665 36.8672 91.3018 36.9141C90.9385 36.9727 90.54 37.002 90.1064 37.002C89.0166 37.002 88.0381 36.8555 87.1709 36.5625C86.3154 36.2578 85.5889 35.8477 84.9912 35.332C84.4053 34.8047 83.9541 34.1895 83.6377 33.4863C83.3213 32.7715 83.1631 31.998 83.1631 31.166C83.1631 30.3223 83.3213 29.543 83.6377 28.8281C83.9658 28.1133 84.4346 27.5039 85.0439 27C85.6533 26.4844 86.3975 26.0859 87.2764 25.8047C88.167 25.5117 89.1807 25.3652 90.3174 25.3652C91.1494 25.3652 91.9053 25.4121 92.585 25.5059C93.2764 25.5879 93.915 25.6934 94.501 25.8223V25.2598C94.501 24.8027 94.4131 24.4102 94.2373 24.082C94.0615 23.7422 93.8154 23.4668 93.499 23.2559C93.1826 23.0332 92.8018 22.875 92.3564 22.7812C91.9111 22.6758 91.4248 22.623 90.8975 22.623C89.7959 22.623 88.8232 22.7344 87.9795 22.957C87.1475 23.168 86.3447 23.4785 85.5713 23.8887L83.8838 20.4785C85.0791 19.6582 86.3271 19.0312 87.6279 18.5977C88.9404 18.1641 90.3291 17.9473 91.7939 17.9473C92.9307 17.9473 93.9795 18.0762 94.9404 18.334C95.9131 18.5801 96.7451 18.9902 97.4365 19.5645C98.1279 20.127 98.667 20.8652 99.0537 21.7793C99.4521 22.6934 99.6514 23.8066 99.6514 25.1191V31.7461H102.095V36.5625H94.501V35.5781ZM90.4932 32.8535C91.3252 32.8535 92.0811 32.7188 92.7607 32.4492C93.4404 32.1797 94.0205 31.8516 94.501 31.4648V29.1445H90.2822C90.0127 29.1445 89.749 29.1855 89.4912 29.2676C89.2334 29.3496 88.999 29.4668 88.7881 29.6191C88.5889 29.7715 88.4248 29.959 88.2959 30.1816C88.1787 30.4043 88.1201 30.6621 88.1201 30.9551C88.1201 31.4941 88.3135 31.9453 88.7002 32.3086C89.0986 32.6719 89.6963 32.8535 90.4932 32.8535ZM105.435 9.21094H113.644V31.7461H116.456V36.5625H105.435V31.7461H108.247V14.0273H105.435V9.21094ZM130.712 35.5781C130.302 35.8359 129.927 36.0586 129.587 36.2461C129.247 36.4219 128.907 36.5625 128.567 36.668C128.228 36.7852 127.876 36.8672 127.513 36.9141C127.149 36.9727 126.751 37.002 126.317 37.002C125.228 37.002 124.249 36.8555 123.382 36.5625C122.526 36.2578 121.8 35.8477 121.202 35.332C120.616 34.8047 120.165 34.1895 119.849 33.4863C119.532 32.7715 119.374 31.998 119.374 31.166C119.374 30.3223 119.532 29.543 119.849 28.8281C120.177 28.1133 120.646 27.5039 121.255 27C121.864 26.4844 122.608 26.0859 123.487 25.8047C124.378 25.5117 125.392 25.3652 126.528 25.3652C127.36 25.3652 128.116 25.4121 128.796 25.5059C129.487 25.5879 130.126 25.6934 130.712 25.8223V25.2598C130.712 24.8027 130.624 24.4102 130.448 24.082C130.272 23.7422 130.026 23.4668 129.71 23.2559C129.394 23.0332 129.013 22.875 128.567 22.7812C128.122 22.6758 127.636 22.623 127.108 22.623C126.007 22.623 125.034 22.7344 124.19 22.957C123.358 23.168 122.556 23.4785 121.782 23.8887L120.095 20.4785C121.29 19.6582 122.538 19.0312 123.839 18.5977C125.151 18.1641 126.54 17.9473 128.005 17.9473C129.142 17.9473 130.19 18.0762 131.151 18.334C132.124 18.5801 132.956 18.9902 133.647 19.5645C134.339 20.127 134.878 20.8652 135.265 21.7793C135.663 22.6934 135.862 23.8066 135.862 25.1191V31.7461H138.306V36.5625H130.712V35.5781ZM126.704 32.8535C127.536 32.8535 128.292 32.7188 128.972 32.4492C129.651 32.1797 130.231 31.8516 130.712 31.4648V29.1445H126.493C126.224 29.1445 125.96 29.1855 125.702 29.2676C125.444 29.3496 125.21 29.4668 124.999 29.6191C124.8 29.7715 124.636 29.959 124.507 30.1816C124.39 30.4043 124.331 30.6621 124.331 30.9551C124.331 31.4941 124.524 31.9453 124.911 32.3086C125.31 32.6719 125.907 32.8535 126.704 32.8535ZM156.991 26.0859C156.991 25.0664 156.722 24.2695 156.183 23.6953C155.644 23.1094 154.929 22.8164 154.038 22.8164C153.429 22.8164 152.813 22.9512 152.192 23.2207C151.571 23.4902 150.968 23.9941 150.382 24.7324V31.7461H153.335V36.5625H142.015V31.7461H144.687V23.168H142.05V18.3516H150.347V19.9512C151.108 19.3535 151.958 18.8848 152.896 18.5449C153.845 18.1934 154.841 18.0176 155.884 18.0176C158.075 18.0176 159.763 18.6328 160.946 19.8633C162.13 21.082 162.722 22.8691 162.722 25.2246V31.7461H165.306V36.5625H156.991V26.0859ZM178.454 9.21094H186.417V31.7461H189.968V36.5625H181.003V35.8594C180.37 36.1875 179.72 36.4453 179.052 36.6328C178.396 36.8203 177.728 36.9141 177.048 36.9141C175.653 36.9141 174.37 36.668 173.198 36.1758C172.038 35.6719 171.036 34.9863 170.192 34.1191C169.36 33.252 168.71 32.2383 168.241 31.0781C167.772 29.9062 167.538 28.6523 167.538 27.3164C167.538 25.9805 167.767 24.7383 168.224 23.5898C168.692 22.4297 169.337 21.4219 170.157 20.5664C170.989 19.7109 171.979 19.0371 173.128 18.5449C174.288 18.0527 175.56 17.8066 176.942 17.8066C177.704 17.8066 178.419 17.8828 179.087 18.0352C179.755 18.1758 180.394 18.3809 181.003 18.6504V14.0273H178.454V9.21094ZM177.347 32.0625C178.12 32.0391 178.817 31.8398 179.438 31.4648C180.071 31.0898 180.593 30.5977 181.003 29.9883V24.627C180.593 24.0059 180.06 23.5254 179.403 23.1855C178.759 22.834 178.073 22.6641 177.347 22.6758C176.737 22.6641 176.163 22.7695 175.624 22.9922C175.097 23.2148 174.628 23.5312 174.218 23.9414C173.819 24.3516 173.503 24.8438 173.269 25.418C173.034 25.9922 172.917 26.6426 172.917 27.3691C172.917 28.084 173.034 28.7344 173.269 29.3203C173.503 29.8945 173.819 30.3867 174.218 30.7969C174.628 31.1953 175.097 31.5 175.624 31.7109C176.163 31.9219 176.737 32.0391 177.347 32.0625ZM203.485 35.5781C203.075 35.8359 202.7 36.0586 202.36 36.2461C202.021 36.4219 201.681 36.5625 201.341 36.668C201.001 36.7852 200.649 36.8672 200.286 36.9141C199.923 36.9727 199.524 37.002 199.091 37.002C198.001 37.002 197.022 36.8555 196.155 36.5625C195.3 36.2578 194.573 35.8477 193.976 35.332C193.39 34.8047 192.938 34.1895 192.622 33.4863C192.306 32.7715 192.147 31.998 192.147 31.166C192.147 30.3223 192.306 29.543 192.622 28.8281C192.95 28.1133 193.419 27.5039 194.028 27C194.638 26.4844 195.382 26.0859 196.261 25.8047C197.151 25.5117 198.165 25.3652 199.302 25.3652C200.134 25.3652 200.89 25.4121 201.569 25.5059C202.261 25.5879 202.899 25.6934 203.485 25.8223V25.2598C203.485 24.8027 203.397 24.4102 203.222 24.082C203.046 23.7422 202.8 23.4668 202.483 23.2559C202.167 23.0332 201.786 22.875 201.341 22.7812C200.896 22.6758 200.409 22.623 199.882 22.623C198.78 22.623 197.808 22.7344 196.964 22.957C196.132 23.168 195.329 23.4785 194.556 23.8887L192.868 20.4785C194.063 19.6582 195.312 19.0312 196.612 18.5977C197.925 18.1641 199.313 17.9473 200.778 17.9473C201.915 17.9473 202.964 18.0762 203.925 18.334C204.897 18.5801 205.729 18.9902 206.421 19.5645C207.112 20.127 207.651 20.8652 208.038 21.7793C208.437 22.6934 208.636 23.8066 208.636 25.1191V31.7461H211.079V36.5625H203.485V35.5781ZM199.478 32.8535C200.31 32.8535 201.065 32.7188 201.745 32.4492C202.425 32.1797 203.005 31.8516 203.485 31.4648V29.1445H199.267C198.997 29.1445 198.733 29.1855 198.476 29.2676C198.218 29.3496 197.983 29.4668 197.772 29.6191C197.573 29.7715 197.409 29.959 197.28 30.1816C197.163 30.4043 197.104 30.6621 197.104 30.9551C197.104 31.4941 197.298 31.9453 197.685 32.3086C198.083 32.6719 198.681 32.8535 199.478 32.8535Z" fill="#8C1627"/>
<path d="M215.368 9.91406H226.776V14.748H223.964V31.7461H229.765C229.917 31.7461 230.063 31.7051 230.204 31.623C230.356 31.5293 230.485 31.4121 230.591 31.2715C230.708 31.1309 230.802 30.9785 230.872 30.8145C230.942 30.6504 230.978 30.4922 230.978 30.3398V26.7715H236.673V36.5625H215.368V31.7461H218.128V14.748H215.368V9.91406ZM239.028 31.7461H241.507V14.748H239.028V9.91406H249.997L257.854 29.1445L265.149 9.91406H276.276V14.748H273.798V31.7461H276.241V36.5625H266.274V31.7461H268.103V16.418L260.122 36.2461H255.183L247.062 16.9453V31.7461H249.048V36.5625H239.028V31.7461ZM293.081 17.4199C293.022 17.0098 292.876 16.623 292.642 16.2598C292.419 15.8965 292.126 15.5859 291.763 15.3281C291.411 15.0586 291.007 14.8477 290.55 14.6953C290.104 14.543 289.636 14.4668 289.144 14.4668C288.698 14.4668 288.282 14.5137 287.896 14.6074C287.509 14.7012 287.169 14.8477 286.876 15.0469C286.595 15.2344 286.366 15.4805 286.19 15.7852C286.026 16.0898 285.944 16.4531 285.944 16.875C285.944 17.4023 286.056 17.8242 286.278 18.1406C286.513 18.4453 286.806 18.6973 287.157 18.8965C287.521 19.0957 287.919 19.2539 288.353 19.3711C288.786 19.4883 289.208 19.6172 289.618 19.7578L294.452 21.375C295.12 21.6094 295.747 21.9316 296.333 22.3418C296.919 22.752 297.423 23.25 297.845 23.8359C298.278 24.4219 298.618 25.0957 298.864 25.8574C299.11 26.6191 299.233 27.4746 299.233 28.4238C299.233 29.7129 298.993 30.8906 298.513 31.957C298.044 33.0234 297.382 33.9375 296.526 34.6992C295.671 35.4609 294.646 36.0527 293.45 36.4746C292.255 36.8965 290.931 37.1074 289.478 37.1074C288.458 37.1074 287.491 36.9902 286.577 36.7559C285.675 36.5332 284.849 36.2051 284.099 35.7715C283.349 35.3379 282.692 34.8223 282.13 34.2246C281.567 33.6152 281.128 32.9297 280.812 32.168H279.001V26.877H285.364V27.9668C285.364 28.4941 285.446 28.9805 285.61 29.4258C285.786 29.8711 286.044 30.2578 286.384 30.5859C286.724 30.9141 287.151 31.1719 287.667 31.3594C288.183 31.5352 288.786 31.623 289.478 31.623C290.532 31.623 291.335 31.3828 291.886 30.9023C292.437 30.4102 292.712 29.7305 292.712 28.8633C292.712 28.418 292.612 28.0488 292.413 27.7559C292.226 27.4512 291.979 27.1992 291.675 27C291.37 26.7891 291.03 26.6133 290.655 26.4727C290.28 26.332 289.911 26.2031 289.548 26.0859L285.522 24.7852C284.761 24.5508 284.022 24.2227 283.308 23.8008C282.604 23.3789 281.978 22.8516 281.427 22.2188C280.888 21.5859 280.454 20.8477 280.126 20.0039C279.81 19.1484 279.651 18.1758 279.651 17.0859C279.651 15.8203 279.886 14.6953 280.354 13.7109C280.823 12.7148 281.479 11.877 282.323 11.1973C283.167 10.5176 284.169 10.002 285.329 9.65039C286.489 9.29883 287.761 9.12305 289.144 9.12305C290.233 9.12305 291.241 9.25195 292.167 9.50977C293.093 9.75586 293.919 10.0898 294.646 10.5117C295.384 10.9336 296.005 11.4199 296.509 11.9707C297.024 12.5098 297.417 13.0723 297.687 13.6582H299.444V18.9668H293.081V17.4199Z" fill="#F37B0B"/>
</svg>
