<svg width="198" height="198" viewBox="0 0 198 198" fill="none" xmlns="http://www.w3.org/2000/svg">
<mask id="mask0_86_11" style="mask-type:luminance" maskUnits="userSpaceOnUse" x="0" y="0" width="198" height="198">
<path d="M3 1.5H1.5V3V195V196.5H3H195H196.5V195V3V1.5H195H3Z" fill="white" stroke="white" strokeWidth="3"/>
</mask>
<g mask="url(#mask0_86_11)">
<mask id="mask1_86_11" style="mask-type:luminance" maskUnits="userSpaceOnUse" x="0" y="0" width="198" height="198">
<path d="M3 1.5H1.5V3V195V196.5H3H195H196.5V195V3V1.5H195H3Z" fill="white" stroke="white" strokeWidth="3"/>
</mask>
<g mask="url(#mask1_86_11)">
<mask id="path-3-outside-1_86_11" maskUnits="userSpaceOnUse" x="-1.00293" y="-1.00232" width="199" height="200" fill="black">
<rect fill="white" x="-1.00293" y="-1.00232" width="199" height="200"/>
<path d="M105.805 136.657C107.7 138.477 108.787 140.981 108.822 143.608C108.718 146.133 107.636 148.519 105.805 150.261C104.064 152.09 101.68 153.172 99.1568 153.275C96.5271 153.238 94.021 152.153 92.1945 150.261C90.4452 148.49 89.4686 146.098 89.4784 143.608C89.406 141.019 90.386 138.511 92.1945 136.657C94.0496 134.841 96.5623 133.857 99.1568 133.929C101.647 133.918 104.04 134.9 105.805 136.657ZM132.099 61.0823C134.366 58.7392 136.299 56.094 137.843 53.2218C139.851 49.7762 141.183 45.9789 141.767 42.0338C144.483 26.6133 141.767 16.6443 137.532 11.7985C136.023 9.99113 134.208 9.08197 132.389 9.08197C130.582 9.08197 129.065 9.98998 127.254 11.4991C123.03 15.4334 120.307 24.195 121.812 37.8001C122.483 42.6285 123.913 47.3205 126.047 51.7029C127.594 55.1096 129.633 58.2691 132.099 61.0823ZM127.863 65.605C124.84 62.2891 122.421 58.3548 120.307 54.4292C117.93 49.3727 116.398 43.9605 115.773 38.4081C113.963 22.6871 117.577 12.11 123.03 6.96309C125.737 4.24658 129.375 2.73863 132.699 3.03745C136.023 3.03745 139.351 4.54598 142.066 7.57228C147.511 13.6157 150.835 25.4007 148.109 42.9447C147.508 46.4166 146.386 49.7778 144.781 52.9143C148.109 51.704 151.436 50.4943 155.068 49.8967C172.586 47.1697 184.381 50.4943 190.423 55.94C193.449 58.6565 194.957 61.9834 194.957 65.3085C195.265 68.6336 193.747 71.9616 191.032 74.9874C185.889 80.4204 175.314 84.0571 159.294 82.2376C153.84 81.6201 148.53 80.0872 143.586 77.7033C139.649 75.5885 135.713 73.1685 132.388 70.1422C125.366 78.0625 121.496 88.286 121.513 98.8719C121.495 109.454 125.365 119.674 132.388 127.589C135.732 124.616 139.507 122.167 143.586 120.327C148.571 117.991 153.858 116.363 159.294 115.491C175.313 113.683 185.889 117.609 191.032 123.055C193.748 125.771 195.265 129.095 194.957 132.722C194.957 136.049 193.449 139.374 190.423 142.09C184.381 147.536 172.586 150.861 155.068 147.835C151.52 147.293 148.06 146.278 144.781 144.817C146.296 147.991 147.413 151.339 148.109 154.786C150.835 172.627 147.511 184.412 142.066 190.159C139.35 193.185 136.023 195.004 132.699 195.004C129.083 195.022 125.606 193.607 123.03 191.067C117.577 185.934 113.963 175.045 115.773 159.323C116.357 153.862 117.891 148.545 120.307 143.612C122.29 139.548 124.833 135.782 127.863 132.425C119.952 125.397 109.735 121.522 99.1539 121.536C88.487 121.568 78.1868 125.432 70.1303 132.425C73.1555 135.749 75.8745 139.376 77.6902 143.612C80.1051 148.545 81.6395 153.862 82.2242 159.323C84.0342 175.044 80.408 185.934 74.9631 191.067C72.4183 193.652 68.9215 195.076 65.2946 195.004C61.97 195.004 58.646 193.185 55.9277 190.159C50.4857 184.414 47.1583 172.629 50.187 154.786C50.7759 151.35 51.7924 148.001 53.2128 144.817C50.0252 146.236 46.6727 147.25 43.2333 147.835C25.3987 150.861 13.6156 147.536 7.87204 142.09C4.85491 139.374 3.03631 136.049 3.03631 132.722C2.72887 129.095 4.24583 125.77 6.9613 123.055C12.1045 117.609 22.9825 113.683 38.6992 115.491C44.146 116.32 49.4403 117.95 54.4107 120.327C58.4881 122.167 62.2625 124.616 65.6049 127.589C72.6303 119.676 76.502 109.455 76.4835 98.8719C76.5022 88.2849 72.6318 78.06 65.6078 70.1399C62.2838 73.1662 58.3496 75.5862 54.4136 77.701C49.4834 80.1237 44.1649 81.6586 38.7021 82.2353C22.9837 84.0547 12.1074 80.4192 6.96419 74.9851C4.24814 71.9593 2.73177 68.6313 3.0392 65.3062C3.0392 61.9811 4.8578 58.6536 7.87493 55.9377C13.6185 50.492 25.4016 47.1674 43.2362 49.8943C46.5636 50.492 49.8911 51.7017 53.2157 52.912C51.711 49.7601 50.6909 46.399 50.1899 42.9424C47.1612 25.4007 50.4886 13.6157 55.9306 7.56997C58.6466 4.54367 61.9729 3.03514 65.2975 3.03514C68.9231 2.73632 72.2511 4.24196 74.966 6.96078C80.4108 12.1048 84.0388 22.6819 82.2271 38.4058C81.6012 43.9581 80.0695 49.3702 77.6931 54.4269C75.7435 58.5079 73.1955 62.2747 70.1332 65.6027C78.1877 72.5984 88.4892 76.4633 99.1568 76.4919C109.738 76.5095 119.954 72.636 127.863 65.605ZM119.996 78.0027C113.448 80.9733 106.344 82.519 99.1539 82.5375C91.949 82.5837 84.8232 81.0351 78.2871 78.0027C81.2637 84.557 82.8133 91.6691 82.8333 98.8678C82.8439 106.066 81.2928 113.182 78.2871 119.723C84.8232 116.69 91.949 115.141 99.1539 115.188C106.344 115.206 113.448 116.752 119.996 119.723C117.003 113.178 115.459 106.064 115.471 98.8678C115.49 91.6713 117.032 84.5603 119.996 78.0027ZM144.781 60.1708C141.984 61.7057 139.354 63.5265 136.932 65.6039C139.65 68.2613 142.82 70.413 146.294 71.9582C150.662 74.1355 155.363 75.5673 160.203 76.1942C173.805 77.6998 182.567 74.9839 186.491 70.7479C188.009 68.9319 188.918 67.1245 188.918 65.6039C188.571 63.6512 187.621 61.8564 186.202 60.4714C181.361 56.2354 171.393 53.52 155.975 56.2354C152.028 56.8175 148.224 58.1543 144.781 60.1708ZM53.2157 137.864C56.1369 136.255 58.8723 134.329 61.3725 132.122C58.3364 129.728 55.0985 127.602 51.6952 125.768C47.316 123.685 42.6161 122.357 37.7943 121.842C24.192 120.325 15.4342 123.052 11.5006 127.275C9.99518 128.792 9.08676 130.6 9.38552 132.419C9.48234 134.382 10.351 136.226 11.8022 137.551C16.6345 141.788 26.614 144.204 42.0203 141.788C45.9569 141.19 49.5808 139.671 53.2157 137.864ZM65.8979 136.657C63.6863 139.154 61.7599 141.891 60.1543 144.815C58.3496 148.442 56.8297 152.069 56.2293 156.003C53.8155 171.415 56.2293 181.395 60.4646 185.93C61.9729 187.738 63.7921 188.647 65.6078 188.647C67.4183 188.945 69.2224 188.049 70.7423 186.528C74.966 182.603 77.6931 173.832 76.1877 159.929C75.6182 155.211 74.2888 150.617 72.2511 146.324C70.4214 142.921 68.2954 139.686 65.8979 136.657ZM60.1543 53.2195C61.6984 56.0913 63.6311 58.7364 65.8979 61.08C68.3566 58.1982 70.4874 55.052 72.2511 51.6994C74.2908 47.3027 75.6195 42.6101 76.1877 37.7966C77.6931 24.1915 74.966 15.4288 70.7423 11.4985C69.2224 9.9894 67.4183 9.08139 65.6078 9.08139C63.7973 9.08139 61.9729 9.9894 60.4646 11.7979C56.2293 16.6437 53.8155 26.6127 56.2293 42.0332C56.8297 45.9589 58.3496 49.584 60.1543 53.2195ZM61.3725 65.605C58.794 63.5915 56.0673 61.7753 53.2157 60.172C49.7697 58.155 45.9681 56.8193 42.018 56.2377C26.6116 53.5212 16.6322 56.2377 11.7999 60.4737C10.3492 61.7989 9.48062 63.6436 9.3832 65.6062C9.08444 67.1268 9.99286 68.9342 11.4982 70.7502C15.4342 74.9862 24.1921 77.7022 37.792 76.1965C42.6297 75.5713 47.3285 74.1394 51.6929 71.9605C55.2251 70.3508 58.4913 68.2065 61.3725 65.605ZM136.935 132.122C139.273 134.39 141.914 136.323 144.784 137.864C148.422 139.671 152.036 141.192 155.973 141.789C171.391 144.206 181.358 141.789 186.2 137.553C187.62 136.168 188.57 134.373 188.916 132.421C188.82 130.452 187.947 128.602 186.489 127.277C182.564 123.052 173.803 120.325 160.201 121.844C155.377 122.361 150.674 123.688 146.291 125.769C142.946 127.536 139.812 129.666 136.935 132.122ZM137.846 144.815C136.24 141.89 134.314 139.154 132.102 136.657C129.693 139.617 127.661 142.864 126.05 146.323C123.918 150.602 122.488 155.196 121.815 159.929C120.31 173.831 123.033 182.602 127.257 186.528C129.067 188.049 130.584 188.944 132.391 188.646C134.211 188.646 136.026 187.738 137.535 185.93C141.77 181.395 144.485 171.414 141.77 156.002C141.188 152.057 139.856 148.259 137.846 144.815ZM105.805 47.4772C107.615 49.584 108.822 52.0121 108.822 54.4292C108.822 56.8463 107.615 59.2628 105.805 61.3806C104.036 63.1302 101.645 64.107 99.1568 64.0971C96.5646 64.168 94.0538 63.1884 92.1945 61.3806C90.4826 59.4656 89.5183 56.9976 89.4784 54.4292C89.5162 51.8602 90.4808 49.3913 92.1945 47.4772C94.0498 45.662 96.5624 44.6777 99.1568 44.7497C101.647 44.7389 104.04 45.7203 105.805 47.4772ZM103.679 54.4292C103.767 53.1375 103.201 51.8878 102.173 51.1012C101.392 50.2778 100.29 49.837 99.1568 49.8943C97.9299 49.8289 96.7291 50.2645 95.8293 51.1012C94.9133 51.9721 94.373 53.1661 94.3234 54.4292C94.3731 55.6915 94.9134 56.8845 95.8293 57.7543C96.7009 58.6697 97.894 59.2106 99.1568 59.2628C100.351 59.2628 101.262 58.6536 102.173 57.7543C103.201 56.9687 103.767 55.72 103.679 54.4292ZM150.23 92.2164C152.182 93.8699 153.292 96.3109 153.255 98.8695C153.353 101.526 152.24 104.083 150.23 105.821C148.464 107.571 146.075 108.548 143.589 108.537C141.007 108.553 138.517 107.581 136.627 105.821C134.818 103.967 133.838 101.459 133.911 98.8695C133.892 96.378 134.87 93.9821 136.627 92.2164C138.404 90.2517 140.941 89.1487 143.589 89.1901C146.143 89.1558 148.579 90.2659 150.23 92.2164ZM148.112 98.8695C148.177 97.6425 147.742 96.4414 146.905 95.5415C146.008 94.7078 144.812 94.2725 143.589 94.3347C142.362 94.2679 141.161 94.7036 140.262 95.5415C139.341 96.4101 138.796 97.6046 138.745 98.8695C138.797 100.131 139.342 101.321 140.262 102.185C141.129 103.108 142.324 103.653 143.589 103.703C144.85 103.647 146.039 103.103 146.905 102.185C147.741 101.29 148.177 100.093 148.112 98.8695ZM61.3713 92.2164C63.1254 93.9845 64.1028 96.3788 64.0874 98.8695C64.1563 101.458 63.1769 103.965 61.3713 105.821C59.5131 107.628 57.0035 108.608 54.4125 108.537C51.9247 108.549 49.5343 107.572 47.7668 105.821C45.7583 104.081 44.6467 101.525 44.7439 98.8695C44.7067 96.3114 45.8156 93.8708 47.7668 92.2164C49.4185 90.265 51.8564 89.1548 54.4125 89.1901C57.0713 89.089 59.6319 90.2026 61.3713 92.2164ZM59.2568 98.8695C59.2053 97.6045 58.6606 96.4099 57.7393 95.5415C56.8395 94.7053 55.639 94.2698 54.4125 94.3347C53.1862 94.2731 51.9868 94.7081 51.085 95.5415C50.2564 96.4456 49.8257 97.6448 49.8899 98.8695C49.8265 100.091 50.2572 101.286 51.085 102.185C51.9563 103.102 53.1489 103.646 54.4125 103.703C55.6768 103.65 56.8707 103.106 57.7393 102.185C58.6595 101.321 59.2044 100.131 59.2568 98.8695ZM103.678 143.608C103.765 142.317 103.2 141.067 102.172 140.28C101.261 139.372 100.35 138.763 99.1556 138.763C97.8909 138.815 96.6966 139.359 95.8282 140.28C94.9122 141.151 94.3719 142.345 94.3222 143.608C94.4405 144.763 94.976 145.835 95.8282 146.623C96.6956 147.546 97.8903 148.092 99.1556 148.143C100.35 148.143 101.261 147.534 102.172 146.623C103.134 145.923 103.696 144.798 103.678 143.608Z"/>
</mask>
<path d="M105.805 136.657C107.7 138.477 108.787 140.981 108.822 143.608C108.718 146.133 107.636 148.519 105.805 150.261C104.064 152.09 101.68 153.172 99.1568 153.275C96.5271 153.238 94.021 152.153 92.1945 150.261C90.4452 148.49 89.4686 146.098 89.4784 143.608C89.406 141.019 90.386 138.511 92.1945 136.657C94.0496 134.841 96.5623 133.857 99.1568 133.929C101.647 133.918 104.04 134.9 105.805 136.657ZM132.099 61.0823C134.366 58.7392 136.299 56.094 137.843 53.2218C139.851 49.7762 141.183 45.9789 141.767 42.0338C144.483 26.6133 141.767 16.6443 137.532 11.7985C136.023 9.99113 134.208 9.08197 132.389 9.08197C130.582 9.08197 129.065 9.98998 127.254 11.4991C123.03 15.4334 120.307 24.195 121.812 37.8001C122.483 42.6285 123.913 47.3205 126.047 51.7029C127.594 55.1096 129.633 58.2691 132.099 61.0823ZM127.863 65.605C124.84 62.2891 122.421 58.3548 120.307 54.4292C117.93 49.3727 116.398 43.9605 115.773 38.4081C113.963 22.6871 117.577 12.11 123.03 6.96309C125.737 4.24658 129.375 2.73863 132.699 3.03745C136.023 3.03745 139.351 4.54598 142.066 7.57228C147.511 13.6157 150.835 25.4007 148.109 42.9447C147.508 46.4166 146.386 49.7778 144.781 52.9143C148.109 51.704 151.436 50.4943 155.068 49.8967C172.586 47.1697 184.381 50.4943 190.423 55.94C193.449 58.6565 194.957 61.9834 194.957 65.3085C195.265 68.6336 193.747 71.9616 191.032 74.9874C185.889 80.4204 175.314 84.0571 159.294 82.2376C153.84 81.6201 148.53 80.0872 143.586 77.7033C139.649 75.5885 135.713 73.1685 132.388 70.1422C125.366 78.0625 121.496 88.286 121.513 98.8719C121.495 109.454 125.365 119.674 132.388 127.589C135.732 124.616 139.507 122.167 143.586 120.327C148.571 117.991 153.858 116.363 159.294 115.491C175.313 113.683 185.889 117.609 191.032 123.055C193.748 125.771 195.265 129.095 194.957 132.722C194.957 136.049 193.449 139.374 190.423 142.09C184.381 147.536 172.586 150.861 155.068 147.835C151.52 147.293 148.06 146.278 144.781 144.817C146.296 147.991 147.413 151.339 148.109 154.786C150.835 172.627 147.511 184.412 142.066 190.159C139.35 193.185 136.023 195.004 132.699 195.004C129.083 195.022 125.606 193.607 123.03 191.067C117.577 185.934 113.963 175.045 115.773 159.323C116.357 153.862 117.891 148.545 120.307 143.612C122.29 139.548 124.833 135.782 127.863 132.425C119.952 125.397 109.735 121.522 99.1539 121.536C88.487 121.568 78.1868 125.432 70.1303 132.425C73.1555 135.749 75.8745 139.376 77.6902 143.612C80.1051 148.545 81.6395 153.862 82.2242 159.323C84.0342 175.044 80.408 185.934 74.9631 191.067C72.4183 193.652 68.9215 195.076 65.2946 195.004C61.97 195.004 58.646 193.185 55.9277 190.159C50.4857 184.414 47.1583 172.629 50.187 154.786C50.7759 151.35 51.7924 148.001 53.2128 144.817C50.0252 146.236 46.6727 147.25 43.2333 147.835C25.3987 150.861 13.6156 147.536 7.87204 142.09C4.85491 139.374 3.03631 136.049 3.03631 132.722C2.72887 129.095 4.24583 125.77 6.9613 123.055C12.1045 117.609 22.9825 113.683 38.6992 115.491C44.146 116.32 49.4403 117.95 54.4107 120.327C58.4881 122.167 62.2625 124.616 65.6049 127.589C72.6303 119.676 76.502 109.455 76.4835 98.8719C76.5022 88.2849 72.6318 78.06 65.6078 70.1399C62.2838 73.1662 58.3496 75.5862 54.4136 77.701C49.4834 80.1237 44.1649 81.6586 38.7021 82.2353C22.9837 84.0547 12.1074 80.4192 6.96419 74.9851C4.24814 71.9593 2.73177 68.6313 3.0392 65.3062C3.0392 61.9811 4.8578 58.6536 7.87493 55.9377C13.6185 50.492 25.4016 47.1674 43.2362 49.8943C46.5636 50.492 49.8911 51.7017 53.2157 52.912C51.711 49.7601 50.6909 46.399 50.1899 42.9424C47.1612 25.4007 50.4886 13.6157 55.9306 7.56997C58.6466 4.54367 61.9729 3.03514 65.2975 3.03514C68.9231 2.73632 72.2511 4.24196 74.966 6.96078C80.4108 12.1048 84.0388 22.6819 82.2271 38.4058C81.6012 43.9581 80.0695 49.3702 77.6931 54.4269C75.7435 58.5079 73.1955 62.2747 70.1332 65.6027C78.1877 72.5984 88.4892 76.4633 99.1568 76.4919C109.738 76.5095 119.954 72.636 127.863 65.605ZM119.996 78.0027C113.448 80.9733 106.344 82.519 99.1539 82.5375C91.949 82.5837 84.8232 81.0351 78.2871 78.0027C81.2637 84.557 82.8133 91.6691 82.8333 98.8678C82.8439 106.066 81.2928 113.182 78.2871 119.723C84.8232 116.69 91.949 115.141 99.1539 115.188C106.344 115.206 113.448 116.752 119.996 119.723C117.003 113.178 115.459 106.064 115.471 98.8678C115.49 91.6713 117.032 84.5603 119.996 78.0027ZM144.781 60.1708C141.984 61.7057 139.354 63.5265 136.932 65.6039C139.65 68.2613 142.82 70.413 146.294 71.9582C150.662 74.1355 155.363 75.5673 160.203 76.1942C173.805 77.6998 182.567 74.9839 186.491 70.7479C188.009 68.9319 188.918 67.1245 188.918 65.6039C188.571 63.6512 187.621 61.8564 186.202 60.4714C181.361 56.2354 171.393 53.52 155.975 56.2354C152.028 56.8175 148.224 58.1543 144.781 60.1708ZM53.2157 137.864C56.1369 136.255 58.8723 134.329 61.3725 132.122C58.3364 129.728 55.0985 127.602 51.6952 125.768C47.316 123.685 42.6161 122.357 37.7943 121.842C24.192 120.325 15.4342 123.052 11.5006 127.275C9.99518 128.792 9.08676 130.6 9.38552 132.419C9.48234 134.382 10.351 136.226 11.8022 137.551C16.6345 141.788 26.614 144.204 42.0203 141.788C45.9569 141.19 49.5808 139.671 53.2157 137.864ZM65.8979 136.657C63.6863 139.154 61.7599 141.891 60.1543 144.815C58.3496 148.442 56.8297 152.069 56.2293 156.003C53.8155 171.415 56.2293 181.395 60.4646 185.93C61.9729 187.738 63.7921 188.647 65.6078 188.647C67.4183 188.945 69.2224 188.049 70.7423 186.528C74.966 182.603 77.6931 173.832 76.1877 159.929C75.6182 155.211 74.2888 150.617 72.2511 146.324C70.4214 142.921 68.2954 139.686 65.8979 136.657ZM60.1543 53.2195C61.6984 56.0913 63.6311 58.7364 65.8979 61.08C68.3566 58.1982 70.4874 55.052 72.2511 51.6994C74.2908 47.3027 75.6195 42.6101 76.1877 37.7966C77.6931 24.1915 74.966 15.4288 70.7423 11.4985C69.2224 9.9894 67.4183 9.08139 65.6078 9.08139C63.7973 9.08139 61.9729 9.9894 60.4646 11.7979C56.2293 16.6437 53.8155 26.6127 56.2293 42.0332C56.8297 45.9589 58.3496 49.584 60.1543 53.2195ZM61.3725 65.605C58.794 63.5915 56.0673 61.7753 53.2157 60.172C49.7697 58.155 45.9681 56.8193 42.018 56.2377C26.6116 53.5212 16.6322 56.2377 11.7999 60.4737C10.3492 61.7989 9.48062 63.6436 9.3832 65.6062C9.08444 67.1268 9.99286 68.9342 11.4982 70.7502C15.4342 74.9862 24.1921 77.7022 37.792 76.1965C42.6297 75.5713 47.3285 74.1394 51.6929 71.9605C55.2251 70.3508 58.4913 68.2065 61.3725 65.605ZM136.935 132.122C139.273 134.39 141.914 136.323 144.784 137.864C148.422 139.671 152.036 141.192 155.973 141.789C171.391 144.206 181.358 141.789 186.2 137.553C187.62 136.168 188.57 134.373 188.916 132.421C188.82 130.452 187.947 128.602 186.489 127.277C182.564 123.052 173.803 120.325 160.201 121.844C155.377 122.361 150.674 123.688 146.291 125.769C142.946 127.536 139.812 129.666 136.935 132.122ZM137.846 144.815C136.24 141.89 134.314 139.154 132.102 136.657C129.693 139.617 127.661 142.864 126.05 146.323C123.918 150.602 122.488 155.196 121.815 159.929C120.31 173.831 123.033 182.602 127.257 186.528C129.067 188.049 130.584 188.944 132.391 188.646C134.211 188.646 136.026 187.738 137.535 185.93C141.77 181.395 144.485 171.414 141.77 156.002C141.188 152.057 139.856 148.259 137.846 144.815ZM105.805 47.4772C107.615 49.584 108.822 52.0121 108.822 54.4292C108.822 56.8463 107.615 59.2628 105.805 61.3806C104.036 63.1302 101.645 64.107 99.1568 64.0971C96.5646 64.168 94.0538 63.1884 92.1945 61.3806C90.4826 59.4656 89.5183 56.9976 89.4784 54.4292C89.5162 51.8602 90.4808 49.3913 92.1945 47.4772C94.0498 45.662 96.5624 44.6777 99.1568 44.7497C101.647 44.7389 104.04 45.7203 105.805 47.4772ZM103.679 54.4292C103.767 53.1375 103.201 51.8878 102.173 51.1012C101.392 50.2778 100.29 49.837 99.1568 49.8943C97.9299 49.8289 96.7291 50.2645 95.8293 51.1012C94.9133 51.9721 94.373 53.1661 94.3234 54.4292C94.3731 55.6915 94.9134 56.8845 95.8293 57.7543C96.7009 58.6697 97.894 59.2106 99.1568 59.2628C100.351 59.2628 101.262 58.6536 102.173 57.7543C103.201 56.9687 103.767 55.72 103.679 54.4292ZM150.23 92.2164C152.182 93.8699 153.292 96.3109 153.255 98.8695C153.353 101.526 152.24 104.083 150.23 105.821C148.464 107.571 146.075 108.548 143.589 108.537C141.007 108.553 138.517 107.581 136.627 105.821C134.818 103.967 133.838 101.459 133.911 98.8695C133.892 96.378 134.87 93.9821 136.627 92.2164C138.404 90.2517 140.941 89.1487 143.589 89.1901C146.143 89.1558 148.579 90.2659 150.23 92.2164ZM148.112 98.8695C148.177 97.6425 147.742 96.4414 146.905 95.5415C146.008 94.7078 144.812 94.2725 143.589 94.3347C142.362 94.2679 141.161 94.7036 140.262 95.5415C139.341 96.4101 138.796 97.6046 138.745 98.8695C138.797 100.131 139.342 101.321 140.262 102.185C141.129 103.108 142.324 103.653 143.589 103.703C144.85 103.647 146.039 103.103 146.905 102.185C147.741 101.29 148.177 100.093 148.112 98.8695ZM61.3713 92.2164C63.1254 93.9845 64.1028 96.3788 64.0874 98.8695C64.1563 101.458 63.1769 103.965 61.3713 105.821C59.5131 107.628 57.0035 108.608 54.4125 108.537C51.9247 108.549 49.5343 107.572 47.7668 105.821C45.7583 104.081 44.6467 101.525 44.7439 98.8695C44.7067 96.3114 45.8156 93.8708 47.7668 92.2164C49.4185 90.265 51.8564 89.1548 54.4125 89.1901C57.0713 89.089 59.6319 90.2026 61.3713 92.2164ZM59.2568 98.8695C59.2053 97.6045 58.6606 96.4099 57.7393 95.5415C56.8395 94.7053 55.639 94.2698 54.4125 94.3347C53.1862 94.2731 51.9868 94.7081 51.085 95.5415C50.2564 96.4456 49.8257 97.6448 49.8899 98.8695C49.8265 100.091 50.2572 101.286 51.085 102.185C51.9563 103.102 53.1489 103.646 54.4125 103.703C55.6768 103.65 56.8707 103.106 57.7393 102.185C58.6595 101.321 59.2044 100.131 59.2568 98.8695ZM103.678 143.608C103.765 142.317 103.2 141.067 102.172 140.28C101.261 139.372 100.35 138.763 99.1556 138.763C97.8909 138.815 96.6966 139.359 95.8282 140.28C94.9122 141.151 94.3719 142.345 94.3222 143.608C94.4405 144.763 94.976 145.835 95.8282 146.623C96.6956 147.546 97.8903 148.092 99.1556 148.143C100.35 148.143 101.261 147.534 102.172 146.623C103.134 145.923 103.696 144.798 103.678 143.608Z" fill="#F37B0B"/>
<path d="M105.805 136.657C107.7 138.477 108.787 140.981 108.822 143.608C108.718 146.133 107.636 148.519 105.805 150.261C104.064 152.09 101.68 153.172 99.1568 153.275C96.5271 153.238 94.021 152.153 92.1945 150.261C90.4452 148.49 89.4686 146.098 89.4784 143.608C89.406 141.019 90.386 138.511 92.1945 136.657C94.0496 134.841 96.5623 133.857 99.1568 133.929C101.647 133.918 104.04 134.9 105.805 136.657ZM132.099 61.0823C134.366 58.7392 136.299 56.094 137.843 53.2218C139.851 49.7762 141.183 45.9789 141.767 42.0338C144.483 26.6133 141.767 16.6443 137.532 11.7985C136.023 9.99113 134.208 9.08197 132.389 9.08197C130.582 9.08197 129.065 9.98998 127.254 11.4991C123.03 15.4334 120.307 24.195 121.812 37.8001C122.483 42.6285 123.913 47.3205 126.047 51.7029C127.594 55.1096 129.633 58.2691 132.099 61.0823ZM127.863 65.605C124.84 62.2891 122.421 58.3548 120.307 54.4292C117.93 49.3727 116.398 43.9605 115.773 38.4081C113.963 22.6871 117.577 12.11 123.03 6.96309C125.737 4.24658 129.375 2.73863 132.699 3.03745C136.023 3.03745 139.351 4.54598 142.066 7.57228C147.511 13.6157 150.835 25.4007 148.109 42.9447C147.508 46.4166 146.386 49.7778 144.781 52.9143C148.109 51.704 151.436 50.4943 155.068 49.8967C172.586 47.1697 184.381 50.4943 190.423 55.94C193.449 58.6565 194.957 61.9834 194.957 65.3085C195.265 68.6336 193.747 71.9616 191.032 74.9874C185.889 80.4204 175.314 84.0571 159.294 82.2376C153.84 81.6201 148.53 80.0872 143.586 77.7033C139.649 75.5885 135.713 73.1685 132.388 70.1422C125.366 78.0625 121.496 88.286 121.513 98.8719C121.495 109.454 125.365 119.674 132.388 127.589C135.732 124.616 139.507 122.167 143.586 120.327C148.571 117.991 153.858 116.363 159.294 115.491C175.313 113.683 185.889 117.609 191.032 123.055C193.748 125.771 195.265 129.095 194.957 132.722C194.957 136.049 193.449 139.374 190.423 142.09C184.381 147.536 172.586 150.861 155.068 147.835C151.52 147.293 148.06 146.278 144.781 144.817C146.296 147.991 147.413 151.339 148.109 154.786C150.835 172.627 147.511 184.412 142.066 190.159C139.35 193.185 136.023 195.004 132.699 195.004C129.083 195.022 125.606 193.607 123.03 191.067C117.577 185.934 113.963 175.045 115.773 159.323C116.357 153.862 117.891 148.545 120.307 143.612C122.29 139.548 124.833 135.782 127.863 132.425C119.952 125.397 109.735 121.522 99.1539 121.536C88.487 121.568 78.1868 125.432 70.1303 132.425C73.1555 135.749 75.8745 139.376 77.6902 143.612C80.1051 148.545 81.6395 153.862 82.2242 159.323C84.0342 175.044 80.408 185.934 74.9631 191.067C72.4183 193.652 68.9215 195.076 65.2946 195.004C61.97 195.004 58.646 193.185 55.9277 190.159C50.4857 184.414 47.1583 172.629 50.187 154.786C50.7759 151.35 51.7924 148.001 53.2128 144.817C50.0252 146.236 46.6727 147.25 43.2333 147.835C25.3987 150.861 13.6156 147.536 7.87204 142.09C4.85491 139.374 3.03631 136.049 3.03631 132.722C2.72887 129.095 4.24583 125.77 6.9613 123.055C12.1045 117.609 22.9825 113.683 38.6992 115.491C44.146 116.32 49.4403 117.95 54.4107 120.327C58.4881 122.167 62.2625 124.616 65.6049 127.589C72.6303 119.676 76.502 109.455 76.4835 98.8719C76.5022 88.2849 72.6318 78.06 65.6078 70.1399C62.2838 73.1662 58.3496 75.5862 54.4136 77.701C49.4834 80.1237 44.1649 81.6586 38.7021 82.2353C22.9837 84.0547 12.1074 80.4192 6.96419 74.9851C4.24814 71.9593 2.73177 68.6313 3.0392 65.3062C3.0392 61.9811 4.8578 58.6536 7.87493 55.9377C13.6185 50.492 25.4016 47.1674 43.2362 49.8943C46.5636 50.492 49.8911 51.7017 53.2157 52.912C51.711 49.7601 50.6909 46.399 50.1899 42.9424C47.1612 25.4007 50.4886 13.6157 55.9306 7.56997C58.6466 4.54367 61.9729 3.03514 65.2975 3.03514C68.9231 2.73632 72.2511 4.24196 74.966 6.96078C80.4108 12.1048 84.0388 22.6819 82.2271 38.4058C81.6012 43.9581 80.0695 49.3702 77.6931 54.4269C75.7435 58.5079 73.1955 62.2747 70.1332 65.6027C78.1877 72.5984 88.4892 76.4633 99.1568 76.4919C109.738 76.5095 119.954 72.636 127.863 65.605ZM119.996 78.0027C113.448 80.9733 106.344 82.519 99.1539 82.5375C91.949 82.5837 84.8232 81.0351 78.2871 78.0027C81.2637 84.557 82.8133 91.6691 82.8333 98.8678C82.8439 106.066 81.2928 113.182 78.2871 119.723C84.8232 116.69 91.949 115.141 99.1539 115.188C106.344 115.206 113.448 116.752 119.996 119.723C117.003 113.178 115.459 106.064 115.471 98.8678C115.49 91.6713 117.032 84.5603 119.996 78.0027ZM144.781 60.1708C141.984 61.7057 139.354 63.5265 136.932 65.6039C139.65 68.2613 142.82 70.413 146.294 71.9582C150.662 74.1355 155.363 75.5673 160.203 76.1942C173.805 77.6998 182.567 74.9839 186.491 70.7479C188.009 68.9319 188.918 67.1245 188.918 65.6039C188.571 63.6512 187.621 61.8564 186.202 60.4714C181.361 56.2354 171.393 53.52 155.975 56.2354C152.028 56.8175 148.224 58.1543 144.781 60.1708ZM53.2157 137.864C56.1369 136.255 58.8723 134.329 61.3725 132.122C58.3364 129.728 55.0985 127.602 51.6952 125.768C47.316 123.685 42.6161 122.357 37.7943 121.842C24.192 120.325 15.4342 123.052 11.5006 127.275C9.99518 128.792 9.08676 130.6 9.38552 132.419C9.48234 134.382 10.351 136.226 11.8022 137.551C16.6345 141.788 26.614 144.204 42.0203 141.788C45.9569 141.19 49.5808 139.671 53.2157 137.864ZM65.8979 136.657C63.6863 139.154 61.7599 141.891 60.1543 144.815C58.3496 148.442 56.8297 152.069 56.2293 156.003C53.8155 171.415 56.2293 181.395 60.4646 185.93C61.9729 187.738 63.7921 188.647 65.6078 188.647C67.4183 188.945 69.2224 188.049 70.7423 186.528C74.966 182.603 77.6931 173.832 76.1877 159.929C75.6182 155.211 74.2888 150.617 72.2511 146.324C70.4214 142.921 68.2954 139.686 65.8979 136.657ZM60.1543 53.2195C61.6984 56.0913 63.6311 58.7364 65.8979 61.08C68.3566 58.1982 70.4874 55.052 72.2511 51.6994C74.2908 47.3027 75.6195 42.6101 76.1877 37.7966C77.6931 24.1915 74.966 15.4288 70.7423 11.4985C69.2224 9.9894 67.4183 9.08139 65.6078 9.08139C63.7973 9.08139 61.9729 9.9894 60.4646 11.7979C56.2293 16.6437 53.8155 26.6127 56.2293 42.0332C56.8297 45.9589 58.3496 49.584 60.1543 53.2195ZM61.3725 65.605C58.794 63.5915 56.0673 61.7753 53.2157 60.172C49.7697 58.155 45.9681 56.8193 42.018 56.2377C26.6116 53.5212 16.6322 56.2377 11.7999 60.4737C10.3492 61.7989 9.48062 63.6436 9.3832 65.6062C9.08444 67.1268 9.99286 68.9342 11.4982 70.7502C15.4342 74.9862 24.1921 77.7022 37.792 76.1965C42.6297 75.5713 47.3285 74.1394 51.6929 71.9605C55.2251 70.3508 58.4913 68.2065 61.3725 65.605ZM136.935 132.122C139.273 134.39 141.914 136.323 144.784 137.864C148.422 139.671 152.036 141.192 155.973 141.789C171.391 144.206 181.358 141.789 186.2 137.553C187.62 136.168 188.57 134.373 188.916 132.421C188.82 130.452 187.947 128.602 186.489 127.277C182.564 123.052 173.803 120.325 160.201 121.844C155.377 122.361 150.674 123.688 146.291 125.769C142.946 127.536 139.812 129.666 136.935 132.122ZM137.846 144.815C136.24 141.89 134.314 139.154 132.102 136.657C129.693 139.617 127.661 142.864 126.05 146.323C123.918 150.602 122.488 155.196 121.815 159.929C120.31 173.831 123.033 182.602 127.257 186.528C129.067 188.049 130.584 188.944 132.391 188.646C134.211 188.646 136.026 187.738 137.535 185.93C141.77 181.395 144.485 171.414 141.77 156.002C141.188 152.057 139.856 148.259 137.846 144.815ZM105.805 47.4772C107.615 49.584 108.822 52.0121 108.822 54.4292C108.822 56.8463 107.615 59.2628 105.805 61.3806C104.036 63.1302 101.645 64.107 99.1568 64.0971C96.5646 64.168 94.0538 63.1884 92.1945 61.3806C90.4826 59.4656 89.5183 56.9976 89.4784 54.4292C89.5162 51.8602 90.4808 49.3913 92.1945 47.4772C94.0498 45.662 96.5624 44.6777 99.1568 44.7497C101.647 44.7389 104.04 45.7203 105.805 47.4772ZM103.679 54.4292C103.767 53.1375 103.201 51.8878 102.173 51.1012C101.392 50.2778 100.29 49.837 99.1568 49.8943C97.9299 49.8289 96.7291 50.2645 95.8293 51.1012C94.9133 51.9721 94.373 53.1661 94.3234 54.4292C94.3731 55.6915 94.9134 56.8845 95.8293 57.7543C96.7009 58.6697 97.894 59.2106 99.1568 59.2628C100.351 59.2628 101.262 58.6536 102.173 57.7543C103.201 56.9687 103.767 55.72 103.679 54.4292ZM150.23 92.2164C152.182 93.8699 153.292 96.3109 153.255 98.8695C153.353 101.526 152.24 104.083 150.23 105.821C148.464 107.571 146.075 108.548 143.589 108.537C141.007 108.553 138.517 107.581 136.627 105.821C134.818 103.967 133.838 101.459 133.911 98.8695C133.892 96.378 134.87 93.9821 136.627 92.2164C138.404 90.2517 140.941 89.1487 143.589 89.1901C146.143 89.1558 148.579 90.2659 150.23 92.2164ZM148.112 98.8695C148.177 97.6425 147.742 96.4414 146.905 95.5415C146.008 94.7078 144.812 94.2725 143.589 94.3347C142.362 94.2679 141.161 94.7036 140.262 95.5415C139.341 96.4101 138.796 97.6046 138.745 98.8695C138.797 100.131 139.342 101.321 140.262 102.185C141.129 103.108 142.324 103.653 143.589 103.703C144.85 103.647 146.039 103.103 146.905 102.185C147.741 101.29 148.177 100.093 148.112 98.8695ZM61.3713 92.2164C63.1254 93.9845 64.1028 96.3788 64.0874 98.8695C64.1563 101.458 63.1769 103.965 61.3713 105.821C59.5131 107.628 57.0035 108.608 54.4125 108.537C51.9247 108.549 49.5343 107.572 47.7668 105.821C45.7583 104.081 44.6467 101.525 44.7439 98.8695C44.7067 96.3114 45.8156 93.8708 47.7668 92.2164C49.4185 90.265 51.8564 89.1548 54.4125 89.1901C57.0713 89.089 59.6319 90.2026 61.3713 92.2164ZM59.2568 98.8695C59.2053 97.6045 58.6606 96.4099 57.7393 95.5415C56.8395 94.7053 55.639 94.2698 54.4125 94.3347C53.1862 94.2731 51.9868 94.7081 51.085 95.5415C50.2564 96.4456 49.8257 97.6448 49.8899 98.8695C49.8265 100.091 50.2572 101.286 51.085 102.185C51.9563 103.102 53.1489 103.646 54.4125 103.703C55.6768 103.65 56.8707 103.106 57.7393 102.185C58.6595 101.321 59.2044 100.131 59.2568 98.8695ZM103.678 143.608C103.765 142.317 103.2 141.067 102.172 140.28C101.261 139.372 100.35 138.763 99.1556 138.763C97.8909 138.815 96.6966 139.359 95.8282 140.28C94.9122 141.151 94.3719 142.345 94.3222 143.608C94.4405 144.763 94.976 145.835 95.8282 146.623C96.6956 147.546 97.8903 148.092 99.1556 148.143C100.35 148.143 101.261 147.534 102.172 146.623C103.134 145.923 103.696 144.798 103.678 143.608Z" stroke="#F37B0B" strokeWidth="6" mask="url(#path-3-outside-1_86_11)"/>
</g>
</g>
</svg>
