<svg width="179" height="65" viewBox="0 0 179 65" fill="none" xmlns="http://www.w3.org/2000/svg">
<path d="M18.0801 22.3613C18.0801 22.0801 17.9863 21.8105 17.7988 21.5527C17.623 21.2949 17.3594 21.0723 17.0078 20.8848C16.6562 20.6855 16.2227 20.5273 15.707 20.4102C15.2031 20.293 14.6289 20.2344 13.9844 20.2344C13.7383 20.2344 13.4746 20.2578 13.1934 20.3047C12.9121 20.3398 12.6484 20.4102 12.4023 20.5156C12.168 20.6211 11.9688 20.7676 11.8047 20.9551C11.6523 21.1309 11.5762 21.3594 11.5762 21.6406C11.5762 21.7812 11.5938 21.916 11.6289 22.0449C11.6758 22.1738 11.7578 22.2969 11.875 22.4141C11.9922 22.5312 12.1504 22.6426 12.3496 22.748C12.5605 22.8418 12.8301 22.918 13.1582 22.9766L16.4629 23.627C17.6582 23.8613 18.6602 24.1543 19.4688 24.5059C20.2773 24.8574 20.9277 25.2676 21.4199 25.7363C21.9121 26.2051 22.2637 26.7266 22.4746 27.3008C22.6973 27.875 22.8086 28.4961 22.8086 29.1641C22.8086 30.207 22.5625 31.1211 22.0703 31.9062C21.5898 32.6914 20.9512 33.3477 20.1543 33.875C19.3691 34.3906 18.4785 34.7773 17.4824 35.0352C16.498 35.3047 15.502 35.4395 14.4941 35.4395C13.8379 35.4395 13.2402 35.3984 12.7012 35.3164C12.1738 35.2344 11.6934 35.123 11.2598 34.9824C10.8379 34.8418 10.457 34.6777 10.1172 34.4902C9.78906 34.291 9.48438 34.0742 9.20312 33.8398H6.02148V28.9531H10.9961V29.0586C11.0078 29.3984 11.1133 29.6973 11.3125 29.9551C11.5117 30.2012 11.7695 30.4121 12.0859 30.5879C12.4141 30.7637 12.7832 30.8984 13.1934 30.9922C13.6035 31.0742 14.0371 31.1152 14.4941 31.1152C15.5488 31.1152 16.3164 30.9805 16.7969 30.7109C17.2773 30.4297 17.5176 30.0723 17.5176 29.6387C17.5176 29.2988 17.4004 29.0117 17.166 28.7773C16.9316 28.5312 16.5156 28.3379 15.918 28.1973L12.543 27.4766C10.4219 27.0664 8.82227 26.3867 7.74414 25.4375C6.66602 24.4766 6.12695 23.2461 6.12695 21.7461C6.12695 20.8672 6.33203 20.0703 6.74219 19.3555C7.15234 18.6289 7.70898 18.0137 8.41211 17.5098C9.11523 16.9941 9.93555 16.5957 10.873 16.3145C11.8223 16.0332 12.8359 15.8926 13.9141 15.8926C14.6523 15.8926 15.3086 15.9395 15.8828 16.0332C16.457 16.1152 16.9727 16.2266 17.4297 16.3672C17.8867 16.5078 18.2852 16.6777 18.625 16.877C18.9766 17.0645 19.2871 17.2637 19.5566 17.4746H22.6152V22.3613H18.0801ZM36.0098 35.2109C34.5098 34.9062 33.1211 34.3496 31.8438 33.541C30.5781 32.7207 29.4766 31.7129 28.5391 30.5176C27.6133 29.3223 26.8867 27.9746 26.3594 26.4746C25.8438 24.9629 25.5859 23.3633 25.5859 21.6758C25.5859 20.3984 25.7383 19.1738 26.043 18.002C26.3477 16.8184 26.7754 15.7168 27.3262 14.6973C27.877 13.666 28.5391 12.7344 29.3125 11.9023C30.0977 11.0586 30.9648 10.3379 31.9141 9.74023C32.875 9.14258 33.9062 8.67969 35.0078 8.35156C36.1094 8.02344 37.2637 7.85938 38.4707 7.85938C39.6777 7.85938 40.832 8.02344 41.9336 8.35156C43.0469 8.67969 44.0781 9.14258 45.0273 9.74023C45.9883 10.3379 46.8555 11.0586 47.6289 11.9023C48.4141 12.7344 49.082 13.666 49.6328 14.6973C50.1953 15.7168 50.6289 16.8184 50.9336 18.002C51.2383 19.1738 51.3906 20.3984 51.3906 21.6758C51.3906 23.3867 51.1211 25.0039 50.582 26.5273C50.043 28.0508 49.293 29.416 48.332 30.623C47.3828 31.8301 46.252 32.8379 44.9395 33.6465C43.627 34.4551 42.2031 34.9941 40.668 35.2637C41.0312 35.416 41.3887 35.5801 41.7402 35.7559C42.1035 35.9434 42.4668 36.1133 42.8301 36.2656C43.1934 36.4297 43.5508 36.5645 43.9023 36.6699C44.2656 36.7871 44.6348 36.8516 45.0098 36.8633C45.373 36.8633 45.7246 36.8164 46.0645 36.7227C46.416 36.6289 46.7324 36.4824 47.0137 36.2832C47.2949 36.084 47.5352 35.8262 47.7344 35.5098C47.9453 35.1934 48.0859 34.8066 48.1562 34.3496L52.0762 36.3008C51.9707 37.1562 51.7246 37.9297 51.3379 38.6211C50.9629 39.3125 50.4766 39.9043 49.8789 40.3965C49.2812 40.8887 48.6016 41.2695 47.8398 41.5391C47.0781 41.8086 46.2695 41.9434 45.4141 41.9434C44.7227 41.9434 44.0254 41.8086 43.3223 41.5391C42.6309 41.2812 41.957 40.9941 41.3008 40.6777C40.6562 40.373 40.0469 40.0859 39.4727 39.8164C38.8984 39.5586 38.3945 39.4297 37.9609 39.4297C37.7734 39.4297 37.6035 39.4238 37.4512 39.4121C37.3105 39.4121 37.1699 39.4121 37.0293 39.4121C36.8887 39.4238 36.7305 39.4414 36.5547 39.4648C36.3906 39.5 36.1973 39.5586 35.9746 39.6406L36.0098 35.2109ZM38.4707 29.9551C39.4902 29.9551 40.4219 29.7383 41.2656 29.3047C42.1211 28.8594 42.8535 28.2617 43.4629 27.5117C44.0723 26.75 44.541 25.8711 44.8691 24.875C45.209 23.8672 45.3789 22.8008 45.3789 21.6758C45.3789 20.5391 45.209 19.4668 44.8691 18.459C44.5293 17.4512 44.0488 16.5723 43.4277 15.8223C42.8184 15.0605 42.0918 14.4629 41.248 14.0293C40.4043 13.584 39.4785 13.3613 38.4707 13.3613C37.4629 13.3613 36.5371 13.584 35.6934 14.0293C34.8496 14.4629 34.123 15.0605 33.5137 15.8223C32.9043 16.5723 32.4238 17.4512 32.0723 18.459C31.7324 19.4668 31.5625 20.5391 31.5625 21.6758C31.5625 22.8008 31.7324 23.8672 32.0723 24.875C32.4238 25.8711 32.9043 26.75 33.5137 27.5117C34.123 28.2617 34.8496 28.8594 35.6934 29.3047C36.5371 29.7383 37.4629 29.9551 38.4707 29.9551ZM65.8574 16.7891H74.4707V30.1836H76.668V35H68.9512V33.4531C68.3301 34.0156 67.6035 34.4492 66.7715 34.7539C65.9395 35.0586 64.9785 35.2109 63.8887 35.2109C62.8809 35.2109 61.9316 35.0527 61.041 34.7363C60.1504 34.4199 59.3711 33.9453 58.7031 33.3125C58.0469 32.668 57.5254 31.8652 57.1387 30.9043C56.7637 29.9434 56.5762 28.8125 56.5762 27.5117V21.6055H54.2031V16.7891H62.2539V27.5117C62.2539 28.7305 62.5645 29.6445 63.1855 30.2539C63.8066 30.8516 64.6152 31.1504 65.6113 31.1504C66.3145 31.1504 66.9531 30.9336 67.5273 30.5C68.1016 30.0664 68.5176 29.4805 68.7754 28.7422V21.6055H65.8574V16.7891ZM79.3398 16.7891H87.5137V30.1836H90.0449V35H79.3398V30.1836H82.082V21.6055H79.3398V16.7891ZM81.8008 10.918C81.8008 10.4844 81.877 10.0801 82.0293 9.70508C82.1934 9.31836 82.416 8.98438 82.6973 8.70312C82.9785 8.42188 83.3066 8.19922 83.6816 8.03516C84.0684 7.87109 84.4844 7.78906 84.9297 7.78906C85.3516 7.78906 85.75 7.87109 86.125 8.03516C86.5 8.19922 86.8281 8.42188 87.1094 8.70312C87.3906 8.98438 87.6133 9.31836 87.7773 9.70508C87.9414 10.0801 88.0234 10.4844 88.0234 10.918C88.0234 11.3516 87.9414 11.7617 87.7773 12.1484C87.6133 12.5234 87.3906 12.8516 87.1094 13.1328C86.8281 13.4141 86.5 13.6367 86.125 13.8008C85.75 13.9648 85.3516 14.0469 84.9297 14.0469C84.4844 14.0469 84.0684 13.9648 83.6816 13.8008C83.3066 13.6367 82.9785 13.4141 82.6973 13.1328C82.416 12.8516 82.1934 12.5234 82.0293 12.1484C81.877 11.7617 81.8008 11.3516 81.8008 10.918ZM93.4727 32.1172L101.014 21.4648H97.4805V24.207H92.8926V16.7891H108.854V19.9531L100.926 30.2891H104.969V26.791H109.574V35H93.4727V32.1172Z" fill="#6066D0"/>
<path d="M113.846 30.1836H116.324V13.1855H113.846V8.35156H124.814L132.672 27.582L139.967 8.35156H151.094V13.1855H148.615V30.1836H151.059V35H141.092V30.1836H142.92V14.8555L134.939 34.6836H130L121.879 15.3828V30.1836H123.865V35H113.846V30.1836ZM159.232 27.0371L159.285 27.582C159.414 28.1094 159.631 28.5723 159.936 28.9707C160.252 29.3691 160.621 29.7031 161.043 29.9727C161.465 30.2422 161.934 30.4473 162.449 30.5879C162.965 30.7168 163.486 30.7812 164.014 30.7812C164.541 30.7812 165.039 30.752 165.508 30.6934C165.988 30.623 166.451 30.5352 166.896 30.4297C167.342 30.3125 167.775 30.1836 168.197 30.043C168.619 29.8906 169.047 29.7324 169.48 29.5684L171.414 33.1719C170.746 33.582 170.131 33.9336 169.568 34.2266C169.018 34.5078 168.461 34.7422 167.898 34.9297C167.336 35.1172 166.738 35.252 166.105 35.334C165.473 35.4277 164.734 35.4746 163.891 35.4746C162.309 35.4746 160.902 35.2168 159.672 34.7012C158.441 34.1738 157.404 33.4648 156.561 32.5742C155.729 31.6836 155.09 30.6406 154.645 29.4453C154.211 28.25 153.994 26.9844 153.994 25.6484C153.994 24.3125 154.223 23.0586 154.68 21.8867C155.148 20.7148 155.805 19.6953 156.648 18.8281C157.492 17.9492 158.5 17.2578 159.672 16.7539C160.844 16.25 162.145 15.998 163.574 15.998C165.004 15.998 166.27 16.2383 167.371 16.7188C168.484 17.1875 169.422 17.8438 170.184 18.6875C170.945 19.5195 171.531 20.5039 171.941 21.6406C172.352 22.7656 172.574 23.9785 172.609 25.2793C172.645 25.5723 172.662 25.8652 172.662 26.1582C172.674 26.4395 172.668 26.7324 172.645 27.0371H159.232ZM163.434 20.3926C162.777 20.3926 162.215 20.4746 161.746 20.6387C161.289 20.791 160.902 21.0078 160.586 21.2891C160.27 21.5586 160.018 21.8691 159.83 22.2207C159.643 22.5723 159.496 22.9414 159.391 23.3281H167.002C166.92 22.9297 166.803 22.5547 166.65 22.2031C166.498 21.8516 166.287 21.541 166.018 21.2715C165.748 21.002 165.402 20.791 164.98 20.6387C164.57 20.4746 164.055 20.3926 163.434 20.3926Z" fill="#FCA82F"/>
<rect x="5" y="43" width="110" height="22" fill="#6066D0"/>
<path d="M13.5859 47.4321H18.6562V49.5806H17.4062V53.0259L21.1953 49.7212V47.4321H25.2344V49.7368H24.3516L20.4062 53.1274L24.1875 56.9556H25.1484V59.2759H21.2188V56.9556L17.4062 53.1431V57.1353H18.6562V59.2759H13.5859V57.1353H14.8125V49.5806H13.5859V47.4321ZM32.9219 54.6196C32.9219 54.1665 32.8021 53.8123 32.5625 53.5571C32.3229 53.2967 32.0052 53.1665 31.6094 53.1665C31.3385 53.1665 31.0651 53.2264 30.7891 53.3462C30.513 53.466 30.2448 53.6899 29.9844 54.0181V57.1353H31.2969V59.2759H26.2656V57.1353H27.4531V53.3228H26.2812V51.1821H29.9688V51.8931C30.3073 51.6274 30.6849 51.4191 31.1016 51.2681C31.5234 51.1118 31.9661 51.0337 32.4297 51.0337C33.4036 51.0337 34.1536 51.3071 34.6797 51.854C35.2057 52.3957 35.4688 53.1899 35.4688 54.2368V57.1353H36.6172V59.2759H32.9219V54.6196ZM37.6094 55.1978C37.6094 54.6092 37.7161 54.0571 37.9297 53.5415C38.1432 53.0259 38.4401 52.5754 38.8203 52.1899C39.2005 51.8045 39.6536 51.4998 40.1797 51.2759C40.7057 51.0519 41.2839 50.9399 41.9141 50.9399C42.5443 50.9399 43.1224 51.0519 43.6484 51.2759C44.1797 51.4998 44.6354 51.8045 45.0156 52.1899C45.3958 52.5754 45.6901 53.0259 45.8984 53.5415C46.112 54.0571 46.2188 54.6092 46.2188 55.1978C46.2188 55.7863 46.1146 56.341 45.9062 56.8618C45.7031 57.3774 45.4115 57.8306 45.0312 58.2212C44.6562 58.6066 44.2031 58.9113 43.6719 59.1353C43.1458 59.3592 42.5599 59.4712 41.9141 59.4712C41.263 59.4712 40.6719 59.3592 40.1406 59.1353C39.6146 58.9113 39.1641 58.6066 38.7891 58.2212C38.4141 57.8358 38.1224 57.3853 37.9141 56.8696C37.7109 56.3488 37.6094 55.7915 37.6094 55.1978ZM39.9453 55.1978C39.9453 55.505 39.9974 55.7889 40.1016 56.0493C40.2057 56.3045 40.3464 56.5259 40.5234 56.7134C40.7057 56.9009 40.9141 57.0467 41.1484 57.1509C41.388 57.255 41.6432 57.3071 41.9141 57.3071C42.1901 57.3071 42.4453 57.2576 42.6797 57.1587C42.9193 57.0545 43.125 56.9087 43.2969 56.7212C43.474 56.5337 43.612 56.3123 43.7109 56.0571C43.8099 55.7967 43.8594 55.5103 43.8594 55.1978C43.8594 54.8748 43.8099 54.5832 43.7109 54.3228C43.612 54.0623 43.474 53.841 43.2969 53.6587C43.125 53.4764 42.9193 53.3384 42.6797 53.2446C42.4453 53.1457 42.1901 53.0988 41.9141 53.104C41.6432 53.0988 41.388 53.1457 41.1484 53.2446C40.9141 53.3384 40.7057 53.4764 40.5234 53.6587C40.3464 53.841 40.2057 54.0623 40.1016 54.3228C39.9974 54.5832 39.9453 54.8748 39.9453 55.1978ZM47.1016 51.1821H51.3281V53.3228H50.4141L51.2734 56.2056L52.9375 51.1821H55.2266L56.9062 56.4634L57.9375 53.3228H57.0703V51.1821H61.2969V53.3228H60.2109L58.0469 59.3071H55.7109L54.0156 54.1431L52.2891 59.3071H50.0156L48.0078 53.3228H47.1016V51.1821ZM62.0703 47.1196H65.7188V57.1353H66.9688V59.2759H62.0703V57.1353H63.3203V49.2603H62.0703V47.1196ZM70.4297 55.7368L70.4531 55.979C70.5104 56.2134 70.6068 56.4191 70.7422 56.5962C70.8828 56.7733 71.0469 56.9217 71.2344 57.0415C71.4219 57.1613 71.6302 57.2524 71.8594 57.3149C72.0885 57.3722 72.3203 57.4009 72.5547 57.4009C72.7891 57.4009 73.0104 57.3879 73.2188 57.3618C73.4323 57.3306 73.638 57.2915 73.8359 57.2446C74.0339 57.1925 74.2266 57.1353 74.4141 57.0728C74.6016 57.005 74.7917 56.9347 74.9844 56.8618L75.8438 58.4634C75.5469 58.6457 75.2734 58.8019 75.0234 58.9321C74.7786 59.0571 74.5312 59.1613 74.2812 59.2446C74.0312 59.328 73.7656 59.3879 73.4844 59.4243C73.2031 59.466 72.875 59.4868 72.5 59.4868C71.7969 59.4868 71.1719 59.3722 70.625 59.1431C70.0781 58.9087 69.6172 58.5936 69.2422 58.1978C68.8724 57.8019 68.5885 57.3384 68.3906 56.8071C68.1979 56.2759 68.1016 55.7134 68.1016 55.1196C68.1016 54.5259 68.2031 53.9686 68.4062 53.4478C68.6146 52.9269 68.9062 52.4738 69.2812 52.0884C69.6562 51.6978 70.1042 51.3905 70.625 51.1665C71.1458 50.9425 71.724 50.8306 72.3594 50.8306C72.9948 50.8306 73.5573 50.9373 74.0469 51.1509C74.5417 51.3592 74.9583 51.6509 75.2969 52.0259C75.6354 52.3957 75.8958 52.8332 76.0781 53.3384C76.2604 53.8384 76.3594 54.3774 76.375 54.9556C76.3906 55.0858 76.3984 55.216 76.3984 55.3462C76.4036 55.4712 76.401 55.6014 76.3906 55.7368H70.4297ZM72.2969 52.7837C72.0052 52.7837 71.7552 52.8201 71.5469 52.8931C71.3438 52.9608 71.1719 53.0571 71.0312 53.1821C70.8906 53.3019 70.7786 53.4399 70.6953 53.5962C70.612 53.7524 70.5469 53.9165 70.5 54.0884H73.8828C73.8464 53.9113 73.7943 53.7446 73.7266 53.5884C73.6589 53.4321 73.5651 53.2941 73.4453 53.1743C73.3255 53.0545 73.1719 52.9608 72.9844 52.8931C72.8021 52.8201 72.5729 52.7837 72.2969 52.7837ZM82.3828 47.1196H85.9219V57.1353H87.5V59.2759H83.5156V58.9634C83.2344 59.1092 82.9453 59.2238 82.6484 59.3071C82.3568 59.3905 82.0599 59.4321 81.7578 59.4321C81.138 59.4321 80.5677 59.3228 80.0469 59.104C79.5312 58.88 79.0859 58.5754 78.7109 58.1899C78.3411 57.8045 78.0521 57.354 77.8438 56.8384C77.6354 56.3175 77.5312 55.7603 77.5312 55.1665C77.5312 54.5728 77.6328 54.0207 77.8359 53.5103C78.0443 52.9946 78.3307 52.5467 78.6953 52.1665C79.0651 51.7863 79.5052 51.4868 80.0156 51.2681C80.5312 51.0493 81.0964 50.9399 81.7109 50.9399C82.0495 50.9399 82.3672 50.9738 82.6641 51.0415C82.9609 51.104 83.2448 51.1951 83.5156 51.3149V49.2603H82.3828V47.1196ZM81.8906 57.2759C82.2344 57.2655 82.5443 57.1769 82.8203 57.0103C83.1016 56.8436 83.3333 56.6248 83.5156 56.354V53.9712C83.3333 53.6951 83.0964 53.4816 82.8047 53.3306C82.5182 53.1743 82.2135 53.0988 81.8906 53.104C81.6198 53.0988 81.3646 53.1457 81.125 53.2446C80.8906 53.3436 80.6823 53.4842 80.5 53.6665C80.3229 53.8488 80.1823 54.0675 80.0781 54.3228C79.974 54.578 79.9219 54.867 79.9219 55.1899C79.9219 55.5076 79.974 55.7967 80.0781 56.0571C80.1823 56.3123 80.3229 56.5311 80.5 56.7134C80.6823 56.8905 80.8906 57.0259 81.125 57.1196C81.3646 57.2134 81.6198 57.2655 81.8906 57.2759ZM94.5391 58.854C94.2474 59.0207 93.9557 59.1405 93.6641 59.2134C93.3724 59.2863 93.0755 59.3228 92.7734 59.3228C92.1484 59.3228 91.5729 59.216 91.0469 59.0024C90.5208 58.7889 90.0651 58.4946 89.6797 58.1196C89.2995 57.7394 89.0026 57.2915 88.7891 56.7759C88.5755 56.2603 88.4688 55.7004 88.4688 55.0962C88.4688 54.5285 88.5703 53.9946 88.7734 53.4946C88.9818 52.9894 89.2708 52.5493 89.6406 52.1743C90.0104 51.7941 90.4531 51.4946 90.9688 51.2759C91.4844 51.0571 92.0443 50.9451 92.6484 50.9399C93.0182 50.9451 93.3568 50.9842 93.6641 51.0571C93.9766 51.13 94.2682 51.229 94.5391 51.354V51.1821H96.9062V58.9399C96.9062 59.6222 96.7891 60.2108 96.5547 60.7056C96.3203 61.2056 96.0052 61.617 95.6094 61.9399C95.2188 62.2681 94.763 62.5103 94.2422 62.6665C93.7214 62.828 93.1745 62.9087 92.6016 62.9087C91.8932 62.9087 91.237 62.8123 90.6328 62.6196C90.0339 62.4269 89.5 62.1665 89.0312 61.8384L90.0078 60.104C90.3672 60.3332 90.7578 60.5129 91.1797 60.6431C91.6016 60.7785 92.0703 60.8462 92.5859 60.8462C92.8672 60.8462 93.125 60.8149 93.3594 60.7524C93.599 60.6899 93.8047 60.5832 93.9766 60.4321C94.1536 60.2863 94.2917 60.0884 94.3906 59.8384C94.4896 59.5884 94.5391 59.2733 94.5391 58.8931V58.854ZM92.8516 57.1587C93.2161 57.1587 93.5443 57.0675 93.8359 56.8853C94.1328 56.6978 94.3672 56.453 94.5391 56.1509L94.5547 54.1821C94.3776 53.854 94.1354 53.5936 93.8281 53.4009C93.5208 53.2082 93.1875 53.1092 92.8281 53.104C92.5729 53.1092 92.3229 53.1613 92.0781 53.2603C91.8333 53.354 91.6198 53.4894 91.4375 53.6665C91.2604 53.8436 91.1198 54.0545 91.0156 54.2993C90.9115 54.5389 90.8594 54.8071 90.8594 55.104C90.8594 55.4165 90.9115 55.7004 91.0156 55.9556C91.1198 56.2108 91.2604 56.4269 91.4375 56.604C91.6146 56.7811 91.8229 56.9191 92.0625 57.0181C92.3073 57.1118 92.5703 57.1587 92.8516 57.1587ZM100.758 55.7368L100.781 55.979C100.839 56.2134 100.935 56.4191 101.07 56.5962C101.211 56.7733 101.375 56.9217 101.562 57.0415C101.75 57.1613 101.958 57.2524 102.188 57.3149C102.417 57.3722 102.648 57.4009 102.883 57.4009C103.117 57.4009 103.339 57.3879 103.547 57.3618C103.76 57.3306 103.966 57.2915 104.164 57.2446C104.362 57.1925 104.555 57.1353 104.742 57.0728C104.93 57.005 105.12 56.9347 105.312 56.8618L106.172 58.4634C105.875 58.6457 105.602 58.8019 105.352 58.9321C105.107 59.0571 104.859 59.1613 104.609 59.2446C104.359 59.328 104.094 59.3879 103.812 59.4243C103.531 59.466 103.203 59.4868 102.828 59.4868C102.125 59.4868 101.5 59.3722 100.953 59.1431C100.406 58.9087 99.9453 58.5936 99.5703 58.1978C99.2005 57.8019 98.9167 57.3384 98.7188 56.8071C98.526 56.2759 98.4297 55.7134 98.4297 55.1196C98.4297 54.5259 98.5312 53.9686 98.7344 53.4478C98.9427 52.9269 99.2344 52.4738 99.6094 52.0884C99.9844 51.6978 100.432 51.3905 100.953 51.1665C101.474 50.9425 102.052 50.8306 102.688 50.8306C103.323 50.8306 103.885 50.9373 104.375 51.1509C104.87 51.3592 105.286 51.6509 105.625 52.0259C105.964 52.3957 106.224 52.8332 106.406 53.3384C106.589 53.8384 106.688 54.3774 106.703 54.9556C106.719 55.0858 106.727 55.216 106.727 55.3462C106.732 55.4712 106.729 55.6014 106.719 55.7368H100.758ZM102.625 52.7837C102.333 52.7837 102.083 52.8201 101.875 52.8931C101.672 52.9608 101.5 53.0571 101.359 53.1821C101.219 53.3019 101.107 53.4399 101.023 53.5962C100.94 53.7524 100.875 53.9165 100.828 54.0884H104.211C104.174 53.9113 104.122 53.7446 104.055 53.5884C103.987 53.4321 103.893 53.2941 103.773 53.1743C103.654 53.0545 103.5 52.9608 103.312 52.8931C103.13 52.8201 102.901 52.7837 102.625 52.7837Z" fill="#FEFEFE"/>
<rect x="115" y="43" width="58" height="22" fill="#FCA82F"/>
<path d="M119.492 56.9283H120.594V49.3737H119.492V47.2252H124.367L127.859 55.7721L131.102 47.2252H136.047V49.3737H134.945V56.9283H136.031V59.069H131.602V56.9283H132.414V50.1158L128.867 58.9283H126.672L123.062 50.3502V56.9283H123.945V59.069H119.492V56.9283ZM139.664 55.5299L139.688 55.7721C139.745 56.0065 139.841 56.2122 139.977 56.3893C140.117 56.5664 140.281 56.7148 140.469 56.8346C140.656 56.9544 140.865 57.0455 141.094 57.108C141.323 57.1653 141.555 57.194 141.789 57.194C142.023 57.194 142.245 57.1809 142.453 57.1549C142.667 57.1237 142.872 57.0846 143.07 57.0377C143.268 56.9856 143.461 56.9283 143.648 56.8658C143.836 56.7981 144.026 56.7278 144.219 56.6549L145.078 58.2565C144.781 58.4388 144.508 58.595 144.258 58.7252C144.013 58.8502 143.766 58.9544 143.516 59.0377C143.266 59.1211 143 59.1809 142.719 59.2174C142.438 59.2591 142.109 59.2799 141.734 59.2799C141.031 59.2799 140.406 59.1653 139.859 58.9362C139.312 58.7018 138.852 58.3867 138.477 57.9908C138.107 57.595 137.823 57.1315 137.625 56.6002C137.432 56.069 137.336 55.5065 137.336 54.9127C137.336 54.319 137.438 53.7617 137.641 53.2408C137.849 52.72 138.141 52.2669 138.516 51.8815C138.891 51.4908 139.339 51.1836 139.859 50.9596C140.38 50.7356 140.958 50.6237 141.594 50.6237C142.229 50.6237 142.792 50.7304 143.281 50.944C143.776 51.1523 144.193 51.444 144.531 51.819C144.87 52.1888 145.13 52.6263 145.312 53.1315C145.495 53.6315 145.594 54.1705 145.609 54.7487C145.625 54.8789 145.633 55.0091 145.633 55.1393C145.638 55.2643 145.635 55.3945 145.625 55.5299H139.664ZM141.531 52.5768C141.24 52.5768 140.99 52.6132 140.781 52.6862C140.578 52.7539 140.406 52.8502 140.266 52.9752C140.125 53.095 140.013 53.233 139.93 53.3893C139.846 53.5455 139.781 53.7096 139.734 53.8815H143.117C143.081 53.7044 143.029 53.5377 142.961 53.3815C142.893 53.2252 142.799 53.0872 142.68 52.9674C142.56 52.8476 142.406 52.7539 142.219 52.6862C142.036 52.6132 141.807 52.5768 141.531 52.5768ZM149.883 50.9752H151.5V53.0221H149.867L149.852 56.444C149.852 56.6419 149.867 56.8033 149.898 56.9283C149.93 57.0481 149.974 57.1445 150.031 57.2174C150.094 57.2903 150.167 57.3398 150.25 57.3658C150.333 57.3919 150.43 57.4049 150.539 57.4049C150.737 57.4049 150.911 57.3867 151.062 57.3502C151.214 57.3086 151.365 57.2617 151.516 57.2096L151.852 58.7174C151.586 58.8841 151.289 59.0169 150.961 59.1158C150.638 59.2148 150.253 59.2643 149.805 59.2643C149.487 59.2643 149.182 59.2096 148.891 59.1002C148.604 58.9908 148.352 58.8268 148.133 58.608C147.914 58.3841 147.74 58.1054 147.609 57.7721C147.479 57.4388 147.417 57.0507 147.422 56.608L147.445 53.0221H146.281V50.9752H147.453L147.469 49.0377L149.898 47.8815L149.883 50.9752ZM155.18 55.5299L155.203 55.7721C155.26 56.0065 155.357 56.2122 155.492 56.3893C155.633 56.5664 155.797 56.7148 155.984 56.8346C156.172 56.9544 156.38 57.0455 156.609 57.108C156.839 57.1653 157.07 57.194 157.305 57.194C157.539 57.194 157.76 57.1809 157.969 57.1549C158.182 57.1237 158.388 57.0846 158.586 57.0377C158.784 56.9856 158.977 56.9283 159.164 56.8658C159.352 56.7981 159.542 56.7278 159.734 56.6549L160.594 58.2565C160.297 58.4388 160.023 58.595 159.773 58.7252C159.529 58.8502 159.281 58.9544 159.031 59.0377C158.781 59.1211 158.516 59.1809 158.234 59.2174C157.953 59.2591 157.625 59.2799 157.25 59.2799C156.547 59.2799 155.922 59.1653 155.375 58.9362C154.828 58.7018 154.367 58.3867 153.992 57.9908C153.622 57.595 153.339 57.1315 153.141 56.6002C152.948 56.069 152.852 55.5065 152.852 54.9127C152.852 54.319 152.953 53.7617 153.156 53.2408C153.365 52.72 153.656 52.2669 154.031 51.8815C154.406 51.4908 154.854 51.1836 155.375 50.9596C155.896 50.7356 156.474 50.6237 157.109 50.6237C157.745 50.6237 158.307 50.7304 158.797 50.944C159.292 51.1523 159.708 51.444 160.047 51.819C160.385 52.1888 160.646 52.6263 160.828 53.1315C161.01 53.6315 161.109 54.1705 161.125 54.7487C161.141 54.8789 161.148 55.0091 161.148 55.1393C161.154 55.2643 161.151 55.3945 161.141 55.5299H155.18ZM157.047 52.5768C156.755 52.5768 156.505 52.6132 156.297 52.6862C156.094 52.7539 155.922 52.8502 155.781 52.9752C155.641 53.095 155.529 53.233 155.445 53.3893C155.362 53.5455 155.297 53.7096 155.25 53.8815H158.633C158.596 53.7044 158.544 53.5377 158.477 53.3815C158.409 53.2252 158.315 53.0872 158.195 52.9674C158.076 52.8476 157.922 52.7539 157.734 52.6862C157.552 52.6132 157.323 52.5768 157.047 52.5768ZM169.688 53.9205H167.492V53.0846C167.279 53.0846 167.083 53.1002 166.906 53.1315C166.729 53.1575 166.573 53.2044 166.438 53.2721C166.307 53.3398 166.195 53.4336 166.102 53.5533C166.013 53.6731 165.951 53.8216 165.914 53.9987V56.9283H167.562V59.069H162.281V56.9283H163.492V53.1158H162.297V50.9752H165.898V51.5455C166.128 51.3632 166.385 51.2226 166.672 51.1237C166.958 51.0247 167.271 50.9752 167.609 50.9752C167.953 50.9752 168.307 50.9778 168.672 50.983C169.036 50.9882 169.375 50.9908 169.688 50.9908V53.9205Z" fill="#FEFEFE"/>
</svg>
