<svg width="239" height="48" viewBox="0 0 239 48" fill="none" xmlns="http://www.w3.org/2000/svg">
<mask id="mask0_279_1523" style="mask-type:luminance" maskUnits="userSpaceOnUse" x="0" y="0" width="48" height="48">
<path d="M0 0H48V48H0V0Z" fill="white"/>
</mask>
<g mask="url(#mask0_279_1523)">
<path fillRule="evenodd" clipRule="evenodd" d="M15.4544 3.52799L3.58038 15.4029V32.1953L15.4544 44.0693H32.2467L44.1207 32.1953V15.4029L32.2467 3.52799H15.4544ZM32.6266 2.61071H15.0745L2.66406 15.024V32.5752L15.0745 44.9865H32.6266L45.038 32.5752V15.024L32.6266 2.61071Z" fill="#6066D0"/>
<path fillRule="evenodd" clipRule="evenodd" d="M15.4544 3.52799L3.58038 15.4029V32.1953L15.4544 44.0693H32.2467L44.1207 32.1953V15.4029L32.2467 3.52799H15.4544ZM32.6266 2.61071H15.0745L2.66406 15.024V32.5752L15.0745 44.9865H32.6266L45.038 32.5752V15.024L32.6266 2.61071Z" fill="#6066D0"/>
</g>
<mask id="mask1_279_1523" style="mask-type:luminance" maskUnits="userSpaceOnUse" x="0" y="0" width="48" height="48">
<path d="M0 0H48V48H0V0Z" fill="white"/>
</mask>
<g mask="url(#mask1_279_1523)">
<path fillRule="evenodd" clipRule="evenodd" d="M16.3313 5.84857L5.69925 16.4806V31.5178L16.3313 42.1498H31.3675L41.9995 31.5178V16.4815L31.3675 5.84953L16.3313 5.84857ZM31.7484 4.93129H15.9513L4.78125 16.1016V31.8986L15.9513 43.069H31.7484L42.9187 31.8986V16.1016L31.7484 4.93129Z" fill="#6066D0"/>
<path fillRule="evenodd" clipRule="evenodd" d="M16.3313 5.84857L5.69925 16.4806V31.5178L16.3313 42.1498H31.3675L41.9995 31.5178V16.4815L31.3675 5.84953L16.3313 5.84857ZM31.7484 4.93129H15.9513L4.78125 16.1016V31.8986L15.9513 43.069H31.7484L42.9187 31.8986V16.1016L31.7484 4.93129Z" fill="#6066D0"/>
</g>
<mask id="mask2_279_1523" style="mask-type:luminance" maskUnits="userSpaceOnUse" x="0" y="0" width="48" height="48">
<path d="M0 0H48V48H0V0Z" fill="white"/>
</mask>
<g mask="url(#mask2_279_1523)">
<path fillRule="evenodd" clipRule="evenodd" d="M39.9039 7.94663H7.7974V40.0531H39.9039V7.94663ZM6.87988 7.02934V40.9706H40.8212V7.02934H6.87988Z" fill="#6066D0"/>
<path fillRule="evenodd" clipRule="evenodd" d="M39.9039 7.94663H7.7974V40.0531H39.9039V7.94663ZM6.87988 7.02934V40.9706H40.8212V7.02934H6.87988Z" fill="#6066D0"/>
</g>
<path fillRule="evenodd" clipRule="evenodd" d="M46.704 24L24 1.2972L1.2972 24L24 46.704L46.704 24ZM24 0L0 24L24 48L48 24L24 0Z" fill="#6066D0"/>
<path fillRule="evenodd" clipRule="evenodd" d="M46.704 24L24 1.2972L1.2972 24L24 46.704L46.704 24ZM24 0L0 24L24 48L48 24L24 0Z" fill="#6066D0"/>
<g style="mix-blend-mode:darken" filter="url(#filter0_i_279_1523)">
<mask id="mask3_279_1523" style="mask-type:luminance" maskUnits="userSpaceOnUse" x="11" y="10" width="26" height="28">
<path d="M12.3691 12H35.6064V36H12.3691V12Z" fill="white" stroke="white" strokeWidth="2.06311"/>
<path d="M12.3691 12H35.6064V36H12.3691V12Z" fill="white" stroke="white" strokeWidth="2.06311"/>
</mask>
<g mask="url(#mask3_279_1523)">
<path d="M17.257 36C16.8072 36.0007 16.3611 35.9195 15.9404 35.7603C15.84 35.7258 15.7414 35.6931 15.6382 35.6644C15.3076 35.571 15.0367 35.3334 14.9009 35.0179C14.7732 34.7247 14.7867 34.3892 14.9374 34.1072C14.9782 34.0294 15.0321 33.9592 15.0967 33.8997C15.4943 33.5438 15.5858 33.0771 15.4444 32.8314C15.3719 32.7195 15.2629 32.6361 15.1359 32.5953C14.7088 32.4404 14.4669 31.9888 14.5745 31.5474C14.6263 31.3603 14.7274 31.1906 14.8672 31.0558C14.6087 30.8932 14.4451 30.6152 14.4285 30.3103C14.4206 30.1216 14.4712 29.9351 14.5734 29.7763C14.6673 29.6459 14.7224 29.4916 14.7323 29.3313L14.7633 28.3422H12.6284C12.5393 28.3422 12.4565 28.2965 12.409 28.2212C12.3615 28.1458 12.3561 28.0513 12.3946 27.971C12.7197 27.2934 13.1134 26.5969 13.4943 25.9232C13.68 25.5947 13.8657 25.2662 14.0442 24.9392C14.4151 24.2623 14.6353 23.5132 14.6896 22.7433L14.691 22.7246C14.7051 22.5258 14.6988 22.326 14.6722 22.1284C14.2238 18.7975 15.7062 15.7915 18.7393 13.8807C22.5606 11.4743 27.8279 11.3637 31.2651 13.6179C33.2595 14.921 34.7112 16.9055 35.3492 19.2007C36.0927 21.9979 35.0862 24.5353 34.0846 26.6944C33.6932 27.5337 33.3701 28.4032 33.1184 29.2944C32.5693 31.2774 32.3404 33.3353 32.4406 35.3905C32.447 35.5335 32.3363 35.6547 32.1933 35.6613C32.1246 35.6644 32.0574 35.6401 32.0066 35.5937C31.9558 35.5474 31.9255 35.4827 31.9223 35.414C31.8197 33.3038 32.0549 31.1907 32.619 29.1547C32.8781 28.2366 33.2108 27.3409 33.6139 26.4762C34.8094 23.8999 35.4766 21.6994 34.848 19.3342C34.2431 17.1626 32.8686 15.2852 30.981 14.0528C27.7056 11.9047 22.6735 12.0173 19.0158 14.3209C17.3386 15.3772 14.6111 17.7872 15.1862 22.06C15.2177 22.293 15.2251 22.5286 15.2084 22.7632L15.207 22.7818C15.1473 23.6256 14.906 24.4464 14.4996 25.1882C14.3198 25.5167 14.1329 25.8482 13.9463 26.1788C13.6397 26.7212 13.3238 27.2785 13.0472 27.824H15.0318C15.102 27.824 15.1692 27.8525 15.218 27.9029C15.2669 27.9533 15.2932 28.0213 15.291 28.0915L15.2518 29.348C15.2393 29.6058 15.1539 29.8546 15.0054 30.0656C14.9627 30.1369 14.9427 30.2194 14.9481 30.3023C14.9668 30.4654 15.0769 30.6034 15.2317 30.658L15.5894 30.7584C15.7064 30.7913 15.7849 30.901 15.7783 31.0223C15.7718 31.1438 15.6818 31.2444 15.5618 31.2644C15.3353 31.2957 15.1472 31.4549 15.0788 31.6731C15.0375 31.86 15.1422 32.0483 15.3228 32.1118C15.561 32.1952 15.7631 32.3583 15.895 32.5735C16.1834 33.0749 15.9934 33.7951 15.4435 34.287C15.4236 34.3065 15.407 34.3291 15.3946 34.3541C15.3183 34.497 15.3126 34.6671 15.379 34.8149C15.4524 34.9857 15.5989 35.1142 15.7777 35.1648C15.8901 35.1961 15.9975 35.2321 16.1063 35.2686C16.5561 35.4403 17.0385 35.5102 17.5186 35.4733L20.337 35.4787H20.3467C21.5851 35.4927 22.7693 34.9711 23.5949 34.0479C24.0979 33.4722 24.3272 32.7607 24.3236 32.4611C24.3219 32.3179 24.4366 32.2005 24.5798 32.1988H24.5829C24.7249 32.1988 24.8406 32.313 24.8423 32.455C24.8476 32.9113 24.5483 33.7442 23.9853 34.3893C23.0613 35.4252 21.7348 36.0115 20.3467 35.9974H20.3359L17.5328 35.9915C17.4358 35.9974 17.3439 36 17.257 36Z" fill="#FF981F" stroke="#F2994A" strokeWidth="2.06311"/>
</g>
<mask id="mask4_279_1523" style="mask-type:luminance" maskUnits="userSpaceOnUse" x="11" y="10" width="26" height="28">
<path d="M12.3691 12H35.6064V36H12.3691V12Z" fill="white" stroke="white" strokeWidth="2.06311"/>
<path d="M12.3691 12H35.6064V36H12.3691V12Z" fill="white" stroke="white" strokeWidth="2.06311"/>
</mask>
<g mask="url(#mask4_279_1523)">
<path d="M16.7716 31.2675H15.5182C15.3749 31.2675 15.2588 31.1514 15.2588 31.0081C15.2588 30.8649 15.3749 30.7488 15.5182 30.7488H16.7716C16.9148 30.7488 17.0309 30.8649 17.0309 31.0081C17.0309 31.1514 16.9148 31.2675 16.7716 31.2675Z" fill="#FF981F" stroke="#F2994A" strokeWidth="2.06311"/>
</g>
<mask id="mask5_279_1523" style="mask-type:luminance" maskUnits="userSpaceOnUse" x="11" y="10" width="26" height="28">
<path d="M12.3691 12H35.6064V36H12.3691V12Z" fill="white" stroke="white" strokeWidth="2.06311"/>
</mask>
<g mask="url(#mask5_279_1523)">
<path d="M24.7335 22.74C24.7013 22.7403 24.6694 22.7344 24.6394 22.7228C24.5656 22.694 22.8313 21.9997 22.5687 20.2329C22.3436 18.9147 23.1023 17.6265 24.3641 17.184C25.3243 16.8821 26.3727 17.1341 27.0909 17.8393C27.7353 18.4473 27.9784 19.3685 27.718 20.2152C27.5306 20.8407 27.0657 21.3452 26.4575 21.5829C25.8816 21.8104 25.2331 21.7603 24.6989 21.4472C24.175 21.1474 23.8327 20.6085 23.784 20.0069C23.7472 19.3831 24.0799 18.7958 24.6339 18.5067C25.2188 18.2293 25.9176 18.388 26.3254 18.8908C26.599 19.2513 26.6481 19.7345 26.4527 20.1428C26.234 20.5675 25.7562 20.7911 25.2901 20.6869C25.0358 20.6164 24.8219 20.4441 24.6987 20.2107C24.6313 20.0844 24.6791 19.9274 24.8054 19.8599C24.8661 19.8275 24.9372 19.8205 25.003 19.8405C25.0688 19.8605 25.124 19.9059 25.1564 19.9666C25.2109 20.0717 25.3057 20.1503 25.419 20.1845C25.6502 20.2277 25.8823 20.1147 25.991 19.9062C26.0958 19.6749 26.0651 19.4048 25.9111 19.2029C25.6532 18.8973 25.222 18.8032 24.8602 18.9736C24.4957 19.1713 24.2781 19.5616 24.3017 19.9756C24.3421 20.4034 24.5876 20.785 24.9603 20.999C25.3567 21.2351 25.8405 21.2724 26.2684 21.1C26.7286 20.9196 27.0802 20.5375 27.222 20.0639C27.4294 19.4024 27.2371 18.6805 26.728 18.2098C26.1488 17.6393 25.3024 17.4343 24.5263 17.6764C23.5046 18.0402 22.8941 19.0878 23.0813 20.1561C23.3002 21.6282 24.812 22.2331 24.8277 22.239C24.9611 22.291 25.0272 22.4413 24.9752 22.5747C24.9364 22.6744 24.8404 22.7401 24.7335 22.74Z" fill="#FF981F" stroke="#F2994A" strokeWidth="2.06311"/>
</g>
<mask id="mask6_279_1523" style="mask-type:luminance" maskUnits="userSpaceOnUse" x="11" y="10" width="26" height="28">
<path d="M12.3691 12H35.6064V36H12.3691V12Z" fill="white" stroke="white" strokeWidth="2.06311"/>
</mask>
<g mask="url(#mask6_279_1523)">
<path d="M25.1789 23.7736C24.0828 23.7766 23.0306 23.3433 22.2545 22.5693C21.4697 21.7952 21.0271 20.7393 21.0255 19.6369C21.0179 18.5346 21.4516 17.475 22.23 16.6944C23.0039 15.9094 24.0599 15.4668 25.1623 15.4654H25.1796C27.4659 15.4679 29.3214 17.3154 29.3339 19.6017C29.3414 20.704 28.9077 21.7636 28.1294 22.5442C27.3554 23.3291 26.2994 23.7716 25.1971 23.7731L25.1789 23.7736ZM25.1789 15.9841H25.1635C24.1988 15.9855 23.2747 16.3727 22.5972 17.0596C21.9161 17.7428 21.5366 18.6701 21.5433 19.6349C21.5447 20.5996 21.932 21.5236 22.6188 22.201C23.298 22.8784 24.2186 23.2579 25.1779 23.2557H25.1938C26.1585 23.2544 27.0826 22.8672 27.7601 22.1804C28.4414 21.4972 28.8211 20.5699 28.8148 19.6051C28.8045 17.6041 27.1799 15.9867 25.1789 15.9841Z" fill="#FF981F" stroke="#F2994A" strokeWidth="2.06311"/>
</g>
<mask id="mask7_279_1523" style="mask-type:luminance" maskUnits="userSpaceOnUse" x="11" y="11" width="26" height="26">
<path d="M12.3691 12H35.6064V36H12.3691V12Z" fill="white" stroke="white" strokeWidth="0.970874"/>
</mask>
<g mask="url(#mask7_279_1523)">
<path d="M25.6339 32.8442H25.6299L24.7787 32.8404C24.5131 32.8374 24.2991 32.6219 24.2979 32.3563L24.3234 27.1708C24.3242 27.0281 24.4401 26.9128 24.5828 26.9128C24.6516 26.9131 24.7186 26.9407 24.7671 26.9896C24.8155 27.0385 24.8425 27.1046 24.8422 27.1734L24.8167 32.3213L25.5966 32.3248L25.5874 23.4572C25.5874 23.314 25.7035 23.1979 25.8468 23.1979C25.99 23.1979 26.1061 23.314 26.1061 23.4572L26.1153 32.362C26.1161 32.4905 26.0651 32.6139 25.9739 32.7043C25.8837 32.7944 25.7613 32.8447 25.6339 32.8442Z" fill="#FF981F" stroke="#F2994A" strokeWidth="0.970874"/>
</g>
<mask id="mask8_279_1523" style="mask-type:luminance" maskUnits="userSpaceOnUse" x="14" y="14" width="23" height="22">
<path d="M15.0859 15.6923H35.0105V34.1538H15.0859V15.6923Z" fill="white" stroke="white" strokeWidth="2.06311"/>
</mask>
<g mask="url(#mask8_279_1523)">
<path d="M24.5612 31.8133L21.7434 31.7999C21.4276 31.7967 21.1731 31.5399 21.1729 31.2241L21.1753 30.7181C21.1755 30.566 21.2371 30.4203 21.3459 30.3141C21.4531 30.2083 21.5977 30.1492 21.7483 30.1496H21.7511L22.5397 30.1538C22.6183 30.1536 22.682 30.09 22.6823 30.0115L22.6901 28.6733C22.6896 28.594 22.6255 28.5297 22.5461 28.529L21.7585 28.525C21.6069 28.5247 21.4616 28.464 21.3549 28.3562C21.2474 28.2488 21.1875 28.1027 21.1886 27.9508L21.191 27.4683C21.1935 27.1535 21.4495 26.8995 21.7644 26.8996H21.7666L24.3217 26.9121L24.3073 23.4683C24.3068 23.3251 24.4223 23.2085 24.5655 23.2079C24.7083 23.2079 24.8255 23.3234 24.8261 23.4662L24.8414 27.1716C24.8417 27.2407 24.8144 27.3071 24.7655 27.3559C24.7178 27.4067 24.6505 27.4344 24.5809 27.432L21.7644 27.4184C21.7353 27.4183 21.7113 27.4412 21.7099 27.4702L21.7075 27.9527C21.7074 27.9666 21.7128 27.98 21.7227 27.9898C21.7328 28.0002 21.7467 28.0059 21.7611 28.0057L22.5499 28.0097C22.9148 28.0134 23.2088 28.3101 23.209 28.6751L23.2012 30.013C23.1993 30.3774 22.9035 30.6718 22.5392 30.672L21.7485 30.6678C21.7339 30.6676 21.7199 30.6733 21.7096 30.6836C21.6997 30.6931 21.6941 30.7063 21.6942 30.7201L21.6917 31.226C21.6918 31.2407 21.6978 31.2547 21.7083 31.2649C21.7188 31.2752 21.7329 31.2808 21.7476 31.2806L24.562 31.2941C24.6308 31.2944 24.6967 31.3221 24.7451 31.3709C24.7935 31.4198 24.8205 31.4859 24.8202 31.5547C24.8198 31.6975 24.704 31.8132 24.5612 31.8133Z" fill="#FF981F" stroke="#F2994A" strokeWidth="2.06311"/>
</g>
</g>
<path d="M65.6445 24.957C65.6445 24.6445 65.5404 24.3451 65.332 24.0586C65.1367 23.7721 64.8438 23.5247 64.4531 23.3164C64.0625 23.0951 63.5807 22.9193 63.0078 22.7891C62.4479 22.6589 61.8099 22.5938 61.0938 22.5938C60.8203 22.5938 60.5273 22.6198 60.2148 22.6719C59.9023 22.7109 59.6094 22.7891 59.3359 22.9062C59.0755 23.0234 58.8542 23.1862 58.6719 23.3945C58.5026 23.5898 58.418 23.8438 58.418 24.1562C58.418 24.3125 58.4375 24.4622 58.4766 24.6055C58.5286 24.7487 58.6198 24.8854 58.75 25.0156C58.8802 25.1458 59.056 25.2695 59.2773 25.3867C59.5117 25.4909 59.8112 25.5755 60.1758 25.6406L63.8477 26.3633C65.1758 26.6237 66.2891 26.9492 67.1875 27.3398C68.0859 27.7305 68.8086 28.1862 69.3555 28.707C69.9023 29.2279 70.293 29.8073 70.5273 30.4453C70.7747 31.0833 70.8984 31.7734 70.8984 32.5156C70.8984 33.6745 70.625 34.6901 70.0781 35.5625C69.5443 36.4349 68.8346 37.1641 67.9492 37.75C67.0768 38.3229 66.0872 38.7526 64.9805 39.0391C63.8867 39.3385 62.7799 39.4883 61.6602 39.4883C60.931 39.4883 60.2669 39.4427 59.668 39.3516C59.082 39.2604 58.5482 39.1367 58.0664 38.9805C57.5977 38.8242 57.1745 38.6419 56.7969 38.4336C56.4323 38.2122 56.0938 37.9714 55.7812 37.7109H52.2461V32.2812H57.7734V32.3984C57.7865 32.776 57.9036 33.1081 58.125 33.3945C58.3464 33.668 58.6328 33.9023 58.9844 34.0977C59.349 34.293 59.7591 34.4427 60.2148 34.5469C60.6706 34.638 61.1523 34.6836 61.6602 34.6836C62.832 34.6836 63.6849 34.5339 64.2188 34.2344C64.7526 33.9219 65.0195 33.5247 65.0195 33.043C65.0195 32.6654 64.8893 32.3464 64.6289 32.0859C64.3685 31.8125 63.9062 31.5977 63.2422 31.4414L59.4922 30.6406C57.1354 30.1849 55.3581 29.4297 54.1602 28.375C52.9622 27.3073 52.3633 25.9401 52.3633 24.2734C52.3633 23.2969 52.5911 22.4115 53.0469 21.6172C53.5026 20.8099 54.1211 20.1263 54.9023 19.5664C55.6836 18.9935 56.5951 18.5508 57.6367 18.2383C58.6914 17.9258 59.8177 17.7695 61.0156 17.7695C61.8359 17.7695 62.5651 17.8216 63.2031 17.9258C63.8411 18.0169 64.4141 18.1406 64.9219 18.2969C65.4297 18.4531 65.8724 18.6419 66.25 18.8633C66.6406 19.0716 66.9857 19.293 67.2852 19.5273H70.6836V24.957H65.6445ZM85.5664 39.2344C83.8997 38.8958 82.3568 38.2773 80.9375 37.3789C79.5312 36.4674 78.3073 35.3477 77.2656 34.0195C76.237 32.6914 75.4297 31.194 74.8438 29.5273C74.2708 27.8477 73.9844 26.0703 73.9844 24.1953C73.9844 22.776 74.1536 21.4154 74.4922 20.1133C74.8307 18.7982 75.306 17.5742 75.918 16.4414C76.5299 15.2956 77.2656 14.2604 78.125 13.3359C78.9974 12.3984 79.9609 11.5977 81.0156 10.9336C82.0833 10.2695 83.2292 9.75521 84.4531 9.39062C85.6771 9.02604 86.9596 8.84375 88.3008 8.84375C89.6419 8.84375 90.9245 9.02604 92.1484 9.39062C93.3854 9.75521 94.5312 10.2695 95.5859 10.9336C96.6536 11.5977 97.6172 12.3984 98.4766 13.3359C99.349 14.2604 100.091 15.2956 100.703 16.4414C101.328 17.5742 101.81 18.7982 102.148 20.1133C102.487 21.4154 102.656 22.776 102.656 24.1953C102.656 26.0964 102.357 27.8932 101.758 29.5859C101.159 31.2786 100.326 32.7956 99.2578 34.1367C98.2031 35.4779 96.9466 36.5977 95.4883 37.4961C94.0299 38.3945 92.4479 38.9935 90.7422 39.293C91.1458 39.4622 91.543 39.6445 91.9336 39.8398C92.3372 40.0482 92.7409 40.237 93.1445 40.4062C93.5482 40.5885 93.9453 40.7383 94.3359 40.8555C94.7396 40.9857 95.1497 41.0573 95.5664 41.0703C95.9701 41.0703 96.3607 41.0182 96.7383 40.9141C97.1289 40.8099 97.4805 40.6471 97.793 40.4258C98.1055 40.2044 98.3724 39.918 98.5938 39.5664C98.8281 39.2148 98.9844 38.7852 99.0625 38.2773L103.418 40.4453C103.301 41.3958 103.027 42.2552 102.598 43.0234C102.181 43.7917 101.641 44.4492 100.977 44.9961C100.312 45.543 99.5573 45.9661 98.7109 46.2656C97.8646 46.5651 96.9661 46.7148 96.0156 46.7148C95.2474 46.7148 94.4727 46.5651 93.6914 46.2656C92.9232 45.9792 92.1745 45.6602 91.4453 45.3086C90.7292 44.9701 90.0521 44.651 89.4141 44.3516C88.776 44.0651 88.2161 43.9219 87.7344 43.9219C87.526 43.9219 87.3372 43.9154 87.168 43.9023C87.0117 43.9023 86.8555 43.9023 86.6992 43.9023C86.543 43.9154 86.3672 43.9349 86.1719 43.9609C85.9896 44 85.7747 44.0651 85.5273 44.1562L85.5664 39.2344ZM88.3008 33.3945C89.4336 33.3945 90.4688 33.1536 91.4062 32.6719C92.3568 32.1771 93.1706 31.513 93.8477 30.6797C94.5247 29.8333 95.0456 28.8568 95.4102 27.75C95.7878 26.6302 95.9766 25.4453 95.9766 24.1953C95.9766 22.9323 95.7878 21.7409 95.4102 20.6211C95.0326 19.5013 94.4987 18.5247 93.8086 17.6914C93.1315 16.8451 92.3242 16.181 91.3867 15.6992C90.4492 15.2044 89.4206 14.957 88.3008 14.957C87.181 14.957 86.1523 15.2044 85.2148 15.6992C84.2773 16.181 83.4701 16.8451 82.793 17.6914C82.1159 18.5247 81.582 19.5013 81.1914 20.6211C80.8138 21.7409 80.625 22.9323 80.625 24.1953C80.625 25.4453 80.8138 26.6302 81.1914 27.75C81.582 28.8568 82.1159 29.8333 82.793 30.6797C83.4701 31.513 84.2773 32.1771 85.2148 32.6719C86.1523 33.1536 87.181 33.3945 88.3008 33.3945ZM118.73 18.7656H128.301V33.6484H130.742V39H122.168V37.2812C121.478 37.9062 120.671 38.388 119.746 38.7266C118.822 39.0651 117.754 39.2344 116.543 39.2344C115.423 39.2344 114.368 39.0586 113.379 38.707C112.389 38.3555 111.523 37.8281 110.781 37.125C110.052 36.4089 109.473 35.5169 109.043 34.4492C108.626 33.3815 108.418 32.125 108.418 30.6797V24.1172H105.781V18.7656H114.727V30.6797C114.727 32.0339 115.072 33.0495 115.762 33.7266C116.452 34.3906 117.35 34.7227 118.457 34.7227C119.238 34.7227 119.948 34.4818 120.586 34C121.224 33.5182 121.686 32.8672 121.973 32.0469V24.1172H118.73V18.7656ZM133.711 18.7656H142.793V33.6484H145.605V39H133.711V33.6484H136.758V24.1172H133.711V18.7656ZM136.445 12.2422C136.445 11.7604 136.53 11.3112 136.699 10.8945C136.882 10.4648 137.129 10.0938 137.441 9.78125C137.754 9.46875 138.118 9.22135 138.535 9.03906C138.965 8.85677 139.427 8.76562 139.922 8.76562C140.391 8.76562 140.833 8.85677 141.25 9.03906C141.667 9.22135 142.031 9.46875 142.344 9.78125C142.656 10.0938 142.904 10.4648 143.086 10.8945C143.268 11.3112 143.359 11.7604 143.359 12.2422C143.359 12.724 143.268 13.1797 143.086 13.6094C142.904 14.026 142.656 14.3906 142.344 14.7031C142.031 15.0156 141.667 15.263 141.25 15.4453C140.833 15.6276 140.391 15.7188 139.922 15.7188C139.427 15.7188 138.965 15.6276 138.535 15.4453C138.118 15.263 137.754 15.0156 137.441 14.7031C137.129 14.3906 136.882 14.026 136.699 13.6094C136.53 13.1797 136.445 12.724 136.445 12.2422ZM149.414 35.7969L157.793 23.9609H153.867V27.0078H148.77V18.7656H166.504V22.2812L157.695 33.7656H162.188V29.8789H167.305V39H149.414V35.7969Z" fill="#6066D0"/>
<path d="M172.051 33.6484H174.805V14.7617H172.051V9.39062H184.238L192.969 30.7578L201.074 9.39062H213.438V14.7617H210.684V33.6484H213.398V39H202.324V33.6484H204.355V16.6172L195.488 38.6484H190L180.977 17.2031V33.6484H183.184V39H172.051V33.6484ZM222.48 30.1523L222.539 30.7578C222.682 31.3438 222.923 31.8581 223.262 32.3008C223.613 32.7435 224.023 33.1146 224.492 33.4141C224.961 33.7135 225.482 33.9414 226.055 34.0977C226.628 34.2409 227.207 34.3125 227.793 34.3125C228.379 34.3125 228.932 34.2799 229.453 34.2148C229.987 34.1367 230.501 34.0391 230.996 33.9219C231.491 33.7917 231.973 33.6484 232.441 33.4922C232.91 33.3229 233.385 33.1471 233.867 32.9648L236.016 36.9688C235.273 37.4245 234.59 37.8151 233.965 38.1406C233.353 38.4531 232.734 38.7135 232.109 38.9219C231.484 39.1302 230.82 39.2799 230.117 39.3711C229.414 39.4753 228.594 39.5273 227.656 39.5273C225.898 39.5273 224.336 39.2409 222.969 38.668C221.602 38.082 220.449 37.2943 219.512 36.3047C218.587 35.3151 217.878 34.1562 217.383 32.8281C216.901 31.5 216.66 30.0938 216.66 28.6094C216.66 27.125 216.914 25.7318 217.422 24.4297C217.943 23.1276 218.672 21.9948 219.609 21.0312C220.547 20.0547 221.667 19.2865 222.969 18.7266C224.271 18.1667 225.716 17.8867 227.305 17.8867C228.893 17.8867 230.299 18.1536 231.523 18.6875C232.76 19.2083 233.802 19.9375 234.648 20.875C235.495 21.7995 236.146 22.8932 236.602 24.1562C237.057 25.4062 237.305 26.7539 237.344 28.1992C237.383 28.5247 237.402 28.8503 237.402 29.1758C237.415 29.4883 237.409 29.8138 237.383 30.1523H222.48ZM227.148 22.7695C226.419 22.7695 225.794 22.8607 225.273 23.043C224.766 23.2122 224.336 23.4531 223.984 23.7656C223.633 24.0651 223.353 24.4102 223.145 24.8008C222.936 25.1914 222.773 25.6016 222.656 26.0312H231.113C231.022 25.5885 230.892 25.1719 230.723 24.7812C230.553 24.3906 230.319 24.0456 230.02 23.7461C229.72 23.4466 229.336 23.2122 228.867 23.043C228.411 22.8607 227.839 22.7695 227.148 22.7695Z" fill="#FCA82F"/>
<defs>
<filter id="filter0_i_279_1523" x="11.3379" y="10.9684" width="25.2998" height="26.0631" filterUnits="userSpaceOnUse" colorInterpolationFilters="sRGB">
<feFlood floodOpacity="0" result="BackgroundImageFix"/>
<filter id="filter0_i_279_1523" x="11.3379" y="10.9684" width="25.2998" height="26.0631" filterUnits="userSpaceOnUse" colorInterpolationFilters="sRGB">
<feFlood floodOpacity="0" result="BackgroundImageFix"/>
<feBlend mode="normal" in="SourceGraphic" in2="BackgroundImageFix" result="shape"/>
<feColorMatrix in="SourceAlpha" type="matrix" values="0 0 0 0 0 0 0 0 0 0 0 0 0 0 0 0 0 0 127 0" result="hardAlpha"/>
<feMorphology radius="0.121359" operator="erode" in="SourceAlpha" result="effect1_innerShadow_279_1523"/>
<feOffset/>
<feComposite in2="hardAlpha" operator="arithmetic" k2="-1" k3="1"/>
<feColorMatrix type="matrix" values="0 0 0 0 0.878431 0 0 0 0 0.878431 0 0 0 0 0.878431 0 0 0 1 0"/>
<feBlend mode="normal" in2="shape" result="effect1_innerShadow_279_1523"/>
</filter>
</defs>
</svg>
